{"glyphs":{"0":{"ha":894,"x_min":67,"x_max":828,"o":"m 447 -14 q 67 458 67 -14 q 447 931 67 931 q 828 458 828 931 q 447 -14 828 -14 m 447 172 q 558 239 524 172 q 592 458 592 306 q 558 678 592 611 q 447 744 524 744 q 337 678 371 744 q 303 458 303 611 q 337 239 303 306 q 447 172 371 172 z "},"1":{"ha":610,"x_min":38,"x_max":507,"o":"m 507 917 l 507 0 l 276 0 l 276 682 q 60 565 169 585 l 38 763 q 195 819 108 771 q 317 917 282 867 l 507 917 z "},"2":{"ha":828,"x_min":54,"x_max":771,"o":"m 83 153 q 419 409 315 297 q 522 619 522 521 q 490 709 522 675 q 399 743 458 743 q 297 695 333 743 q 258 556 260 647 l 54 618 q 156 849 57 767 q 414 931 256 931 q 607 888 529 931 q 722 779 685 846 q 760 636 760 713 q 663 399 760 507 q 371 178 567 290 l 371 176 q 556 182 463 182 l 771 182 l 771 0 l 83 0 l 83 153 z "},"3":{"ha":824,"x_min":43,"x_max":760,"o":"m 415 931 q 656 861 569 931 q 742 674 742 792 q 712 555 742 603 q 641 485 682 507 q 569 463 600 463 l 569 458 q 652 438 608 458 q 728 372 696 418 q 760 250 760 325 q 714 113 760 172 q 588 19 668 53 q 404 -14 507 -14 q 169 40 257 -14 q 43 214 81 94 l 260 307 q 302 203 267 235 q 401 171 338 171 q 495 199 461 171 q 529 279 529 228 q 497 357 529 333 q 393 381 464 381 l 342 381 l 342 532 l 382 532 q 479 559 449 532 q 510 642 510 586 q 481 719 510 692 q 401 746 453 746 q 274 622 285 746 l 64 693 q 180 873 86 815 q 415 931 274 931 z "},"4":{"ha":897,"x_min":46,"x_max":858,"o":"m 858 201 l 718 201 l 718 0 l 507 0 l 507 201 l 46 201 l 46 314 l 439 917 l 718 917 l 718 365 l 858 365 l 858 201 m 268 365 l 507 365 l 507 610 l 513 760 l 510 760 q 429 610 485 697 l 268 365 z "},"5":{"ha":810,"x_min":42,"x_max":757,"o":"m 469 592 q 623 556 558 592 q 722 458 688 521 q 757 314 757 394 q 710 132 757 206 q 582 22 663 58 q 400 -14 501 -14 q 188 29 275 -14 q 42 169 100 72 l 251 289 q 299 197 265 228 q 401 167 332 167 q 504 200 467 167 q 542 297 542 233 q 506 393 540 360 q 401 426 471 426 q 256 372 301 426 l 75 399 l 133 917 l 706 917 l 706 732 l 307 732 l 286 560 q 279 526 282 536 l 281 526 q 358 574 308 557 q 469 592 408 592 z "},"6":{"ha":856,"x_min":69,"x_max":804,"o":"m 472 931 q 792 728 722 931 l 596 636 q 457 742 567 742 q 331 669 379 742 q 282 472 282 596 l 282 450 l 285 450 q 367 540 308 508 q 507 571 425 571 q 660 535 592 571 q 766 435 728 500 q 804 286 804 371 q 711 67 804 147 q 451 -14 618 -14 q 168 107 267 -14 q 69 458 69 228 q 122 722 69 615 q 264 879 174 828 q 472 931 354 931 m 456 410 q 360 377 396 410 q 325 288 325 344 q 360 198 325 231 q 456 165 396 165 q 552 197 518 165 q 586 288 586 229 q 552 378 586 346 q 456 410 518 410 z "},"7":{"ha":853,"x_min":58,"x_max":813,"o":"m 813 917 l 813 747 q 581 407 649 589 q 513 0 513 225 l 276 0 q 349 390 276 210 q 579 729 422 569 l 58 729 l 58 917 l 813 917 z "},"8":{"ha":871,"x_min":63,"x_max":808,"o":"m 435 928 q 687 859 594 928 q 779 671 779 790 q 741 548 779 600 q 633 469 703 496 l 633 468 q 763 383 718 440 q 808 243 808 326 q 709 55 808 124 q 435 -14 610 -14 q 163 55 263 -14 q 63 243 63 124 q 108 383 63 326 q 238 468 153 440 l 238 469 q 130 548 168 496 q 92 671 92 600 q 184 859 92 790 q 435 928 276 928 m 435 754 q 346 726 378 754 q 314 649 314 699 q 347 572 314 600 q 435 543 379 543 q 524 572 492 543 q 557 649 557 600 q 524 726 557 699 q 435 754 492 754 m 435 160 q 539 190 501 160 q 576 274 576 221 q 539 358 576 328 q 435 388 501 388 q 332 358 369 388 q 294 274 294 328 q 332 190 294 221 q 435 160 369 160 z "},"9":{"ha":854,"x_min":57,"x_max":793,"o":"m 414 931 q 695 808 597 931 q 793 453 793 686 q 692 100 793 214 q 404 -14 592 -14 q 194 35 278 -14 q 68 186 110 83 l 282 271 q 323 193 294 219 q 408 167 351 167 q 578 426 578 167 l 578 449 l 574 449 q 494 359 556 390 q 354 328 433 328 q 204 364 272 328 q 97 467 136 400 q 57 619 57 533 q 151 848 57 765 q 414 931 244 931 m 407 743 q 310 711 344 743 q 276 621 276 679 q 310 531 276 563 q 407 499 344 499 q 503 531 468 499 q 538 621 538 564 q 503 710 538 678 q 407 743 468 743 z "}," ":{"ha":397,"x_min":0,"x_max":0,"o":""},"A":{"ha":940,"x_min":6,"x_max":935,"o":"m 626 207 l 310 207 l 246 0 l 6 0 l 328 917 l 614 917 l 935 0 l 689 0 l 626 207 m 576 369 l 510 589 l 469 733 l 467 733 l 429 590 l 360 369 l 576 369 z "},"Á":{"ha":940,"x_min":6,"x_max":935,"o":"m 543 1004 l 371 1004 l 447 1225 l 671 1225 l 543 1004 m 626 207 l 310 207 l 246 0 l 6 0 l 328 917 l 614 917 l 935 0 l 689 0 l 626 207 m 576 369 l 510 589 l 469 733 l 467 733 l 429 590 l 360 369 l 576 369 z "},"Ă":{"ha":940,"x_min":6,"x_max":935,"o":"m 626 207 l 310 207 l 246 0 l 6 0 l 328 917 l 614 917 l 935 0 l 689 0 l 626 207 m 576 369 l 510 589 l 469 733 l 467 733 l 429 590 l 360 369 l 576 369 m 704 1219 q 642 1053 704 1114 q 469 993 579 993 q 297 1053 360 993 q 235 1219 235 1114 l 388 1219 q 410 1151 388 1176 q 469 1125 432 1125 q 529 1151 507 1125 q 551 1219 551 1176 l 704 1219 z "},"Â":{"ha":940,"x_min":6,"x_max":935,"o":"m 376 999 l 201 999 l 356 1231 l 583 1231 l 738 999 l 563 999 l 469 1121 l 376 999 m 626 207 l 310 207 l 246 0 l 6 0 l 328 917 l 614 917 l 935 0 l 689 0 l 626 207 m 576 369 l 510 589 l 469 733 l 467 733 l 429 590 l 360 369 l 576 369 z "},"Ä":{"ha":940,"x_min":6,"x_max":935,"o":"m 626 207 l 310 207 l 246 0 l 6 0 l 328 917 l 614 917 l 935 0 l 689 0 l 626 207 m 576 369 l 510 589 l 469 733 l 467 733 l 429 590 l 360 369 l 576 369 m 315 1208 q 403 1180 371 1208 q 435 1101 435 1151 q 403 1023 435 1051 q 315 994 371 994 q 230 1023 261 994 q 199 1101 199 1051 q 230 1180 199 1151 q 315 1208 261 1208 m 621 1208 q 708 1180 676 1208 q 740 1101 740 1151 q 708 1023 740 1051 q 621 994 676 994 q 535 1023 567 994 q 504 1101 504 1051 q 535 1180 504 1151 q 621 1208 567 1208 z "},"À":{"ha":940,"x_min":6,"x_max":935,"o":"m 375 1004 l 247 1225 l 471 1225 l 547 1004 l 375 1004 m 626 207 l 310 207 l 246 0 l 6 0 l 328 917 l 614 917 l 935 0 l 689 0 l 626 207 m 576 369 l 510 589 l 469 733 l 467 733 l 429 590 l 360 369 l 576 369 z "},"Ā":{"ha":940,"x_min":6,"x_max":935,"o":"m 626 207 l 310 207 l 246 0 l 6 0 l 328 917 l 614 917 l 935 0 l 689 0 l 626 207 m 576 369 l 510 589 l 469 733 l 467 733 l 429 590 l 360 369 l 576 369 m 728 1013 l 211 1013 l 211 1158 l 728 1158 l 728 1013 z "},"Ą":{"ha":940,"x_min":6,"x_max":944,"o":"m 944 -267 q 800 -299 893 -299 q 661 -258 714 -299 q 608 -142 608 -218 q 696 0 608 -49 l 689 0 l 626 207 l 310 207 l 246 0 l 6 0 l 328 917 l 614 917 l 935 0 q 808 -42 844 -15 q 772 -106 772 -68 q 792 -151 772 -135 q 849 -167 813 -167 q 913 -153 892 -167 l 944 -267 m 576 369 l 510 589 l 469 733 l 467 733 l 429 590 l 360 369 l 576 369 z "},"Å":{"ha":940,"x_min":6,"x_max":935,"o":"m 626 207 l 310 207 l 246 0 l 6 0 l 325 886 q 263 1017 263 932 q 319 1147 263 1097 q 471 1196 375 1196 q 624 1147 568 1196 q 679 1017 679 1097 q 615 886 679 932 l 935 0 l 689 0 l 626 207 m 471 1086 q 412 1065 433 1086 q 390 1008 390 1044 q 412 951 390 972 q 471 931 433 931 q 530 951 508 931 q 551 1008 551 972 q 530 1065 551 1044 q 471 1086 508 1086 m 576 369 l 510 589 l 471 733 l 465 733 l 429 590 l 360 369 l 576 369 z "},"Ã":{"ha":940,"x_min":6,"x_max":935,"o":"m 626 207 l 310 207 l 246 0 l 6 0 l 328 917 l 614 917 l 935 0 l 689 0 l 626 207 m 576 369 l 510 589 l 469 733 l 467 733 l 429 590 l 360 369 l 576 369 m 744 1219 q 561 999 736 999 q 494 1011 519 999 q 439 1047 468 1024 q 408 1070 421 1063 q 379 1078 394 1078 q 344 1058 357 1078 q 328 1000 332 1039 l 194 1000 q 378 1221 203 1221 q 445 1208 419 1221 q 501 1171 471 1194 q 533 1148 522 1154 q 558 1142 543 1142 q 594 1161 582 1142 q 611 1219 607 1181 l 744 1219 z "},"Æ":{"ha":1283,"x_min":-6,"x_max":1242,"o":"m 1242 176 l 1242 0 l 585 0 l 585 272 l 338 272 l 235 0 l -6 0 l 388 917 l 1222 917 l 1222 740 l 807 740 l 807 543 l 1125 543 l 1125 376 l 807 376 l 807 176 l 1242 176 m 585 428 l 585 747 l 518 747 l 397 428 l 585 428 z "},"B":{"ha":950,"x_min":101,"x_max":901,"o":"m 101 917 l 547 917 q 878 669 878 915 q 831 533 878 589 q 692 464 783 478 l 692 463 q 848 391 794 449 q 901 247 901 333 q 817 64 901 128 q 568 0 732 0 l 101 0 l 101 917 m 504 542 q 633 642 633 542 q 504 742 633 742 l 332 742 l 332 542 l 504 542 m 528 168 q 624 194 592 168 q 657 271 657 221 q 624 345 657 319 q 528 371 592 371 l 332 371 l 332 168 l 528 168 z "},"C":{"ha":946,"x_min":63,"x_max":914,"o":"m 914 263 q 769 55 875 124 q 513 -14 664 -14 q 272 42 374 -14 q 117 205 171 99 q 63 458 63 311 q 117 711 63 604 q 272 874 171 818 q 511 931 374 931 q 765 867 661 931 q 903 678 869 804 l 693 593 q 633 710 674 676 q 519 743 593 743 q 363 670 418 743 q 307 458 307 597 q 360 247 307 319 q 515 174 414 174 q 636 210 592 174 q 697 324 681 246 l 914 263 z "},"Ć":{"ha":946,"x_min":63,"x_max":914,"o":"m 704 1225 l 576 1004 l 404 1004 l 481 1225 l 704 1225 m 914 263 q 769 55 875 124 q 513 -14 664 -14 q 272 42 374 -14 q 117 205 171 99 q 63 458 63 311 q 117 711 63 604 q 272 874 171 818 q 511 931 374 931 q 765 867 661 931 q 903 678 869 804 l 693 593 q 633 710 674 676 q 519 743 593 743 q 363 670 418 743 q 307 458 307 597 q 360 247 307 319 q 515 174 414 174 q 636 210 592 174 q 697 324 681 246 l 914 263 z "},"Č":{"ha":946,"x_min":63,"x_max":914,"o":"m 613 1001 l 385 1001 l 231 1233 l 406 1233 l 499 1111 l 592 1233 l 767 1233 l 613 1001 m 914 263 q 769 55 875 124 q 513 -14 664 -14 q 272 42 374 -14 q 117 205 171 99 q 63 458 63 311 q 117 711 63 604 q 272 874 171 818 q 511 931 374 931 q 765 867 661 931 q 903 678 869 804 l 693 593 q 633 710 674 676 q 519 743 593 743 q 363 670 418 743 q 307 458 307 597 q 360 247 307 319 q 515 174 414 174 q 636 210 592 174 q 697 324 681 246 l 914 263 z "},"Ç":{"ha":946,"x_min":63,"x_max":914,"o":"m 914 263 q 806 83 882 149 q 619 -4 731 17 q 693 -135 693 -57 q 639 -256 693 -214 q 494 -299 585 -299 q 322 -243 382 -299 l 376 -133 q 476 -172 415 -172 q 532 -154 511 -172 q 553 -104 553 -136 q 531 -51 553 -74 q 454 -11 510 -29 q 166 129 269 6 q 63 458 63 253 q 117 711 63 604 q 272 874 171 818 q 511 931 374 931 q 765 867 661 931 q 903 678 869 804 l 693 593 q 633 710 674 676 q 519 743 593 743 q 363 670 418 743 q 307 458 307 597 q 360 247 307 319 q 515 174 414 174 q 636 210 592 174 q 697 324 681 246 l 914 263 z "},"D":{"ha":997,"x_min":101,"x_max":935,"o":"m 490 917 q 820 798 706 917 q 935 458 935 679 q 820 119 935 238 q 490 0 706 0 l 101 0 l 101 917 l 490 917 m 467 181 q 636 250 582 181 q 690 458 690 319 q 636 667 690 597 q 467 736 582 736 l 340 736 l 340 181 l 467 181 z "},"Ð":{"ha":1029,"x_min":18,"x_max":968,"o":"m 522 917 q 853 798 738 917 q 968 458 968 679 q 853 119 968 238 q 522 0 738 0 l 133 0 l 133 379 l 18 379 l 18 538 l 133 538 l 133 917 l 522 917 m 499 181 q 668 250 614 181 q 722 458 722 319 q 668 667 722 597 q 499 736 614 736 l 372 736 l 372 538 l 554 538 l 554 379 l 372 379 l 372 181 l 499 181 z "},"Ď":{"ha":997,"x_min":101,"x_max":935,"o":"m 338 1001 l 183 1233 l 358 1233 l 451 1111 l 544 1233 l 719 1233 l 565 1001 l 338 1001 m 490 917 q 820 798 706 917 q 935 458 935 679 q 820 119 935 238 q 490 0 706 0 l 101 0 l 101 917 l 490 917 m 467 181 q 636 250 582 181 q 690 458 690 319 q 636 667 690 597 q 467 736 582 736 l 340 736 l 340 181 l 467 181 z "},"Đ":{"ha":1029,"x_min":18,"x_max":968,"o":"m 522 917 q 853 798 738 917 q 968 458 968 679 q 853 119 968 238 q 522 0 738 0 l 133 0 l 133 379 l 18 379 l 18 538 l 133 538 l 133 917 l 522 917 m 499 181 q 668 250 614 181 q 722 458 722 319 q 668 667 722 597 q 499 736 614 736 l 372 736 l 372 538 l 554 538 l 554 379 l 372 379 l 372 181 l 499 181 z "},"E":{"ha":876,"x_min":101,"x_max":833,"o":"m 833 185 l 833 0 l 101 0 l 101 917 l 815 917 l 815 732 l 340 732 l 340 546 l 718 546 l 718 372 l 340 372 l 340 185 l 833 185 z "},"É":{"ha":876,"x_min":101,"x_max":833,"o":"m 522 1004 l 350 1004 l 426 1225 l 650 1225 l 522 1004 m 833 185 l 833 0 l 101 0 l 101 917 l 815 917 l 815 732 l 340 732 l 340 546 l 718 546 l 718 372 l 340 372 l 340 185 l 833 185 z "},"Ě":{"ha":876,"x_min":101,"x_max":833,"o":"m 331 1001 l 176 1233 l 351 1233 l 444 1111 l 538 1233 l 713 1233 l 558 1001 l 331 1001 m 833 185 l 833 0 l 101 0 l 101 917 l 815 917 l 815 732 l 340 732 l 340 546 l 718 546 l 718 372 l 340 372 l 340 185 l 833 185 z "},"Ê":{"ha":876,"x_min":101,"x_max":833,"o":"m 356 999 l 181 999 l 335 1231 l 563 1231 l 717 999 l 542 999 l 449 1121 l 356 999 m 833 185 l 833 0 l 101 0 l 101 917 l 815 917 l 815 732 l 340 732 l 340 546 l 718 546 l 718 372 l 340 372 l 340 185 l 833 185 z "},"Ë":{"ha":876,"x_min":101,"x_max":833,"o":"m 833 185 l 833 0 l 101 0 l 101 917 l 815 917 l 815 732 l 340 732 l 340 546 l 718 546 l 718 372 l 340 372 l 340 185 l 833 185 m 294 1208 q 382 1180 350 1208 q 414 1101 414 1151 q 382 1023 414 1051 q 294 994 350 994 q 209 1023 240 994 q 178 1101 178 1051 q 209 1180 178 1151 q 294 1208 240 1208 m 600 1208 q 688 1180 656 1208 q 719 1101 719 1151 q 688 1023 719 1051 q 600 994 656 994 q 515 1023 546 994 q 483 1101 483 1051 q 515 1180 483 1151 q 600 1208 546 1208 z "},"Ė":{"ha":876,"x_min":101,"x_max":833,"o":"m 833 185 l 833 0 l 101 0 l 101 917 l 815 917 l 815 732 l 340 732 l 340 546 l 718 546 l 718 372 l 340 372 l 340 185 l 833 185 m 449 1225 q 545 1197 513 1225 q 578 1114 578 1168 q 545 1030 578 1058 q 449 1001 513 1001 q 355 1030 388 1001 q 322 1114 322 1058 q 355 1197 322 1168 q 449 1225 388 1225 z "},"È":{"ha":876,"x_min":101,"x_max":833,"o":"m 389 1004 l 261 1225 l 485 1225 l 561 1004 l 389 1004 m 833 185 l 833 0 l 101 0 l 101 917 l 815 917 l 815 732 l 340 732 l 340 546 l 718 546 l 718 372 l 340 372 l 340 185 l 833 185 z "},"Ē":{"ha":876,"x_min":101,"x_max":833,"o":"m 833 185 l 833 0 l 101 0 l 101 917 l 815 917 l 815 732 l 340 732 l 340 546 l 718 546 l 718 372 l 340 372 l 340 185 l 833 185 m 707 1013 l 190 1013 l 190 1158 l 707 1158 l 707 1013 z "},"Ę":{"ha":876,"x_min":101,"x_max":844,"o":"m 844 -267 q 700 -299 793 -299 q 560 -259 614 -299 q 507 -144 507 -219 q 617 0 507 -49 l 101 0 l 101 917 l 815 917 l 815 732 l 340 732 l 340 546 l 718 546 l 718 372 l 340 372 l 340 185 l 833 185 l 833 0 l 835 0 q 708 -42 744 -17 q 672 -106 672 -68 q 692 -151 672 -135 q 749 -167 713 -167 q 813 -153 792 -167 l 844 -267 z "},"F":{"ha":850,"x_min":101,"x_max":814,"o":"m 340 732 l 340 538 l 718 538 l 718 353 l 340 353 l 340 0 l 101 0 l 101 917 l 814 917 l 814 732 l 340 732 z "},"G":{"ha":1004,"x_min":61,"x_max":924,"o":"m 924 496 l 924 0 l 757 0 l 750 108 q 488 -14 671 -14 q 266 41 363 -14 q 115 202 169 96 q 61 457 61 308 q 117 710 61 604 q 275 874 172 817 q 518 931 378 931 q 771 875 675 931 q 922 696 867 819 l 701 608 q 639 710 685 676 q 525 743 593 743 q 363 671 419 743 q 307 458 307 599 q 532 169 307 169 q 669 208 617 169 q 721 321 721 247 l 721 335 l 493 335 l 493 496 l 924 496 z "},"Ğ":{"ha":1004,"x_min":61,"x_max":924,"o":"m 924 496 l 924 0 l 757 0 l 750 108 q 488 -14 671 -14 q 266 41 363 -14 q 115 202 169 96 q 61 457 61 308 q 117 710 61 604 q 275 874 172 817 q 518 931 378 931 q 771 875 675 931 q 922 696 867 819 l 701 608 q 639 710 685 676 q 525 743 593 743 q 363 671 419 743 q 307 458 307 599 q 532 169 307 169 q 669 208 617 169 q 721 321 721 247 l 721 335 l 493 335 l 493 496 l 924 496 m 744 1219 q 682 1053 744 1114 q 510 993 619 993 q 338 1053 400 993 q 275 1219 275 1114 l 428 1219 q 450 1151 428 1176 q 510 1125 472 1125 q 569 1151 547 1125 q 592 1219 592 1176 l 744 1219 z "},"H":{"ha":1031,"x_min":101,"x_max":929,"o":"m 929 917 l 929 0 l 690 0 l 690 369 l 340 369 l 340 0 l 101 0 l 101 917 l 340 917 l 340 554 l 690 554 l 690 917 l 929 917 z "},"I":{"ha":442,"x_min":101,"x_max":340,"o":"m 340 0 l 101 0 l 101 917 l 340 917 l 340 0 z "},"Ĳ":{"ha":1304,"x_min":101,"x_max":1218,"o":"m 340 0 l 101 0 l 101 917 l 340 917 l 340 0 m 1218 353 q 1117 83 1218 179 q 832 -14 1017 -14 q 572 64 660 -14 q 483 276 483 142 q 492 363 483 317 l 728 404 q 721 318 721 351 q 751 208 721 242 q 843 174 781 174 q 948 222 917 174 q 979 378 979 271 l 979 917 l 1218 917 l 1218 353 z "},"Í":{"ha":442,"x_min":101,"x_max":421,"o":"m 421 1225 l 293 1004 l 121 1004 l 197 1225 l 421 1225 m 340 0 l 101 0 l 101 917 l 340 917 l 340 0 z "},"Î":{"ha":442,"x_min":-47,"x_max":489,"o":"m 314 999 l 221 1121 l 128 999 l -47 999 l 107 1231 l 335 1231 l 489 999 l 314 999 m 340 0 l 101 0 l 101 917 l 340 917 l 340 0 z "},"Ï":{"ha":442,"x_min":-36,"x_max":478,"o":"m 78 1208 q 163 1180 132 1208 q 194 1101 194 1151 q 163 1023 194 1051 q 78 994 132 994 q -6 1023 25 994 q -36 1101 -36 1051 q -6 1180 -36 1151 q 78 1208 25 1208 m 361 1208 q 447 1180 415 1208 q 478 1101 478 1151 q 447 1023 478 1051 q 361 994 415 994 q 278 1023 308 994 q 247 1101 247 1051 q 278 1180 247 1151 q 361 1208 308 1208 m 340 0 l 101 0 l 101 917 l 340 917 l 340 0 z "},"İ":{"ha":442,"x_min":94,"x_max":350,"o":"m 340 0 l 101 0 l 101 917 l 340 917 l 340 0 m 221 1225 q 317 1197 285 1225 q 350 1114 350 1168 q 317 1030 350 1058 q 221 1001 285 1001 q 127 1030 160 1001 q 94 1114 94 1058 q 127 1197 94 1168 q 221 1225 160 1225 z "},"Ì":{"ha":442,"x_min":-1,"x_max":340,"o":"m 299 1004 l 126 1004 l -1 1225 l 222 1225 l 299 1004 m 340 0 l 101 0 l 101 917 l 340 917 l 340 0 z "},"Ī":{"ha":442,"x_min":24,"x_max":417,"o":"m 417 1013 l 24 1013 l 24 1158 l 417 1158 l 417 1013 m 340 0 l 101 0 l 101 917 l 340 917 l 340 0 z "},"Į":{"ha":442,"x_min":22,"x_max":360,"o":"m 360 -265 q 297 -291 332 -283 q 214 -299 263 -299 q 76 -259 129 -299 q 22 -144 22 -219 q 117 0 22 -53 l 101 0 l 101 917 l 340 917 l 340 0 q 221 -44 256 -18 q 186 -104 186 -71 q 206 -149 186 -133 q 260 -165 225 -165 q 326 -150 301 -165 l 360 -265 z "},"J":{"ha":863,"x_min":42,"x_max":776,"o":"m 776 353 q 676 83 776 179 q 390 -14 575 -14 q 130 64 218 -14 q 42 276 42 142 q 50 363 42 317 l 286 404 q 279 318 279 351 q 309 208 279 242 q 401 174 339 174 q 506 222 475 174 q 538 378 538 271 l 538 917 l 776 917 l 776 353 z "},"K":{"ha":963,"x_min":101,"x_max":950,"o":"m 451 393 l 340 258 l 340 0 l 101 0 l 101 917 l 340 917 l 340 510 l 668 917 l 933 917 l 622 544 l 950 0 l 679 0 l 451 393 z "},"L":{"ha":836,"x_min":101,"x_max":800,"o":"m 800 185 l 800 0 l 101 0 l 101 917 l 340 917 l 340 185 l 800 185 z "},"Ĺ":{"ha":836,"x_min":101,"x_max":800,"o":"m 293 1004 l 121 1004 l 197 1225 l 421 1225 l 293 1004 m 800 185 l 800 0 l 101 0 l 101 917 l 340 917 l 340 185 l 800 185 z "},"Ľ":{"ha":836,"x_min":101,"x_max":800,"o":"m 608 642 l 457 642 l 490 974 l 692 974 l 608 642 m 800 185 l 800 0 l 101 0 l 101 917 l 340 917 l 340 185 l 800 185 z "},"Ŀ":{"ha":894,"x_min":101,"x_max":872,"o":"m 800 185 l 800 0 l 101 0 l 101 917 l 340 917 l 340 185 l 800 185 m 733 619 q 835 586 799 619 q 872 493 872 553 q 835 401 872 435 q 733 368 799 368 q 631 401 668 368 q 594 493 594 435 q 631 586 594 553 q 733 619 668 619 z "},"Ł":{"ha":894,"x_min":7,"x_max":858,"o":"m 858 185 l 858 0 l 160 0 l 160 304 l 7 231 l 7 404 l 160 478 l 160 917 l 399 917 l 399 592 l 635 704 l 635 531 l 399 418 l 399 185 l 858 185 z "},"M":{"ha":1264,"x_min":101,"x_max":1163,"o":"m 1163 0 l 951 0 l 951 421 l 958 703 l 956 703 l 729 0 l 536 0 l 310 703 l 307 703 l 314 421 l 314 0 l 101 0 l 101 917 l 442 917 l 586 450 l 638 256 l 640 256 l 693 449 l 836 917 l 1163 917 l 1163 0 z "},"N":{"ha":1029,"x_min":101,"x_max":928,"o":"m 928 0 l 663 0 l 378 496 l 308 635 l 307 635 l 313 463 l 313 0 l 101 0 l 101 917 l 367 917 l 651 421 l 721 282 l 722 282 l 717 454 l 717 917 l 928 917 l 928 0 z "},"Ń":{"ha":1029,"x_min":101,"x_max":928,"o":"m 717 1225 l 589 1004 l 417 1004 l 493 1225 l 717 1225 m 928 0 l 663 0 l 378 496 l 308 635 l 307 635 l 313 463 l 313 0 l 101 0 l 101 917 l 367 917 l 651 421 l 721 282 l 722 282 l 717 454 l 717 917 l 928 917 l 928 0 z "},"Ň":{"ha":1029,"x_min":101,"x_max":928,"o":"m 626 1001 l 399 1001 l 244 1233 l 419 1233 l 513 1111 l 606 1233 l 781 1233 l 626 1001 m 928 0 l 663 0 l 378 496 l 308 635 l 307 635 l 313 463 l 313 0 l 101 0 l 101 917 l 367 917 l 651 421 l 721 282 l 722 282 l 717 454 l 717 917 l 928 917 l 928 0 z "},"Ñ":{"ha":1029,"x_min":101,"x_max":928,"o":"m 928 0 l 663 0 l 378 496 l 308 635 l 307 635 l 313 463 l 313 0 l 101 0 l 101 917 l 367 917 l 651 421 l 721 282 l 722 282 l 717 454 l 717 917 l 928 917 l 928 0 m 792 1219 q 608 999 783 999 q 541 1011 567 999 q 486 1047 515 1024 q 455 1070 468 1063 q 426 1078 442 1078 q 392 1058 404 1078 q 375 1000 379 1039 l 242 1000 q 425 1221 250 1221 q 492 1208 467 1221 q 549 1171 518 1194 q 580 1148 569 1154 q 606 1142 590 1142 q 642 1161 629 1142 q 658 1219 654 1181 l 792 1219 z "},"O":{"ha":1024,"x_min":63,"x_max":961,"o":"m 513 931 q 752 874 651 931 q 907 712 853 818 q 961 458 961 606 q 907 205 961 311 q 752 42 853 99 q 513 -14 651 -14 q 272 42 374 -14 q 117 205 171 99 q 63 458 63 311 q 117 712 63 606 q 272 874 171 818 q 513 931 374 931 m 513 743 q 360 671 413 743 q 307 458 307 599 q 360 246 307 318 q 513 174 413 174 q 665 246 613 174 q 717 458 717 318 q 665 671 717 599 q 513 743 613 743 z "},"Ó":{"ha":1024,"x_min":63,"x_max":961,"o":"m 713 1225 l 585 1004 l 413 1004 l 489 1225 l 713 1225 m 513 931 q 752 874 651 931 q 907 712 853 818 q 961 458 961 606 q 907 205 961 311 q 752 42 853 99 q 513 -14 651 -14 q 272 42 374 -14 q 117 205 171 99 q 63 458 63 311 q 117 712 63 606 q 272 874 171 818 q 513 931 374 931 m 513 743 q 360 671 413 743 q 307 458 307 599 q 360 246 307 318 q 513 174 413 174 q 665 246 613 174 q 717 458 717 318 q 665 671 717 599 q 513 743 613 743 z "},"Ô":{"ha":1024,"x_min":63,"x_max":961,"o":"m 606 999 l 513 1121 l 419 999 l 244 999 l 399 1231 l 626 1231 l 781 999 l 606 999 m 513 931 q 752 874 651 931 q 907 712 853 818 q 961 458 961 606 q 907 205 961 311 q 752 42 853 99 q 513 -14 651 -14 q 272 42 374 -14 q 117 205 171 99 q 63 458 63 311 q 117 712 63 606 q 272 874 171 818 q 513 931 374 931 m 513 743 q 360 671 413 743 q 307 458 307 599 q 360 246 307 318 q 513 174 413 174 q 665 246 613 174 q 717 458 717 318 q 665 671 717 599 q 513 743 613 743 z "},"Ö":{"ha":1024,"x_min":63,"x_max":961,"o":"m 513 931 q 752 874 651 931 q 907 712 853 818 q 961 458 961 606 q 907 205 961 311 q 752 42 853 99 q 513 -14 651 -14 q 272 42 374 -14 q 117 205 171 99 q 63 458 63 311 q 117 712 63 606 q 272 874 171 818 q 513 931 374 931 m 513 743 q 360 671 413 743 q 307 458 307 599 q 360 246 307 318 q 513 174 413 174 q 665 246 613 174 q 717 458 717 318 q 665 671 717 599 q 513 743 613 743 m 357 1208 q 444 1180 413 1208 q 476 1101 476 1151 q 444 1023 476 1051 q 357 994 413 994 q 272 1023 303 994 q 240 1101 240 1051 q 272 1180 240 1151 q 357 1208 303 1208 m 663 1208 q 750 1180 718 1208 q 782 1101 782 1151 q 750 1023 782 1051 q 663 994 718 994 q 577 1023 608 994 q 546 1101 546 1051 q 577 1180 546 1151 q 663 1208 608 1208 z "},"Ò":{"ha":1024,"x_min":63,"x_max":961,"o":"m 590 1004 l 418 1004 l 290 1225 l 514 1225 l 590 1004 m 513 931 q 752 874 651 931 q 907 712 853 818 q 961 458 961 606 q 907 205 961 311 q 752 42 853 99 q 513 -14 651 -14 q 272 42 374 -14 q 117 205 171 99 q 63 458 63 311 q 117 712 63 606 q 272 874 171 818 q 513 931 374 931 m 513 743 q 360 671 413 743 q 307 458 307 599 q 360 246 307 318 q 513 174 413 174 q 665 246 613 174 q 717 458 717 318 q 665 671 717 599 q 513 743 613 743 z "},"Ő":{"ha":1024,"x_min":63,"x_max":961,"o":"m 564 1225 l 436 1004 l 264 1004 l 340 1225 l 564 1225 m 875 1225 l 747 1004 l 575 1004 l 651 1225 l 875 1225 m 513 931 q 752 874 651 931 q 907 712 853 818 q 961 458 961 606 q 907 205 961 311 q 752 42 853 99 q 513 -14 651 -14 q 272 42 374 -14 q 117 205 171 99 q 63 458 63 311 q 117 712 63 606 q 272 874 171 818 q 513 931 374 931 m 513 743 q 360 671 413 743 q 307 458 307 599 q 360 246 307 318 q 513 174 413 174 q 665 246 613 174 q 717 458 717 318 q 665 671 717 599 q 513 743 613 743 z "},"Ō":{"ha":1024,"x_min":63,"x_max":961,"o":"m 513 931 q 752 874 651 931 q 907 712 853 818 q 961 458 961 606 q 907 205 961 311 q 752 42 853 99 q 513 -14 651 -14 q 272 42 374 -14 q 117 205 171 99 q 63 458 63 311 q 117 712 63 606 q 272 874 171 818 q 513 931 374 931 m 513 743 q 360 671 413 743 q 307 458 307 599 q 360 246 307 318 q 513 174 413 174 q 665 246 613 174 q 717 458 717 318 q 665 671 717 599 q 513 743 613 743 m 771 1013 l 254 1013 l 254 1158 l 771 1158 l 771 1013 z "},"Ø":{"ha":1024,"x_min":63,"x_max":961,"o":"m 835 811 q 928 660 896 750 q 961 458 961 571 q 907 205 961 311 q 752 42 853 99 q 513 -14 651 -14 q 268 44 372 -14 l 208 -37 l 89 -37 l 190 103 q 95 255 128 165 q 63 458 63 344 q 117 712 63 606 q 272 874 171 818 q 513 931 374 931 q 760 869 657 931 l 814 946 l 933 946 l 835 811 m 513 743 q 360 671 413 743 q 307 458 307 599 q 336 288 307 354 l 631 706 q 513 743 585 743 m 513 174 q 665 246 613 174 q 717 458 717 318 q 692 619 717 556 l 400 206 q 513 174 444 174 z "},"Õ":{"ha":1024,"x_min":63,"x_max":961,"o":"m 513 931 q 752 874 651 931 q 907 712 853 818 q 961 458 961 606 q 907 205 961 311 q 752 42 853 99 q 513 -14 651 -14 q 272 42 374 -14 q 117 205 171 99 q 63 458 63 311 q 117 712 63 606 q 272 874 171 818 q 513 931 374 931 m 513 743 q 360 671 413 743 q 307 458 307 599 q 360 246 307 318 q 513 174 413 174 q 665 246 613 174 q 717 458 717 318 q 665 671 717 599 q 513 743 613 743 m 786 1219 q 603 999 778 999 q 535 1011 561 999 q 481 1047 510 1024 q 449 1070 463 1063 q 421 1078 436 1078 q 386 1058 399 1078 q 369 1000 374 1039 l 236 1000 q 419 1221 244 1221 q 487 1208 461 1221 q 543 1171 513 1194 q 574 1148 564 1154 q 600 1142 585 1142 q 636 1161 624 1142 q 653 1219 649 1181 l 786 1219 z "},"Œ":{"ha":1456,"x_min":63,"x_max":1414,"o":"m 1414 185 l 1414 0 l 778 0 l 778 107 q 492 -14 668 -14 q 264 42 361 -14 q 115 206 167 99 q 63 458 63 313 q 115 712 63 606 q 264 874 167 818 q 494 931 361 931 q 778 811 667 931 l 778 917 l 1396 917 l 1396 732 l 938 732 l 938 546 l 1297 546 l 1297 372 l 938 372 l 938 185 l 1414 185 m 504 174 q 651 247 600 174 q 703 458 703 319 q 651 670 703 597 q 504 743 600 743 q 354 671 406 743 q 303 458 303 599 q 354 246 303 318 q 504 174 406 174 z "},"P":{"ha":928,"x_min":101,"x_max":876,"o":"m 522 917 q 785 838 693 917 q 876 613 876 760 q 785 395 876 472 q 522 318 693 318 l 340 318 l 340 0 l 101 0 l 101 917 l 522 917 m 485 493 q 599 523 563 493 q 636 615 636 553 q 599 706 636 676 q 485 736 563 736 l 340 736 l 340 493 l 485 493 z "},"Þ":{"ha":925,"x_min":101,"x_max":872,"o":"m 508 776 q 778 698 685 776 q 871 468 872 619 q 778 239 872 318 q 508 160 685 160 l 340 160 l 340 0 l 101 0 l 101 917 l 340 917 l 340 776 l 508 776 m 481 338 q 593 369 556 338 q 631 468 631 401 q 481 597 631 597 l 340 597 l 340 338 l 481 338 z "},"Q":{"ha":1024,"x_min":63,"x_max":961,"o":"m 726 -97 q 897 -43 839 -97 l 954 -217 q 857 -266 918 -249 q 718 -283 796 -283 q 506 -217 581 -283 q 431 -36 431 -151 l 432 -8 q 160 138 258 15 q 63 458 63 260 q 117 712 63 606 q 272 874 171 818 q 513 931 374 931 q 752 874 651 931 q 907 712 853 818 q 961 458 961 606 q 862 135 961 257 q 586 -10 763 13 q 627 -78 592 -58 q 726 -97 663 -97 m 307 458 q 360 246 307 318 q 513 174 413 174 q 665 246 613 174 q 717 458 717 318 q 665 671 717 599 q 513 743 613 743 q 360 671 413 743 q 307 458 307 599 z "},"R":{"ha":957,"x_min":101,"x_max":939,"o":"m 479 335 l 336 335 l 336 0 l 101 0 l 101 917 l 539 917 q 795 842 706 917 q 885 625 885 767 q 839 458 885 525 q 706 360 793 392 l 939 0 l 675 0 l 479 335 m 336 504 l 499 504 q 610 532 575 504 q 644 621 644 560 q 610 708 644 681 q 499 736 575 736 l 336 736 l 336 504 z "},"Ŕ":{"ha":957,"x_min":101,"x_max":939,"o":"m 529 1004 l 357 1004 l 433 1225 l 657 1225 l 529 1004 m 479 335 l 336 335 l 336 0 l 101 0 l 101 917 l 539 917 q 795 842 706 917 q 885 625 885 767 q 839 458 885 525 q 706 360 793 392 l 939 0 l 675 0 l 479 335 m 336 504 l 499 504 q 610 532 575 504 q 644 621 644 560 q 610 708 644 681 q 499 736 575 736 l 336 736 l 336 504 z "},"Ř":{"ha":957,"x_min":101,"x_max":939,"o":"m 339 1001 l 185 1233 l 360 1233 l 453 1111 l 546 1233 l 721 1233 l 567 1001 l 339 1001 m 479 335 l 336 335 l 336 0 l 101 0 l 101 917 l 539 917 q 795 842 706 917 q 885 625 885 767 q 839 458 885 525 q 706 360 793 392 l 939 0 l 675 0 l 479 335 m 336 504 l 499 504 q 610 532 575 504 q 644 621 644 560 q 610 708 644 681 q 499 736 575 736 l 336 736 l 336 504 z "},"S":{"ha":894,"x_min":39,"x_max":854,"o":"m 460 931 q 683 892 590 931 q 854 765 775 853 l 719 610 q 612 712 674 679 q 464 744 550 744 q 353 719 392 744 q 314 653 314 694 q 355 597 314 618 q 494 557 396 575 q 766 456 685 522 q 847 268 847 389 q 797 117 847 181 q 659 19 747 53 q 460 -14 571 -14 q 207 24 304 -14 q 39 142 110 63 l 161 308 q 283 203 215 233 q 447 172 351 172 q 562 194 524 172 q 600 256 600 215 q 559 308 600 288 q 422 346 518 328 q 227 402 304 369 q 108 490 150 435 q 65 632 65 546 q 112 786 65 718 q 248 892 158 854 q 460 931 338 931 z "},"Ś":{"ha":894,"x_min":39,"x_max":854,"o":"m 657 1225 l 529 1004 l 357 1004 l 433 1225 l 657 1225 m 460 931 q 683 892 590 931 q 854 765 775 853 l 719 610 q 612 712 674 679 q 464 744 550 744 q 353 719 392 744 q 314 653 314 694 q 355 597 314 618 q 494 557 396 575 q 766 456 685 522 q 847 268 847 389 q 797 117 847 181 q 659 19 747 53 q 460 -14 571 -14 q 207 24 304 -14 q 39 142 110 63 l 161 308 q 283 203 215 233 q 447 172 351 172 q 562 194 524 172 q 600 256 600 215 q 559 308 600 288 q 422 346 518 328 q 227 402 304 369 q 108 490 150 435 q 65 632 65 546 q 112 786 65 718 q 248 892 158 854 q 460 931 338 931 z "},"Š":{"ha":894,"x_min":39,"x_max":854,"o":"m 565 1001 l 338 1001 l 183 1233 l 358 1233 l 451 1111 l 544 1233 l 719 1233 l 565 1001 m 460 931 q 683 892 590 931 q 854 765 775 853 l 719 610 q 612 712 674 679 q 464 744 550 744 q 353 719 392 744 q 314 653 314 694 q 355 597 314 618 q 494 557 396 575 q 766 456 685 522 q 847 268 847 389 q 797 117 847 181 q 659 19 747 53 q 460 -14 571 -14 q 207 24 304 -14 q 39 142 110 63 l 161 308 q 283 203 215 233 q 447 172 351 172 q 562 194 524 172 q 600 256 600 215 q 559 308 600 288 q 422 346 518 328 q 227 402 304 369 q 108 490 150 435 q 65 632 65 546 q 112 786 65 718 q 248 892 158 854 q 460 931 338 931 z "},"ẞ":{"ha":999,"x_min":101,"x_max":967,"o":"m 706 504 q 896 435 825 496 q 967 260 967 375 q 884 63 967 133 q 668 -7 801 -7 q 414 74 488 -7 l 478 213 q 619 164 531 164 q 709 192 675 164 q 743 268 743 221 q 706 344 743 318 q 604 371 669 371 l 482 371 l 482 504 l 686 736 l 521 736 q 389 685 438 736 q 340 547 340 635 l 340 0 l 101 0 l 101 582 q 147 760 101 685 q 278 876 193 836 q 479 917 364 917 l 914 917 l 914 739 l 706 504 z "},"T":{"ha":907,"x_min":35,"x_max":872,"o":"m 872 732 l 574 732 l 574 0 l 335 0 l 335 732 l 35 732 l 35 917 l 872 917 l 872 732 z "},"Ť":{"ha":907,"x_min":35,"x_max":872,"o":"m 335 1001 l 181 1233 l 356 1233 l 449 1111 l 542 1233 l 717 1233 l 563 1001 l 335 1001 m 872 732 l 574 732 l 574 0 l 335 0 l 335 732 l 35 732 l 35 917 l 872 917 l 872 732 z "},"U":{"ha":990,"x_min":85,"x_max":904,"o":"m 904 374 q 801 83 904 181 q 494 -14 699 -14 q 188 83 292 -14 q 85 374 85 181 l 85 917 l 325 917 l 325 369 q 367 222 325 271 q 494 174 408 174 q 667 369 667 174 l 667 917 l 904 917 l 904 374 z "},"Ú":{"ha":990,"x_min":85,"x_max":904,"o":"m 696 1225 l 568 1004 l 396 1004 l 472 1225 l 696 1225 m 904 374 q 801 83 904 181 q 494 -14 699 -14 q 188 83 292 -14 q 85 374 85 181 l 85 917 l 325 917 l 325 369 q 367 222 325 271 q 494 174 408 174 q 667 369 667 174 l 667 917 l 904 917 l 904 374 z "},"Û":{"ha":990,"x_min":85,"x_max":904,"o":"m 588 999 l 494 1121 l 401 999 l 226 999 l 381 1231 l 608 1231 l 763 999 l 588 999 m 904 374 q 801 83 904 181 q 494 -14 699 -14 q 188 83 292 -14 q 85 374 85 181 l 85 917 l 325 917 l 325 369 q 367 222 325 271 q 494 174 408 174 q 667 369 667 174 l 667 917 l 904 917 l 904 374 z "},"Ü":{"ha":990,"x_min":85,"x_max":904,"o":"m 904 374 q 801 83 904 181 q 494 -14 699 -14 q 188 83 292 -14 q 85 374 85 181 l 85 917 l 325 917 l 325 369 q 367 222 325 271 q 494 174 408 174 q 667 369 667 174 l 667 917 l 904 917 l 904 374 m 340 1208 q 428 1180 396 1208 q 460 1101 460 1151 q 428 1023 460 1051 q 340 994 396 994 q 255 1023 286 994 q 224 1101 224 1051 q 255 1180 224 1151 q 340 1208 286 1208 m 646 1208 q 733 1180 701 1208 q 765 1101 765 1151 q 733 1023 765 1051 q 646 994 701 994 q 560 1023 592 994 q 529 1101 529 1051 q 560 1180 529 1151 q 646 1208 592 1208 z "},"Ù":{"ha":990,"x_min":85,"x_max":904,"o":"m 572 1004 l 400 1004 l 272 1225 l 496 1225 l 572 1004 m 904 374 q 801 83 904 181 q 494 -14 699 -14 q 188 83 292 -14 q 85 374 85 181 l 85 917 l 325 917 l 325 369 q 367 222 325 271 q 494 174 408 174 q 667 369 667 174 l 667 917 l 904 917 l 904 374 z "},"Ű":{"ha":990,"x_min":85,"x_max":904,"o":"m 546 1226 l 418 1004 l 246 1004 l 322 1226 l 546 1226 m 854 1225 l 726 1004 l 554 1004 l 629 1225 l 854 1225 m 904 374 q 801 83 904 181 q 494 -14 699 -14 q 188 83 292 -14 q 85 374 85 181 l 85 917 l 325 917 l 325 369 q 367 222 325 271 q 494 174 408 174 q 667 369 667 174 l 667 917 l 904 917 l 904 374 z "},"Ū":{"ha":990,"x_min":85,"x_max":904,"o":"m 904 374 q 801 83 904 181 q 494 -14 699 -14 q 188 83 292 -14 q 85 374 85 181 l 85 917 l 325 917 l 325 369 q 367 222 325 271 q 494 174 408 174 q 667 369 667 174 l 667 917 l 904 917 l 904 374 m 753 1013 l 236 1013 l 236 1158 l 753 1158 l 753 1013 z "},"Ų":{"ha":990,"x_min":85,"x_max":904,"o":"m 904 917 l 904 374 q 621 -3 904 51 q 541 -50 565 -25 q 517 -106 517 -75 q 538 -150 517 -133 q 593 -167 558 -167 q 657 -153 635 -167 l 688 -267 q 544 -299 636 -299 q 405 -259 458 -299 q 351 -144 351 -219 q 425 -11 351 -61 q 171 102 257 6 q 85 374 85 199 l 85 917 l 325 917 l 325 369 q 367 222 325 271 q 494 174 408 174 q 667 369 667 174 l 667 917 l 904 917 z "},"Ů":{"ha":990,"x_min":85,"x_max":904,"o":"m 904 374 q 801 83 904 181 q 494 -14 699 -14 q 188 83 292 -14 q 85 374 85 181 l 85 917 l 325 917 l 325 369 q 367 222 325 271 q 494 174 408 174 q 667 369 667 174 l 667 917 l 904 917 l 904 374 m 496 1251 q 633 1206 583 1251 q 682 1083 682 1161 q 633 960 682 1006 q 496 915 583 915 q 358 960 408 915 q 308 1083 308 1006 q 358 1206 308 1161 q 496 1251 408 1251 m 496 1154 q 442 1135 463 1154 q 422 1083 422 1115 q 442 1032 422 1051 q 496 1013 463 1013 q 548 1032 528 1013 q 568 1083 568 1051 q 548 1135 568 1115 q 496 1154 528 1154 z "},"V":{"ha":949,"x_min":8,"x_max":940,"o":"m 615 0 l 335 0 l 8 917 l 260 917 l 428 363 l 478 182 l 526 360 l 697 917 l 940 917 l 615 0 z "},"W":{"ha":1385,"x_min":14,"x_max":1371,"o":"m 546 0 l 278 0 l 14 917 l 271 917 l 422 188 l 588 917 l 804 917 l 972 189 l 1124 917 l 1371 917 l 1106 0 l 846 0 l 738 444 l 696 668 l 693 668 l 653 444 l 546 0 z "},"X":{"ha":921,"x_min":15,"x_max":910,"o":"m 625 0 l 453 301 l 286 0 l 15 0 l 326 461 l 33 917 l 315 917 l 474 625 l 632 917 l 890 917 l 597 468 l 910 0 l 625 0 z "},"Y":{"ha":913,"x_min":13,"x_max":899,"o":"m 575 335 l 575 0 l 336 0 l 336 335 l 13 917 l 260 917 l 389 665 l 457 513 l 526 665 l 656 917 l 899 917 l 575 335 z "},"Ý":{"ha":913,"x_min":13,"x_max":899,"o":"m 656 1225 l 528 1004 l 356 1004 l 432 1225 l 656 1225 m 575 335 l 575 0 l 336 0 l 336 335 l 13 917 l 260 917 l 389 665 l 457 513 l 526 665 l 656 917 l 899 917 l 575 335 z "},"Ÿ":{"ha":913,"x_min":13,"x_max":899,"o":"m 575 335 l 575 0 l 336 0 l 336 335 l 13 917 l 260 917 l 389 665 l 457 513 l 526 665 l 656 917 l 899 917 l 575 335 m 301 1208 q 389 1180 357 1208 q 421 1101 421 1151 q 389 1023 421 1051 q 301 994 357 994 q 216 1023 247 994 q 185 1101 185 1051 q 216 1180 185 1151 q 301 1208 247 1208 m 607 1208 q 694 1180 663 1208 q 726 1101 726 1151 q 694 1023 726 1051 q 607 994 663 994 q 522 1023 553 994 q 490 1101 490 1051 q 522 1180 490 1151 q 607 1208 553 1208 z "},"Z":{"ha":881,"x_min":51,"x_max":838,"o":"m 838 181 l 838 0 l 51 0 l 51 172 l 564 736 l 61 736 l 61 917 l 821 917 l 821 744 l 311 181 l 838 181 z "},"Ź":{"ha":881,"x_min":51,"x_max":838,"o":"m 517 1004 l 344 1004 l 421 1225 l 644 1225 l 517 1004 m 838 181 l 838 0 l 51 0 l 51 172 l 564 736 l 61 736 l 61 917 l 821 917 l 821 744 l 311 181 l 838 181 z "},"Ž":{"ha":881,"x_min":51,"x_max":838,"o":"m 325 1001 l 171 1233 l 346 1233 l 439 1111 l 532 1233 l 707 1233 l 553 1001 l 325 1001 m 838 181 l 838 0 l 51 0 l 51 172 l 564 736 l 61 736 l 61 917 l 821 917 l 821 744 l 311 181 l 838 181 z "},"Ż":{"ha":881,"x_min":51,"x_max":838,"o":"m 838 181 l 838 0 l 51 0 l 51 172 l 564 736 l 61 736 l 61 917 l 821 917 l 821 744 l 311 181 l 838 181 m 444 1225 q 541 1197 508 1225 q 574 1114 574 1168 q 541 1030 574 1058 q 444 1001 508 1001 q 351 1030 383 1001 q 318 1114 318 1058 q 351 1197 318 1168 q 444 1225 383 1225 z "},"Ģ":{"ha":1004,"x_min":61,"x_max":924,"o":"m 924 496 l 924 0 l 757 0 l 750 108 q 488 -14 671 -14 q 266 41 363 -14 q 115 202 169 96 q 61 457 61 308 q 117 710 61 604 q 275 874 172 817 q 518 931 378 931 q 771 875 675 931 q 922 696 867 819 l 701 608 q 639 710 685 676 q 525 743 593 743 q 363 671 419 743 q 307 458 307 599 q 532 169 307 169 q 669 208 617 169 q 721 321 721 247 l 721 335 l 493 335 l 493 496 l 924 496 m 549 -335 l 396 -335 l 440 -83 l 647 -83 l 549 -335 z "},"Ķ":{"ha":963,"x_min":101,"x_max":950,"o":"m 451 393 l 340 258 l 340 0 l 101 0 l 101 917 l 340 917 l 340 510 l 668 917 l 933 917 l 622 544 l 950 0 l 679 0 l 451 393 m 513 -335 l 360 -335 l 404 -83 l 611 -83 l 513 -335 z "},"Ļ":{"ha":836,"x_min":101,"x_max":800,"o":"m 800 185 l 800 0 l 101 0 l 101 917 l 340 917 l 340 185 l 800 185 m 475 -335 l 322 -335 l 367 -83 l 574 -83 l 475 -335 z "},"Ņ":{"ha":1029,"x_min":101,"x_max":928,"o":"m 928 0 l 663 0 l 378 496 l 308 635 l 307 635 l 313 463 l 313 0 l 101 0 l 101 917 l 367 917 l 651 421 l 721 282 l 722 282 l 717 454 l 717 917 l 928 917 l 928 0 m 542 -335 l 389 -335 l 433 -83 l 640 -83 l 542 -335 z "},"Ŗ":{"ha":957,"x_min":101,"x_max":939,"o":"m 479 335 l 336 335 l 336 0 l 101 0 l 101 917 l 539 917 q 795 842 706 917 q 885 625 885 767 q 839 458 885 525 q 706 360 793 392 l 939 0 l 675 0 l 479 335 m 336 504 l 499 504 q 610 532 575 504 q 644 621 644 560 q 610 708 644 681 q 499 736 575 736 l 336 736 l 336 504 m 514 -335 l 361 -335 l 406 -83 l 613 -83 l 514 -335 z "},"Ş":{"ha":894,"x_min":39,"x_max":854,"o":"m 494 557 q 766 456 685 522 q 847 268 847 389 q 771 88 847 160 q 567 -6 694 15 q 639 -135 639 -58 q 585 -256 639 -214 q 440 -299 531 -299 q 268 -243 328 -299 l 322 -133 q 422 -172 361 -172 q 478 -154 457 -172 q 499 -104 499 -136 q 478 -52 499 -74 q 404 -12 457 -31 q 189 31 274 -7 q 39 142 104 69 l 161 308 q 283 203 215 233 q 447 172 351 172 q 562 194 524 172 q 600 256 600 215 q 559 308 600 288 q 422 346 518 328 q 227 402 304 369 q 108 490 150 435 q 65 632 65 546 q 112 786 65 718 q 248 892 158 854 q 460 931 338 931 q 683 892 590 931 q 854 765 775 853 l 719 610 q 612 712 674 679 q 464 744 550 744 q 353 719 392 744 q 314 653 314 694 q 355 597 314 618 q 494 557 396 575 z "},"Ţ":{"ha":907,"x_min":35,"x_max":872,"o":"m 574 732 l 574 3 q 642 -129 642 -44 q 587 -256 642 -212 q 442 -299 532 -299 q 265 -242 325 -299 l 328 -128 q 368 -160 346 -149 q 422 -171 390 -171 q 478 -151 456 -171 q 500 -96 500 -132 q 474 -40 500 -61 q 394 0 449 -18 l 335 0 l 335 732 l 35 732 l 35 917 l 872 917 l 872 732 l 574 732 z "},"Ș":{"ha":894,"x_min":39,"x_max":854,"o":"m 460 931 q 683 892 590 931 q 854 765 775 853 l 719 610 q 612 712 674 679 q 464 744 550 744 q 353 719 392 744 q 314 653 314 694 q 355 597 314 618 q 494 557 396 575 q 766 456 685 522 q 847 268 847 389 q 797 117 847 181 q 659 19 747 53 q 460 -14 571 -14 q 207 24 304 -14 q 39 142 110 63 l 161 308 q 283 203 215 233 q 447 172 351 172 q 562 194 524 172 q 600 256 600 215 q 559 308 600 288 q 422 346 518 328 q 227 402 304 369 q 108 490 150 435 q 65 632 65 546 q 112 786 65 718 q 248 892 158 854 q 460 931 338 931 m 490 -335 l 338 -335 l 382 -83 l 589 -83 l 490 -335 z "},"Ț":{"ha":907,"x_min":35,"x_max":872,"o":"m 872 732 l 574 732 l 574 0 l 335 0 l 335 732 l 35 732 l 35 917 l 872 917 l 872 732 m 457 -335 l 304 -335 l 349 -83 l 556 -83 l 457 -335 z "},"a":{"ha":807,"x_min":44,"x_max":799,"o":"m 756 135 q 799 140 782 135 l 781 8 q 686 -14 740 -14 q 507 93 536 -14 q 260 -14 444 -14 q 100 31 156 -14 q 44 160 44 75 q 108 303 44 249 q 315 388 171 358 l 472 418 l 472 443 q 446 518 472 490 q 374 546 419 546 q 288 521 321 546 q 244 439 254 496 l 53 494 q 153 652 71 596 q 374 708 235 708 q 621 642 536 708 q 706 442 706 575 l 706 189 q 756 135 706 135 m 346 139 q 433 166 394 139 q 472 238 472 193 l 472 297 l 360 271 q 297 244 315 260 q 278 199 278 228 q 296 154 278 169 q 346 139 314 139 z "},"á":{"ha":807,"x_min":44,"x_max":799,"o":"m 756 135 q 799 140 782 135 l 781 8 q 686 -14 740 -14 q 507 93 536 -14 q 260 -14 444 -14 q 100 31 156 -14 q 44 160 44 75 q 108 303 44 249 q 315 388 171 358 l 472 418 l 472 443 q 446 518 472 490 q 374 546 419 546 q 288 521 321 546 q 244 439 254 496 l 53 494 q 153 652 71 596 q 374 708 235 708 q 621 642 536 708 q 706 442 706 575 l 706 189 q 756 135 706 135 m 346 139 q 433 166 394 139 q 472 238 472 193 l 472 297 l 360 271 q 297 244 315 260 q 278 199 278 228 q 296 154 278 169 q 346 139 314 139 m 589 1025 l 449 785 l 276 785 l 369 1025 l 589 1025 z "},"ă":{"ha":807,"x_min":44,"x_max":799,"o":"m 756 135 q 799 140 782 135 l 781 8 q 686 -14 740 -14 q 507 93 536 -14 q 260 -14 444 -14 q 100 31 156 -14 q 44 160 44 75 q 108 303 44 249 q 315 388 171 358 l 472 418 l 472 443 q 446 518 472 490 q 374 546 419 546 q 288 521 321 546 q 244 439 254 496 l 53 494 q 153 652 71 596 q 374 708 235 708 q 621 642 536 708 q 706 442 706 575 l 706 189 q 756 135 706 135 m 346 139 q 433 166 394 139 q 472 238 472 193 l 472 297 l 360 271 q 297 244 315 260 q 278 199 278 228 q 296 154 278 169 q 346 139 314 139 m 618 997 q 556 831 618 892 q 383 771 493 771 q 211 831 274 771 q 149 997 149 892 l 301 997 q 324 928 301 954 q 383 903 346 903 q 443 928 421 903 q 465 997 465 954 l 618 997 z "},"â":{"ha":807,"x_min":44,"x_max":799,"o":"m 756 135 q 799 140 782 135 l 781 8 q 686 -14 740 -14 q 507 93 536 -14 q 260 -14 444 -14 q 100 31 156 -14 q 44 160 44 75 q 108 303 44 249 q 315 388 171 358 l 472 418 l 472 443 q 446 518 472 490 q 374 546 419 546 q 288 521 321 546 q 244 439 254 496 l 53 494 q 153 652 71 596 q 374 708 235 708 q 621 642 536 708 q 706 442 706 575 l 706 189 q 756 135 706 135 m 346 139 q 433 166 394 139 q 472 238 472 193 l 472 297 l 360 271 q 297 244 315 260 q 278 199 278 228 q 296 154 278 169 q 346 139 314 139 m 478 776 l 383 897 l 289 776 l 118 776 l 268 1017 l 499 1017 l 649 776 l 478 776 z "},"ä":{"ha":807,"x_min":44,"x_max":799,"o":"m 756 135 q 799 140 782 135 l 781 8 q 686 -14 740 -14 q 507 93 536 -14 q 260 -14 444 -14 q 100 31 156 -14 q 44 160 44 75 q 108 303 44 249 q 315 388 171 358 l 472 418 l 472 443 q 446 518 472 490 q 374 546 419 546 q 288 521 321 546 q 244 439 254 496 l 53 494 q 153 652 71 596 q 374 708 235 708 q 621 642 536 708 q 706 442 706 575 l 706 189 q 756 135 706 135 m 346 139 q 433 166 394 139 q 472 238 472 193 l 472 297 l 360 271 q 297 244 315 260 q 278 199 278 228 q 296 154 278 169 q 346 139 314 139 m 229 986 q 317 958 285 986 q 349 879 349 929 q 317 801 349 829 q 229 772 285 772 q 144 801 175 772 q 113 879 113 829 q 144 958 113 929 q 229 986 175 986 m 535 986 q 622 958 590 986 q 654 879 654 929 q 622 801 654 829 q 535 772 590 772 q 449 801 481 772 q 418 879 418 829 q 449 958 418 929 q 535 986 481 986 z "},"à":{"ha":807,"x_min":44,"x_max":799,"o":"m 756 135 q 799 140 782 135 l 781 8 q 686 -14 740 -14 q 507 93 536 -14 q 260 -14 444 -14 q 100 31 156 -14 q 44 160 44 75 q 108 303 44 249 q 315 388 171 358 l 472 418 l 472 443 q 446 518 472 490 q 374 546 419 546 q 288 521 321 546 q 244 439 254 496 l 53 494 q 153 652 71 596 q 374 708 235 708 q 621 642 536 708 q 706 442 706 575 l 706 189 q 756 135 706 135 m 346 139 q 433 166 394 139 q 472 238 472 193 l 472 297 l 360 271 q 297 244 315 260 q 278 199 278 228 q 296 154 278 169 q 346 139 314 139 m 476 785 l 304 785 l 164 1025 l 383 1025 l 476 785 z "},"ā":{"ha":807,"x_min":44,"x_max":799,"o":"m 756 135 q 799 140 782 135 l 781 8 q 686 -14 740 -14 q 507 93 536 -14 q 260 -14 444 -14 q 100 31 156 -14 q 44 160 44 75 q 108 303 44 249 q 315 388 171 358 l 472 418 l 472 443 q 446 518 472 490 q 374 546 419 546 q 288 521 321 546 q 244 439 254 496 l 53 494 q 153 652 71 596 q 374 708 235 708 q 621 642 536 708 q 706 442 706 575 l 706 189 q 756 135 706 135 m 346 139 q 433 166 394 139 q 472 238 472 193 l 472 297 l 360 271 q 297 244 315 260 q 278 199 278 228 q 296 154 278 169 q 346 139 314 139 m 642 790 l 125 790 l 125 936 l 642 936 l 642 790 z "},"ą":{"ha":807,"x_min":44,"x_max":799,"o":"m 699 -167 q 763 -153 742 -167 l 794 -267 q 653 -299 743 -299 q 514 -259 567 -299 q 461 -142 461 -219 q 497 -41 461 -82 q 601 21 533 0 q 518 115 536 44 q 428 20 492 54 q 260 -14 364 -14 q 100 31 156 -14 q 44 160 44 75 q 108 303 44 249 q 315 388 171 358 l 472 418 l 472 443 q 446 518 472 490 q 374 546 419 546 q 288 521 321 546 q 244 439 254 496 l 53 494 q 153 652 71 596 q 374 708 235 708 q 621 642 536 708 q 706 442 706 575 l 706 189 q 756 135 706 135 q 799 140 782 135 l 781 8 q 663 -37 700 -10 q 626 -104 626 -64 q 645 -150 626 -133 q 699 -167 664 -167 m 346 139 q 433 166 394 139 q 472 238 472 193 l 472 297 l 360 271 q 297 244 315 260 q 278 199 278 228 q 296 154 278 169 q 346 139 314 139 z "},"å":{"ha":807,"x_min":44,"x_max":799,"o":"m 756 135 q 799 140 782 135 l 781 8 q 686 -14 740 -14 q 507 93 536 -14 q 260 -14 444 -14 q 100 31 156 -14 q 44 160 44 75 q 108 303 44 249 q 315 388 171 358 l 472 418 l 472 443 q 446 518 472 490 q 374 546 419 546 q 288 521 321 546 q 244 439 254 496 l 53 494 q 153 652 71 596 q 374 708 235 708 q 621 642 536 708 q 706 442 706 575 l 706 189 q 756 135 706 135 m 346 139 q 433 166 394 139 q 472 238 472 193 l 472 297 l 360 271 q 297 244 315 260 q 278 199 278 228 q 296 154 278 169 q 346 139 314 139 m 385 1101 q 522 1056 472 1101 q 571 933 571 1011 q 522 810 571 856 q 385 765 472 765 q 247 810 297 765 q 197 933 197 856 q 247 1056 197 1011 q 385 1101 297 1101 m 385 1004 q 331 985 351 1004 q 311 933 311 965 q 331 882 311 901 q 385 863 351 863 q 437 882 417 863 q 457 933 457 901 q 437 985 457 965 q 385 1004 417 1004 z "},"ã":{"ha":807,"x_min":44,"x_max":799,"o":"m 756 135 q 799 140 782 135 l 781 8 q 686 -14 740 -14 q 507 93 536 -14 q 260 -14 444 -14 q 100 31 156 -14 q 44 160 44 75 q 108 303 44 249 q 315 388 171 358 l 472 418 l 472 443 q 446 518 472 490 q 374 546 419 546 q 288 521 321 546 q 244 439 254 496 l 53 494 q 153 652 71 596 q 374 708 235 708 q 621 642 536 708 q 706 442 706 575 l 706 189 q 756 135 706 135 m 346 139 q 433 166 394 139 q 472 238 472 193 l 472 297 l 360 271 q 297 244 315 260 q 278 199 278 228 q 296 154 278 169 q 346 139 314 139 m 658 997 q 475 776 650 776 q 408 789 433 776 q 353 825 382 801 q 322 848 335 840 q 293 856 308 856 q 258 836 271 856 q 242 778 246 817 l 108 778 q 292 999 117 999 q 359 985 333 999 q 415 949 385 972 q 447 926 436 932 q 472 919 457 919 q 508 939 496 919 q 525 997 521 958 l 658 997 z "},"æ":{"ha":1221,"x_min":44,"x_max":1169,"o":"m 1169 375 q 1164 288 1169 329 l 707 288 q 754 185 717 218 q 850 153 792 153 q 926 172 900 153 q 965 229 953 190 l 1156 168 q 1046 32 1126 78 q 843 -14 965 -14 q 583 118 661 -14 q 466 20 546 54 q 271 -14 386 -14 q 102 33 160 -14 q 44 158 44 79 q 106 297 44 246 q 303 374 168 347 l 476 408 l 476 443 q 449 519 476 493 q 369 546 422 546 q 290 522 319 546 q 246 442 260 497 l 54 490 q 152 651 72 593 q 371 708 232 708 q 512 682 450 708 q 613 607 574 656 q 710 682 653 656 q 838 708 767 708 q 1083 617 996 708 q 1169 375 1169 525 m 836 543 q 706 403 724 543 l 953 403 q 919 508 946 472 q 836 543 892 543 m 350 126 q 440 157 403 126 q 476 244 476 188 l 476 300 l 378 276 q 299 244 322 263 q 275 190 275 225 q 350 126 275 126 z "},"b":{"ha":872,"x_min":85,"x_max":817,"o":"m 531 708 q 740 613 664 708 q 817 344 817 517 q 742 81 817 175 q 531 -14 667 -14 q 388 30 449 -14 q 299 147 328 74 l 292 0 l 85 0 l 85 989 l 321 989 l 321 578 q 403 674 350 639 q 531 708 457 708 m 449 160 q 545 206 511 160 q 579 347 579 251 q 545 489 579 443 q 449 535 511 535 q 354 488 388 535 q 321 354 321 440 l 321 340 q 355 206 321 251 q 449 160 389 160 z "},"c":{"ha":793,"x_min":51,"x_max":753,"o":"m 417 708 q 653 649 574 708 q 751 493 732 589 l 532 421 q 425 540 518 540 q 288 344 288 540 q 425 154 288 154 q 540 267 524 154 l 753 199 q 652 45 738 104 q 426 -14 567 -14 q 149 81 246 -14 q 51 347 51 175 q 148 613 51 518 q 417 708 244 708 z "},"ć":{"ha":793,"x_min":51,"x_max":753,"o":"m 417 708 q 653 649 574 708 q 751 493 732 589 l 532 421 q 425 540 518 540 q 288 344 288 540 q 425 154 288 154 q 540 267 524 154 l 753 199 q 652 45 738 104 q 426 -14 567 -14 q 149 81 246 -14 q 51 347 51 175 q 148 613 51 518 q 417 708 244 708 m 618 1025 l 478 785 l 306 785 l 399 1025 l 618 1025 z "},"č":{"ha":793,"x_min":51,"x_max":753,"o":"m 417 708 q 653 649 574 708 q 751 493 732 589 l 532 421 q 425 540 518 540 q 288 344 288 540 q 425 154 288 154 q 540 267 524 154 l 753 199 q 652 45 738 104 q 426 -14 567 -14 q 149 81 246 -14 q 51 347 51 175 q 148 613 51 518 q 417 708 244 708 m 522 785 l 292 785 l 142 1025 l 313 1025 l 407 904 l 501 1025 l 672 1025 l 522 785 z "},"ç":{"ha":793,"x_min":51,"x_max":753,"o":"m 753 199 q 684 70 742 124 q 532 -4 626 17 q 588 -63 569 -29 q 607 -135 607 -97 q 553 -256 607 -214 q 408 -299 499 -299 q 236 -243 296 -299 l 290 -133 q 390 -172 329 -172 q 446 -154 425 -172 q 467 -104 467 -136 q 445 -51 467 -74 q 368 -11 424 -29 q 133 96 214 3 q 51 347 51 189 q 148 613 51 518 q 417 708 244 708 q 653 649 574 708 q 751 493 732 589 l 532 421 q 425 540 518 540 q 288 344 288 540 q 425 154 288 154 q 540 267 524 154 l 753 199 z "},"d":{"ha":872,"x_min":56,"x_max":789,"o":"m 789 989 l 789 0 l 576 0 l 568 132 q 478 25 538 64 q 342 -14 419 -14 q 131 81 207 -14 q 56 344 56 175 q 132 613 56 517 q 343 708 208 708 q 469 674 417 708 q 553 578 522 639 l 553 989 l 789 989 m 424 160 q 515 201 481 160 q 553 319 549 242 l 553 375 q 515 493 549 451 q 424 535 481 535 q 327 489 361 535 q 293 347 293 443 q 327 206 293 251 q 424 160 361 160 z "},"ð":{"ha":839,"x_min":57,"x_max":788,"o":"m 649 840 q 781 421 781 668 q 691 92 781 199 q 407 -14 601 -14 q 150 79 243 -14 q 57 338 57 172 q 99 525 57 446 q 219 646 142 604 q 396 688 296 688 q 594 590 535 688 q 489 804 565 715 l 263 756 l 247 833 l 435 861 q 244 1003 369 921 l 460 1003 q 601 896 538 961 l 768 935 l 788 857 l 649 840 m 422 154 q 524 201 490 154 q 557 338 557 249 q 524 485 557 438 q 425 532 492 532 q 328 485 360 532 q 296 338 296 438 q 422 154 296 154 z "},"ď":{"ha":992,"x_min":56,"x_max":1056,"o":"m 553 989 l 789 989 l 789 0 l 576 0 l 568 132 q 478 25 538 64 q 342 -14 419 -14 q 131 81 207 -14 q 56 344 56 175 q 132 613 56 517 q 343 708 208 708 q 469 674 417 708 q 553 578 522 639 l 553 989 m 1056 989 l 982 657 l 847 657 l 876 989 l 1056 989 m 424 160 q 515 201 481 160 q 553 319 549 242 l 553 375 q 515 493 549 451 q 424 535 481 535 q 327 489 361 535 q 293 347 293 443 q 327 206 293 251 q 424 160 361 160 z "},"đ":{"ha":872,"x_min":56,"x_max":894,"o":"m 894 747 l 789 747 l 789 0 l 576 0 l 568 132 q 478 25 538 64 q 342 -14 419 -14 q 131 81 207 -14 q 56 344 56 175 q 132 613 56 517 q 343 708 208 708 q 469 674 417 708 q 553 578 522 639 l 553 747 l 372 747 l 372 882 l 553 882 l 553 989 l 789 989 l 789 882 l 894 882 l 894 747 m 424 160 q 515 201 481 160 q 553 319 549 242 l 553 375 q 515 493 549 451 q 424 535 481 535 q 327 489 361 535 q 293 347 293 443 q 327 206 293 251 q 424 160 361 160 z "},"e":{"ha":808,"x_min":51,"x_max":761,"o":"m 761 357 q 754 279 761 310 l 281 279 q 328 183 292 214 q 426 153 365 153 q 510 172 478 153 q 554 229 543 192 l 746 168 q 633 33 717 79 q 426 -14 549 -14 q 148 81 244 -14 q 51 347 51 175 q 146 614 51 519 q 414 708 240 708 q 672 616 582 708 q 761 357 761 524 m 413 543 q 279 407 300 543 l 540 407 q 413 543 524 543 z "},"é":{"ha":808,"x_min":51,"x_max":761,"o":"m 761 357 q 754 279 761 310 l 281 279 q 328 183 292 214 q 426 153 365 153 q 510 172 478 153 q 554 229 543 192 l 746 168 q 633 33 717 79 q 426 -14 549 -14 q 148 81 244 -14 q 51 347 51 175 q 146 614 51 519 q 414 708 240 708 q 672 616 582 708 q 761 357 761 524 m 413 543 q 279 407 300 543 l 540 407 q 413 543 524 543 m 615 1025 l 475 785 l 303 785 l 396 1025 l 615 1025 z "},"ě":{"ha":808,"x_min":51,"x_max":761,"o":"m 761 357 q 754 279 761 310 l 281 279 q 328 183 292 214 q 426 153 365 153 q 510 172 478 153 q 554 229 543 192 l 746 168 q 633 33 717 79 q 426 -14 549 -14 q 148 81 244 -14 q 51 347 51 175 q 146 614 51 519 q 414 708 240 708 q 672 616 582 708 q 761 357 761 524 m 413 543 q 279 407 300 543 l 540 407 q 413 543 524 543 m 521 785 l 290 785 l 140 1025 l 311 1025 l 406 904 l 500 1025 l 671 1025 l 521 785 z "},"ê":{"ha":808,"x_min":51,"x_max":761,"o":"m 761 357 q 754 279 761 310 l 281 279 q 328 183 292 214 q 426 153 365 153 q 510 172 478 153 q 554 229 543 192 l 746 168 q 633 33 717 79 q 426 -14 549 -14 q 148 81 244 -14 q 51 347 51 175 q 146 614 51 519 q 414 708 240 708 q 672 616 582 708 q 761 357 761 524 m 413 543 q 279 407 300 543 l 540 407 q 413 543 524 543 m 504 776 l 410 897 l 315 776 l 144 776 l 294 1017 l 525 1017 l 675 776 l 504 776 z "},"ë":{"ha":808,"x_min":51,"x_max":761,"o":"m 761 357 q 754 279 761 310 l 281 279 q 328 183 292 214 q 426 153 365 153 q 510 172 478 153 q 554 229 543 192 l 746 168 q 633 33 717 79 q 426 -14 549 -14 q 148 81 244 -14 q 51 347 51 175 q 146 614 51 519 q 414 708 240 708 q 672 616 582 708 q 761 357 761 524 m 413 543 q 279 407 300 543 l 540 407 q 413 543 524 543 m 256 986 q 343 958 311 986 q 375 879 375 929 q 343 801 375 829 q 256 772 311 772 q 170 801 201 772 q 139 879 139 829 q 170 958 139 929 q 256 986 201 986 m 561 986 q 649 958 617 986 q 681 879 681 929 q 649 801 681 829 q 561 772 617 772 q 476 801 507 772 q 444 879 444 829 q 476 958 444 929 q 561 986 507 986 z "},"ė":{"ha":808,"x_min":51,"x_max":761,"o":"m 761 357 q 754 279 761 310 l 281 279 q 328 183 292 214 q 426 153 365 153 q 510 172 478 153 q 554 229 543 192 l 746 168 q 633 33 717 79 q 426 -14 549 -14 q 148 81 244 -14 q 51 347 51 175 q 146 614 51 519 q 414 708 240 708 q 672 616 582 708 q 761 357 761 524 m 413 543 q 279 407 300 543 l 540 407 q 413 543 524 543 m 410 1003 q 506 974 474 1003 q 539 892 539 946 q 506 808 539 836 q 410 779 474 779 q 316 808 349 779 q 283 892 283 836 q 316 974 283 946 q 410 1003 349 1003 z "},"è":{"ha":808,"x_min":51,"x_max":761,"o":"m 761 357 q 754 279 761 310 l 281 279 q 328 183 292 214 q 426 153 365 153 q 510 172 478 153 q 554 229 543 192 l 746 168 q 633 33 717 79 q 426 -14 549 -14 q 148 81 244 -14 q 51 347 51 175 q 146 614 51 519 q 414 708 240 708 q 672 616 582 708 q 761 357 761 524 m 413 543 q 279 407 300 543 l 540 407 q 413 543 524 543 m 503 785 l 331 785 l 190 1025 l 410 1025 l 503 785 z "},"ē":{"ha":808,"x_min":51,"x_max":761,"o":"m 761 357 q 754 279 761 310 l 281 279 q 328 183 292 214 q 426 153 365 153 q 510 172 478 153 q 554 229 543 192 l 746 168 q 633 33 717 79 q 426 -14 549 -14 q 148 81 244 -14 q 51 347 51 175 q 146 614 51 519 q 414 708 240 708 q 672 616 582 708 q 761 357 761 524 m 413 543 q 279 407 300 543 l 540 407 q 413 543 524 543 m 668 790 l 151 790 l 151 936 l 668 936 l 668 790 z "},"ę":{"ha":808,"x_min":51,"x_max":761,"o":"m 761 357 q 754 279 761 310 l 281 279 q 328 183 292 214 q 426 153 365 153 q 510 172 478 153 q 554 229 543 192 l 746 168 q 673 60 724 103 q 547 0 622 18 q 474 -49 497 -25 q 451 -103 451 -74 q 472 -150 451 -133 q 526 -167 492 -167 q 590 -153 569 -167 l 622 -267 q 479 -299 571 -299 q 340 -258 393 -299 q 286 -143 286 -218 q 361 -10 286 -67 q 131 99 211 7 q 51 347 51 192 q 146 614 51 519 q 414 708 240 708 q 672 616 582 708 q 761 357 761 524 m 413 543 q 279 407 300 543 l 540 407 q 413 543 524 543 z "},"f":{"ha":576,"x_min":21,"x_max":572,"o":"m 354 694 l 565 694 l 565 526 l 368 526 l 368 0 l 132 0 l 132 526 l 21 526 l 21 694 l 132 694 l 132 758 q 210 946 132 883 q 413 1008 288 1008 q 572 968 521 1008 l 549 821 q 469 843 518 843 q 354 743 354 843 l 354 694 z "},"g":{"ha":786,"x_min":32,"x_max":778,"o":"m 525 154 q 712 101 646 154 q 778 -54 778 49 q 673 -235 778 -172 q 388 -299 568 -299 q 119 -256 206 -299 q 32 -135 32 -212 q 64 -54 32 -89 q 161 -4 96 -19 q 54 140 54 42 q 85 226 54 189 q 168 282 115 264 q 54 472 54 343 q 143 647 54 585 q 393 708 232 708 q 532 693 468 708 q 594 829 546 776 q 729 882 643 882 l 751 881 l 778 724 q 739 726 750 726 q 660 710 692 726 q 615 664 629 693 q 732 472 732 603 q 643 299 732 360 q 393 238 554 238 q 260 250 318 238 q 217 201 217 239 q 289 154 217 154 l 525 154 m 393 574 q 319 546 347 574 q 290 472 290 518 q 319 399 290 426 q 393 372 347 372 q 467 399 439 372 q 496 472 496 426 q 467 546 496 518 q 393 574 439 574 m 404 -146 q 544 -127 496 -146 q 592 -78 592 -108 q 572 -44 592 -56 q 507 -33 553 -33 l 317 -33 q 235 -45 260 -33 q 211 -82 211 -57 q 404 -146 211 -146 z "},"ğ":{"ha":778,"x_min":26,"x_max":793,"o":"m 394 771 q 222 831 285 771 q 160 997 160 892 l 313 997 q 335 928 313 954 q 394 903 357 903 q 454 928 432 903 q 476 997 476 954 l 629 997 q 567 831 629 892 q 394 771 504 771 m 793 724 q 698 705 736 726 q 650 638 660 683 q 726 472 726 576 q 638 299 726 360 q 388 238 549 238 q 254 250 313 238 q 211 201 211 239 q 283 154 211 154 l 519 154 q 706 101 640 154 q 772 -54 772 49 q 667 -235 772 -172 q 382 -299 563 -299 q 113 -256 200 -299 q 26 -135 26 -212 q 58 -54 26 -89 q 156 -4 90 -19 q 49 140 49 42 q 79 226 49 189 q 163 282 110 264 q 49 472 49 343 q 138 647 49 585 q 388 708 226 708 q 569 681 493 708 q 631 823 575 765 q 767 881 686 881 l 793 724 m 388 372 q 462 399 433 372 q 490 472 490 426 q 462 546 490 518 q 388 574 433 574 q 313 546 342 574 q 285 472 285 518 q 313 399 285 426 q 388 372 342 372 m 311 -33 q 230 -45 254 -33 q 206 -82 206 -57 q 399 -146 206 -146 q 538 -127 490 -146 q 586 -78 586 -108 q 567 -44 586 -56 q 501 -33 547 -33 l 311 -33 z "},"h":{"ha":861,"x_min":85,"x_max":781,"o":"m 540 708 q 715 644 650 708 q 781 463 781 581 l 781 0 l 544 0 l 544 397 q 446 529 544 529 q 356 489 390 529 q 321 365 321 449 l 321 0 l 85 0 l 85 989 l 321 989 l 321 568 q 408 673 351 638 q 540 708 464 708 z "},"i":{"ha":404,"x_min":65,"x_max":340,"o":"m 203 775 q 98 802 131 775 q 65 888 65 829 q 98 974 65 947 q 203 1001 131 1001 q 308 974 275 1001 q 340 888 340 947 q 308 802 340 829 q 203 775 275 775 m 321 0 l 85 0 l 85 694 l 321 694 l 321 0 z "},"ı":{"ha":404,"x_min":85,"x_max":321,"o":"m 321 0 l 85 0 l 85 694 l 321 694 l 321 0 z "},"í":{"ha":404,"x_min":85,"x_max":414,"o":"m 321 0 l 85 0 l 85 694 l 321 694 l 321 0 m 414 1025 l 274 785 l 101 785 l 194 1025 l 414 1025 z "},"î":{"ha":404,"x_min":-62,"x_max":468,"o":"m 321 0 l 85 0 l 85 694 l 321 694 l 321 0 m 297 776 l 203 897 l 108 776 l -62 776 l 88 1017 l 318 1017 l 468 776 l 297 776 z "},"ï":{"ha":404,"x_min":-43,"x_max":447,"o":"m 68 769 q -15 798 14 769 q -43 879 -43 826 q -15 960 -43 932 q 68 989 14 989 q 152 960 124 989 q 181 879 181 932 q 152 798 181 826 q 68 769 124 769 m 336 769 q 252 798 281 769 q 224 879 224 826 q 252 960 224 932 q 336 989 281 989 q 419 960 390 989 q 447 879 447 932 q 419 798 447 826 q 336 769 390 769 m 321 0 l 85 0 l 85 694 l 321 694 l 321 0 z "},"ì":{"ha":404,"x_min":-17,"x_max":321,"o":"m 321 0 l 85 0 l 85 694 l 321 694 l 321 0 m 296 785 l 124 785 l -17 1025 l 203 1025 l 296 785 z "},"ĳ":{"ha":807,"x_min":65,"x_max":744,"o":"m 203 775 q 98 802 131 775 q 65 888 65 829 q 98 974 65 947 q 203 1001 131 1001 q 308 974 275 1001 q 340 888 340 947 q 308 802 340 829 q 203 775 275 775 m 321 0 l 85 0 l 85 694 l 321 694 l 321 0 m 606 1001 q 710 974 676 1001 q 744 888 744 946 q 711 803 744 831 q 606 775 678 775 q 502 803 535 775 q 469 888 469 831 q 502 974 469 946 q 606 1001 535 1001 m 725 -39 q 656 -237 725 -175 q 456 -299 586 -299 q 274 -254 346 -299 l 307 -101 q 394 -129 339 -129 q 465 -103 440 -129 q 489 -18 489 -78 l 489 694 l 725 694 l 725 -39 z "},"ī":{"ha":404,"x_min":13,"x_max":393,"o":"m 393 790 l 13 790 l 13 936 l 393 936 l 393 790 m 321 0 l 85 0 l 85 694 l 321 694 l 321 0 z "},"į":{"ha":404,"x_min":6,"x_max":343,"o":"m 203 775 q 98 802 131 775 q 65 888 65 829 q 98 974 65 947 q 203 1001 131 1001 q 308 974 275 1001 q 340 888 340 947 q 308 802 340 829 q 203 775 275 775 m 343 -265 q 281 -291 315 -283 q 197 -299 246 -299 q 59 -259 113 -299 q 6 -144 6 -219 q 106 0 6 -51 l 85 0 l 85 694 l 321 694 l 321 0 q 171 -107 171 -36 q 190 -151 171 -135 q 243 -167 210 -167 q 310 -151 286 -167 l 343 -265 z "},"j":{"ha":403,"x_min":-131,"x_max":340,"o":"m 201 1001 q 306 974 272 1001 q 340 888 340 946 q 307 803 340 831 q 201 775 274 775 q 98 803 131 775 q 65 888 65 831 q 98 974 65 946 q 201 1001 131 1001 m 321 -39 q 251 -237 321 -175 q 51 -299 182 -299 q -131 -254 -58 -299 l -97 -101 q -10 -129 -65 -129 q 60 -103 36 -129 q 85 -18 85 -78 l 85 694 l 321 694 l 321 -39 z "},"k":{"ha":864,"x_min":85,"x_max":863,"o":"m 433 285 l 321 160 l 321 0 l 85 0 l 85 989 l 321 989 l 321 403 l 586 694 l 847 694 l 592 422 l 863 0 l 601 0 l 433 285 z "},"l":{"ha":454,"x_min":82,"x_max":453,"o":"m 318 240 q 332 174 318 193 q 382 154 346 154 q 453 167 415 154 l 438 21 q 372 -4 413 6 q 293 -14 332 -14 q 132 38 182 -14 q 82 206 82 90 l 82 989 l 318 989 l 318 240 z "},"ĺ":{"ha":460,"x_min":82,"x_max":453,"o":"m 393 1278 l 283 1067 l 113 1067 l 182 1278 l 393 1278 m 318 240 q 332 174 318 193 q 382 154 346 154 q 453 167 415 154 l 438 21 q 372 -4 413 6 q 293 -14 332 -14 q 132 38 182 -14 q 82 206 82 90 l 82 989 l 318 989 l 318 240 z "},"ľ":{"ha":543,"x_min":82,"x_max":581,"o":"m 318 240 q 332 174 318 193 q 382 154 346 154 q 453 167 415 154 l 438 21 q 372 -4 413 6 q 293 -14 332 -14 q 132 38 182 -14 q 82 206 82 90 l 82 989 l 318 989 l 318 240 m 507 657 l 372 657 l 401 989 l 581 989 l 507 657 z "},"ŀ":{"ha":690,"x_min":82,"x_max":686,"o":"m 318 240 q 332 174 318 193 q 382 154 346 154 q 453 167 415 154 l 438 21 q 372 -4 413 6 q 293 -14 332 -14 q 132 38 182 -14 q 82 206 82 90 l 82 989 l 318 989 l 318 240 m 547 615 q 649 583 613 615 q 686 490 686 550 q 649 399 686 432 q 547 365 613 365 q 445 399 482 365 q 408 490 408 432 q 445 583 408 550 q 547 615 482 615 z "},"ł":{"ha":547,"x_min":19,"x_max":521,"o":"m 376 467 l 376 240 q 390 174 376 193 q 440 154 404 154 q 511 167 474 154 l 496 21 q 431 -4 471 6 q 351 -14 390 -14 q 190 38 240 -14 q 140 206 140 90 l 140 326 l 19 249 l 19 421 l 140 479 l 140 989 l 376 989 l 376 615 l 521 710 l 521 536 l 376 467 z "},"m":{"ha":1307,"x_min":85,"x_max":1226,"o":"m 989 708 q 1160 644 1094 708 q 1226 463 1226 581 l 1226 0 l 990 0 l 990 408 q 896 528 990 528 q 807 488 840 528 q 774 371 774 447 l 774 0 l 538 0 l 538 408 q 443 528 538 528 q 356 488 390 528 q 321 367 321 447 l 321 0 l 85 0 l 85 694 l 296 694 l 303 561 q 396 671 336 633 q 536 708 456 708 q 673 672 615 708 q 756 568 731 636 q 851 672 789 636 q 989 708 913 708 z "},"n":{"ha":861,"x_min":85,"x_max":781,"o":"m 540 708 q 715 644 650 708 q 781 463 781 581 l 781 0 l 544 0 l 544 397 q 519 498 544 468 q 446 528 493 528 q 356 488 390 528 q 321 367 321 449 l 321 0 l 85 0 l 85 694 l 296 694 l 303 561 q 397 672 336 635 q 540 708 458 708 z "},"ń":{"ha":861,"x_min":85,"x_max":781,"o":"m 540 708 q 715 644 650 708 q 781 463 781 581 l 781 0 l 544 0 l 544 397 q 519 498 544 468 q 446 528 493 528 q 356 488 390 528 q 321 367 321 449 l 321 0 l 85 0 l 85 694 l 296 694 l 303 561 q 397 672 336 635 q 540 708 458 708 m 640 1025 l 500 785 l 328 785 l 421 1025 l 640 1025 z "},"ň":{"ha":861,"x_min":85,"x_max":781,"o":"m 540 708 q 715 644 650 708 q 781 463 781 581 l 781 0 l 544 0 l 544 397 q 519 498 544 468 q 446 528 493 528 q 356 488 390 528 q 321 367 321 449 l 321 0 l 85 0 l 85 694 l 296 694 l 303 561 q 397 672 336 635 q 540 708 458 708 m 544 785 l 314 785 l 164 1025 l 335 1025 l 429 904 l 524 1025 l 694 1025 l 544 785 z "},"ñ":{"ha":861,"x_min":85,"x_max":781,"o":"m 540 708 q 715 644 650 708 q 781 463 781 581 l 781 0 l 544 0 l 544 397 q 519 498 544 468 q 446 528 493 528 q 356 488 390 528 q 321 367 321 449 l 321 0 l 85 0 l 85 694 l 296 694 l 303 561 q 397 672 336 635 q 540 708 458 708 m 708 997 q 525 776 700 776 q 458 789 483 776 q 403 825 432 801 q 372 848 385 840 q 343 856 358 856 q 308 836 321 856 q 292 778 296 817 l 158 778 q 342 999 167 999 q 409 985 383 999 q 465 949 435 972 q 497 926 486 932 q 522 919 507 919 q 558 939 546 919 q 575 997 571 958 l 708 997 z "},"o":{"ha":836,"x_min":51,"x_max":785,"o":"m 418 708 q 688 613 592 708 q 785 347 785 518 q 688 81 785 176 q 418 -14 592 -14 q 148 81 244 -14 q 51 347 51 176 q 148 613 51 518 q 418 708 244 708 m 418 540 q 319 494 351 540 q 288 347 288 449 q 319 200 288 246 q 418 154 351 154 q 517 200 485 154 q 549 347 549 246 q 517 494 549 449 q 418 540 485 540 z "},"ó":{"ha":836,"x_min":51,"x_max":785,"o":"m 418 708 q 688 613 592 708 q 785 347 785 518 q 688 81 785 176 q 418 -14 592 -14 q 148 81 244 -14 q 51 347 51 176 q 148 613 51 518 q 418 708 244 708 m 418 540 q 319 494 351 540 q 288 347 288 449 q 319 200 288 246 q 418 154 351 154 q 517 200 485 154 q 549 347 549 246 q 517 494 549 449 q 418 540 485 540 m 624 1025 l 483 785 l 311 785 l 404 1025 l 624 1025 z "},"ô":{"ha":836,"x_min":51,"x_max":785,"o":"m 418 708 q 688 613 592 708 q 785 347 785 518 q 688 81 785 176 q 418 -14 592 -14 q 148 81 244 -14 q 51 347 51 176 q 148 613 51 518 q 418 708 244 708 m 418 540 q 319 494 351 540 q 288 347 288 449 q 319 200 288 246 q 418 154 351 154 q 517 200 485 154 q 549 347 549 246 q 517 494 549 449 q 418 540 485 540 m 513 776 l 418 897 l 324 776 l 153 776 l 303 1017 l 533 1017 l 683 776 l 513 776 z "},"ö":{"ha":836,"x_min":51,"x_max":785,"o":"m 418 708 q 688 613 592 708 q 785 347 785 518 q 688 81 785 176 q 418 -14 592 -14 q 148 81 244 -14 q 51 347 51 176 q 148 613 51 518 q 418 708 244 708 m 418 540 q 319 494 351 540 q 288 347 288 449 q 319 200 288 246 q 418 154 351 154 q 517 200 485 154 q 549 347 549 246 q 517 494 549 449 q 418 540 485 540 m 264 986 q 351 958 319 986 q 383 879 383 929 q 351 801 383 829 q 264 772 319 772 q 178 801 210 772 q 147 879 147 829 q 178 958 147 929 q 264 986 210 986 m 569 986 q 657 958 625 986 q 689 879 689 929 q 657 801 689 829 q 569 772 625 772 q 484 801 515 772 q 453 879 453 829 q 484 958 453 929 q 569 986 515 986 z "},"ò":{"ha":836,"x_min":51,"x_max":785,"o":"m 418 708 q 688 613 592 708 q 785 347 785 518 q 688 81 785 176 q 418 -14 592 -14 q 148 81 244 -14 q 51 347 51 176 q 148 613 51 518 q 418 708 244 708 m 418 540 q 319 494 351 540 q 288 347 288 449 q 319 200 288 246 q 418 154 351 154 q 517 200 485 154 q 549 347 549 246 q 517 494 549 449 q 418 540 485 540 m 511 785 l 339 785 l 199 1025 l 418 1025 l 511 785 z "},"ő":{"ha":836,"x_min":51,"x_max":785,"o":"m 418 708 q 688 613 592 708 q 785 347 785 518 q 688 81 785 176 q 418 -14 592 -14 q 148 81 244 -14 q 51 347 51 176 q 148 613 51 518 q 418 708 244 708 m 418 540 q 319 494 351 540 q 288 347 288 449 q 319 200 288 246 q 418 154 351 154 q 517 200 485 154 q 549 347 549 246 q 517 494 549 449 q 418 540 485 540 m 335 785 l 171 785 l 267 1025 l 467 1025 l 335 785 m 629 785 l 465 785 l 561 1025 l 761 1025 l 629 785 z "},"ō":{"ha":836,"x_min":51,"x_max":785,"o":"m 418 708 q 688 613 592 708 q 785 347 785 518 q 688 81 785 176 q 418 -14 592 -14 q 148 81 244 -14 q 51 347 51 176 q 148 613 51 518 q 418 708 244 708 m 418 540 q 319 494 351 540 q 288 347 288 449 q 319 200 288 246 q 418 154 351 154 q 517 200 485 154 q 549 347 549 246 q 517 494 549 449 q 418 540 485 540 m 676 790 l 160 790 l 160 936 l 676 936 l 676 790 z "},"ø":{"ha":836,"x_min":51,"x_max":785,"o":"m 418 708 q 632 657 544 708 l 685 724 l 778 724 l 689 613 q 785 347 785 517 q 688 81 785 176 q 418 -14 592 -14 q 217 32 299 -14 l 164 -37 l 71 -37 l 156 74 q 51 347 51 169 q 148 613 51 518 q 418 708 244 708 m 310 247 l 342 296 l 503 508 q 418 540 472 540 q 319 494 351 540 q 288 347 288 449 q 308 247 288 293 l 310 247 m 418 154 q 517 200 485 154 q 549 347 549 246 q 532 431 549 397 l 531 431 l 500 386 l 343 178 q 418 154 368 154 z "},"õ":{"ha":836,"x_min":51,"x_max":785,"o":"m 418 708 q 688 613 592 708 q 785 347 785 518 q 688 81 785 176 q 418 -14 592 -14 q 148 81 244 -14 q 51 347 51 176 q 148 613 51 518 q 418 708 244 708 m 418 540 q 319 494 351 540 q 288 347 288 449 q 319 200 288 246 q 418 154 351 154 q 517 200 485 154 q 549 347 549 246 q 517 494 549 449 q 418 540 485 540 m 693 997 q 510 776 685 776 q 442 789 468 776 q 388 825 417 801 q 356 848 369 840 q 328 856 343 856 q 293 836 306 856 q 276 778 281 817 l 143 778 q 326 999 151 999 q 394 985 368 999 q 450 949 419 972 q 481 926 471 932 q 507 919 492 919 q 543 939 531 919 q 560 997 556 958 l 693 997 z "},"œ":{"ha":1325,"x_min":51,"x_max":1275,"o":"m 1275 375 q 1268 294 1275 325 l 794 294 q 841 187 804 221 q 942 153 878 153 q 1026 172 993 153 q 1069 229 1058 192 l 1261 168 q 1148 33 1232 79 q 942 -14 1064 -14 q 676 108 763 -14 q 408 -14 590 -14 q 147 82 242 -14 q 51 347 51 178 q 147 613 51 517 q 408 708 242 708 q 567 677 499 708 q 676 588 635 646 q 781 677 717 646 q 928 708 844 708 q 1117 666 1039 708 q 1235 548 1196 624 q 1275 375 1275 472 m 929 543 q 838 509 871 543 q 794 404 804 475 l 1051 404 q 929 543 1035 543 m 419 154 q 518 200 486 154 q 550 347 550 246 q 518 495 550 449 q 419 542 486 542 q 322 495 354 542 q 290 347 290 449 q 322 200 290 246 q 419 154 354 154 z "},"p":{"ha":872,"x_min":85,"x_max":817,"o":"m 531 708 q 742 614 667 708 q 817 350 817 519 q 740 82 817 178 q 531 -14 664 -14 q 403 21 457 -14 q 321 117 350 56 l 321 -292 l 85 -292 l 85 694 l 292 694 l 299 547 q 388 665 328 621 q 531 708 449 708 m 449 160 q 545 206 511 160 q 579 347 579 251 q 545 489 579 443 q 449 535 511 535 q 355 489 389 535 q 321 354 321 443 l 321 340 q 354 207 321 254 q 449 160 388 160 z "},"þ":{"ha":872,"x_min":85,"x_max":817,"o":"m 536 708 q 739 618 661 708 q 817 354 817 528 q 776 141 817 224 q 669 22 735 58 q 529 -14 604 -14 q 403 17 456 -14 q 321 104 351 49 l 321 -292 l 85 -292 l 85 989 l 321 989 l 321 574 q 405 672 350 636 q 536 708 460 708 m 449 160 q 547 205 514 160 q 579 347 579 250 q 547 490 579 444 q 449 535 514 535 q 355 489 389 535 q 321 354 321 443 l 321 340 q 354 207 321 254 q 449 160 388 160 z "},"q":{"ha":874,"x_min":57,"x_max":789,"o":"m 789 694 l 789 -292 l 553 -292 l 553 115 q 469 20 522 54 q 343 -14 415 -14 q 133 82 208 -14 q 57 350 57 178 q 132 614 57 519 q 342 708 207 708 q 484 665 424 708 q 574 549 544 622 l 582 694 l 789 694 m 425 160 q 519 207 486 160 q 553 340 553 254 l 553 354 q 519 488 553 442 q 425 535 485 535 q 294 347 294 535 q 425 160 294 160 z "},"r":{"ha":597,"x_min":85,"x_max":589,"o":"m 514 708 q 589 693 561 708 l 564 493 q 526 508 550 501 q 476 514 503 514 q 365 472 410 514 q 321 350 321 429 l 321 0 l 85 0 l 85 694 l 293 694 l 303 544 q 381 666 328 624 q 514 708 435 708 z "},"ŕ":{"ha":597,"x_min":85,"x_max":589,"o":"m 514 708 q 589 693 561 708 l 564 493 q 526 508 550 501 q 476 514 503 514 q 365 472 410 514 q 321 350 321 429 l 321 0 l 85 0 l 85 694 l 293 694 l 303 544 q 381 666 328 624 q 514 708 435 708 m 529 1025 l 389 785 l 217 785 l 310 1025 l 529 1025 z "},"ř":{"ha":597,"x_min":53,"x_max":589,"o":"m 514 708 q 589 693 561 708 l 564 493 q 526 508 550 501 q 476 514 503 514 q 365 472 410 514 q 321 350 321 429 l 321 0 l 85 0 l 85 694 l 293 694 l 303 544 q 381 666 328 624 q 514 708 435 708 m 433 785 l 203 785 l 53 1025 l 224 1025 l 318 904 l 413 1025 l 583 1025 l 433 785 z "},"s":{"ha":740,"x_min":33,"x_max":704,"o":"m 372 -14 q 33 108 133 -14 l 156 242 q 361 143 215 143 q 438 156 410 143 q 465 192 465 169 q 437 226 465 211 q 339 254 408 240 q 117 338 183 285 q 51 478 51 390 q 89 590 51 538 q 202 676 126 643 q 386 708 278 708 q 581 676 506 708 q 704 578 657 643 l 582 458 q 503 529 549 507 q 393 551 457 551 q 315 536 343 551 q 288 499 288 521 q 316 463 288 478 q 415 435 344 449 q 635 356 568 408 q 703 214 703 304 q 618 49 703 113 q 372 -14 533 -14 z "},"ś":{"ha":740,"x_min":33,"x_max":704,"o":"m 372 -14 q 33 108 133 -14 l 156 242 q 361 143 215 143 q 438 156 410 143 q 465 192 465 169 q 437 226 465 211 q 339 254 408 240 q 117 338 183 285 q 51 478 51 390 q 89 590 51 538 q 202 676 126 643 q 386 708 278 708 q 581 676 506 708 q 704 578 657 643 l 582 458 q 503 529 549 507 q 393 551 457 551 q 315 536 343 551 q 288 499 288 521 q 316 463 288 478 q 415 435 344 449 q 635 356 568 408 q 703 214 703 304 q 618 49 703 113 q 372 -14 533 -14 m 588 1025 l 447 785 l 275 785 l 368 1025 l 588 1025 z "},"š":{"ha":740,"x_min":33,"x_max":704,"o":"m 372 -14 q 33 108 133 -14 l 156 242 q 361 143 215 143 q 438 156 410 143 q 465 192 465 169 q 437 226 465 211 q 339 254 408 240 q 117 338 183 285 q 51 478 51 390 q 89 590 51 538 q 202 676 126 643 q 386 708 278 708 q 581 676 506 708 q 704 578 657 643 l 582 458 q 503 529 549 507 q 393 551 457 551 q 315 536 343 551 q 288 499 288 521 q 316 463 288 478 q 415 435 344 449 q 635 356 568 408 q 703 214 703 304 q 618 49 703 113 q 372 -14 533 -14 m 492 785 l 261 785 l 111 1025 l 282 1025 l 376 904 l 471 1025 l 642 1025 l 492 785 z "},"ß":{"ha":900,"x_min":85,"x_max":851,"o":"m 601 504 q 785 434 718 504 q 851 256 851 364 q 818 121 851 182 q 716 23 785 60 q 546 -14 647 -14 q 447 -2 492 -14 q 374 31 403 10 l 413 188 q 451 163 431 171 q 504 156 472 156 q 593 192 561 156 q 625 288 625 228 q 587 382 625 350 q 476 414 549 414 l 408 414 l 432 582 l 475 582 q 566 617 533 583 q 599 707 599 651 q 565 794 599 764 q 472 825 532 825 q 355 778 389 825 q 321 622 321 731 l 321 0 l 85 0 l 85 640 q 177 905 85 814 q 478 996 269 996 q 671 960 592 996 q 789 864 750 925 q 828 728 828 803 q 801 622 828 672 q 724 539 775 571 q 601 507 674 507 l 601 504 z "},"ſ":{"ha":451,"x_min":82,"x_max":482,"o":"m 82 758 q 154 946 82 883 q 347 1008 226 1008 q 428 1000 396 1008 q 482 974 460 992 l 468 826 q 408 843 444 843 q 337 818 363 843 q 311 740 311 793 l 311 0 l 82 0 l 82 758 z "},"t":{"ha":604,"x_min":18,"x_max":589,"o":"m 589 39 q 501 1 554 15 q 393 -14 447 -14 q 204 39 269 -14 q 138 208 139 92 l 138 526 l 18 526 l 18 694 l 138 694 l 138 850 l 374 915 l 374 694 l 582 694 l 582 526 l 374 526 l 374 247 q 465 154 374 154 q 565 185 522 154 l 589 39 z "},"ť":{"ha":604,"x_min":18,"x_max":647,"o":"m 574 763 l 439 763 l 468 1065 l 647 1065 l 574 763 m 465 154 q 565 185 522 154 l 589 39 q 501 1 554 15 q 393 -14 447 -14 q 204 39 269 -14 q 138 208 139 92 l 138 526 l 18 526 l 18 694 l 138 694 l 138 850 l 374 915 l 374 694 l 582 694 l 582 526 l 374 526 l 374 247 q 465 154 374 154 z "},"u":{"ha":861,"x_min":81,"x_max":776,"o":"m 776 694 l 776 0 l 565 0 l 558 129 q 318 -14 493 -14 q 144 45 207 -14 q 81 231 81 104 l 81 694 l 317 694 l 317 290 q 340 194 317 222 q 413 167 364 167 q 506 206 471 167 q 540 326 540 246 l 540 694 l 776 694 z "},"ú":{"ha":861,"x_min":81,"x_max":776,"o":"m 776 694 l 776 0 l 565 0 l 558 129 q 318 -14 493 -14 q 144 45 207 -14 q 81 231 81 104 l 81 694 l 317 694 l 317 290 q 340 194 317 222 q 413 167 364 167 q 506 206 471 167 q 540 326 540 246 l 540 694 l 776 694 m 631 1025 l 490 785 l 318 785 l 411 1025 l 631 1025 z "},"û":{"ha":861,"x_min":81,"x_max":776,"o":"m 776 694 l 776 0 l 565 0 l 558 129 q 318 -14 493 -14 q 144 45 207 -14 q 81 231 81 104 l 81 694 l 317 694 l 317 290 q 340 194 317 222 q 413 167 364 167 q 506 206 471 167 q 540 326 540 246 l 540 694 l 776 694 m 519 776 l 425 897 l 331 776 l 160 776 l 310 1017 l 540 1017 l 690 776 l 519 776 z "},"ü":{"ha":861,"x_min":81,"x_max":776,"o":"m 776 694 l 776 0 l 565 0 l 558 129 q 318 -14 493 -14 q 144 45 207 -14 q 81 231 81 104 l 81 694 l 317 694 l 317 290 q 340 194 317 222 q 413 167 364 167 q 506 206 471 167 q 540 326 540 246 l 540 694 l 776 694 m 269 986 q 357 958 325 986 q 389 879 389 929 q 357 801 389 829 q 269 772 325 772 q 184 801 215 772 q 153 879 153 829 q 184 958 153 929 q 269 986 215 986 m 575 986 q 663 958 631 986 q 694 879 694 929 q 663 801 694 829 q 575 772 631 772 q 490 801 521 772 q 458 879 458 829 q 490 958 458 929 q 575 986 521 986 z "},"ù":{"ha":861,"x_min":81,"x_max":776,"o":"m 776 694 l 776 0 l 565 0 l 558 129 q 318 -14 493 -14 q 144 45 207 -14 q 81 231 81 104 l 81 694 l 317 694 l 317 290 q 340 194 317 222 q 413 167 364 167 q 506 206 471 167 q 540 326 540 246 l 540 694 l 776 694 m 518 785 l 346 785 l 206 1025 l 425 1025 l 518 785 z "},"ű":{"ha":861,"x_min":81,"x_max":776,"o":"m 776 694 l 776 0 l 565 0 l 558 129 q 318 -14 493 -14 q 144 45 207 -14 q 81 231 81 104 l 81 694 l 317 694 l 317 290 q 340 194 317 222 q 413 167 364 167 q 506 206 471 167 q 540 326 540 246 l 540 694 l 776 694 m 340 785 l 176 785 l 272 1025 l 472 1025 l 340 785 m 635 785 l 471 785 l 567 1025 l 767 1025 l 635 785 z "},"ū":{"ha":861,"x_min":81,"x_max":776,"o":"m 776 694 l 776 0 l 565 0 l 558 129 q 318 -14 493 -14 q 144 45 207 -14 q 81 231 81 104 l 81 694 l 317 694 l 317 290 q 340 194 317 222 q 413 167 364 167 q 506 206 471 167 q 540 326 540 246 l 540 694 l 776 694 m 683 790 l 167 790 l 167 936 l 683 936 l 683 790 z "},"ģ":{"ha":778,"x_min":32,"x_max":778,"o":"m 482 782 l 285 782 l 383 1072 l 532 1072 l 482 782 m 525 154 q 712 101 646 154 q 778 -54 778 49 q 673 -235 778 -172 q 388 -299 568 -299 q 119 -256 206 -299 q 32 -135 32 -212 q 64 -54 32 -89 q 161 -4 96 -19 q 54 140 54 42 q 85 226 54 189 q 168 282 115 264 q 54 472 54 343 q 143 647 54 585 q 393 708 232 708 q 532 693 468 708 q 594 829 546 776 q 729 882 643 882 l 751 881 l 778 724 q 739 726 750 726 q 660 710 692 726 q 615 664 629 693 q 732 472 732 603 q 643 299 732 360 q 393 238 554 238 q 260 250 318 238 q 217 201 217 239 q 289 154 217 154 l 525 154 m 393 574 q 319 546 347 574 q 290 472 290 518 q 319 399 290 426 q 393 372 347 372 q 467 399 439 372 q 496 472 496 426 q 467 546 496 518 q 393 574 439 574 m 404 -146 q 544 -127 496 -146 q 592 -78 592 -108 q 572 -44 592 -56 q 507 -33 553 -33 l 317 -33 q 235 -45 260 -33 q 211 -82 211 -57 q 404 -146 211 -146 z "},"ķ":{"ha":864,"x_min":85,"x_max":863,"o":"m 433 285 l 321 160 l 321 0 l 85 0 l 85 989 l 321 989 l 321 403 l 586 694 l 847 694 l 592 422 l 863 0 l 601 0 l 433 285 m 465 -335 l 313 -335 l 357 -83 l 564 -83 l 465 -335 z "},"ļ":{"ha":454,"x_min":82,"x_max":453,"o":"m 318 240 q 332 174 318 193 q 382 154 346 154 q 453 167 415 154 l 438 21 q 372 -4 413 6 q 293 -14 332 -14 q 132 38 182 -14 q 82 206 82 90 l 82 989 l 318 989 l 318 240 m 274 -335 l 121 -335 l 165 -83 l 372 -83 l 274 -335 z "},"ņ":{"ha":861,"x_min":85,"x_max":781,"o":"m 540 708 q 715 644 650 708 q 781 463 781 581 l 781 0 l 544 0 l 544 397 q 519 498 544 468 q 446 528 493 528 q 356 488 390 528 q 321 367 321 449 l 321 0 l 85 0 l 85 694 l 296 694 l 303 561 q 397 672 336 635 q 540 708 458 708 m 451 -335 l 299 -335 l 343 -83 l 550 -83 l 451 -335 z "},"ŗ":{"ha":597,"x_min":60,"x_max":589,"o":"m 514 708 q 589 693 561 708 l 564 493 q 526 508 550 501 q 476 514 503 514 q 365 472 410 514 q 321 350 321 429 l 321 0 l 85 0 l 85 694 l 293 694 l 303 544 q 381 666 328 624 q 514 708 435 708 m 213 -335 l 60 -335 l 104 -83 l 311 -83 l 213 -335 z "},"ş":{"ha":740,"x_min":33,"x_max":704,"o":"m 415 435 q 635 356 568 408 q 703 214 703 304 q 647 75 703 133 q 483 -4 592 17 q 558 -135 558 -57 q 504 -256 558 -214 q 360 -299 450 -299 q 188 -243 247 -299 l 242 -133 q 342 -172 281 -172 q 397 -154 376 -172 q 418 -104 418 -136 q 397 -52 418 -74 q 324 -12 376 -31 q 33 108 122 -1 l 156 242 q 361 143 215 143 q 438 156 410 143 q 465 192 465 169 q 437 226 465 211 q 339 254 408 240 q 117 338 183 285 q 51 478 51 390 q 89 590 51 538 q 202 676 126 643 q 386 708 278 708 q 581 676 506 708 q 704 578 657 643 l 582 458 q 503 529 549 507 q 393 551 457 551 q 315 536 343 551 q 288 499 288 521 q 316 463 288 478 q 415 435 344 449 z "},"ţ":{"ha":615,"x_min":18,"x_max":589,"o":"m 464 -8 q 535 -135 535 -61 q 480 -256 535 -214 q 336 -299 425 -299 q 233 -284 274 -299 q 163 -243 192 -269 l 218 -133 q 314 -172 254 -172 q 372 -154 351 -172 q 393 -103 393 -136 q 372 -46 393 -68 q 293 -3 350 -24 q 138 208 139 32 l 138 526 l 18 526 l 18 694 l 138 694 l 138 850 l 374 915 l 374 694 l 582 694 l 582 526 l 374 526 l 374 247 q 465 154 374 154 q 565 185 522 154 l 589 39 q 464 -8 543 6 z "},"ș":{"ha":740,"x_min":33,"x_max":704,"o":"m 372 -14 q 33 108 133 -14 l 156 242 q 361 143 215 143 q 438 156 410 143 q 465 192 465 169 q 437 226 465 211 q 339 254 408 240 q 117 338 183 285 q 51 478 51 390 q 89 590 51 538 q 202 676 126 643 q 386 708 278 708 q 581 676 506 708 q 704 578 657 643 l 582 458 q 503 529 549 507 q 393 551 457 551 q 315 536 343 551 q 288 499 288 521 q 316 463 288 478 q 415 435 344 449 q 635 356 568 408 q 703 214 703 304 q 618 49 703 113 q 372 -14 533 -14 m 392 -335 l 239 -335 l 283 -83 l 490 -83 l 392 -335 z "},"ț":{"ha":604,"x_min":18,"x_max":589,"o":"m 589 39 q 501 1 554 15 q 393 -14 447 -14 q 204 39 269 -14 q 138 208 139 92 l 138 526 l 18 526 l 18 694 l 138 694 l 138 850 l 374 915 l 374 694 l 582 694 l 582 526 l 374 526 l 374 247 q 465 154 374 154 q 565 185 522 154 l 589 39 m 361 -335 l 208 -335 l 253 -83 l 460 -83 l 361 -335 z "},"ų":{"ha":861,"x_min":81,"x_max":785,"o":"m 785 -265 q 642 -299 732 -299 q 506 -260 557 -299 q 456 -147 456 -221 q 568 4 456 -47 l 557 138 q 461 25 524 64 q 318 -14 399 -14 q 144 45 207 -14 q 81 231 81 104 l 81 694 l 317 694 l 317 290 q 340 194 317 222 q 410 167 364 167 q 503 210 467 167 q 540 331 540 253 l 540 694 l 776 694 l 776 0 q 619 -108 619 -37 q 638 -151 619 -136 q 690 -167 656 -167 q 754 -153 728 -167 l 785 -265 z "},"ů":{"ha":861,"x_min":81,"x_max":776,"o":"m 776 694 l 776 0 l 565 0 l 558 129 q 318 -14 493 -14 q 144 45 207 -14 q 81 231 81 104 l 81 694 l 317 694 l 317 290 q 340 194 317 222 q 413 167 364 167 q 506 206 471 167 q 540 326 540 246 l 540 694 l 776 694 m 425 1101 q 562 1056 513 1101 q 611 933 611 1011 q 562 810 611 856 q 425 765 513 765 q 288 810 338 765 q 238 933 238 856 q 288 1056 238 1011 q 425 1101 338 1101 m 425 1004 q 372 985 392 1004 q 351 933 351 965 q 372 882 351 901 q 425 863 392 863 q 477 882 457 863 q 497 933 497 901 q 477 985 497 965 q 425 1004 457 1004 z "},"v":{"ha":779,"x_min":-1,"x_max":781,"o":"m 781 694 l 531 0 l 249 0 l -1 694 l 247 694 l 390 150 l 536 694 l 781 694 z "},"w":{"ha":1261,"x_min":13,"x_max":1247,"o":"m 1247 694 l 1038 0 l 754 0 l 629 446 l 506 0 l 224 0 l 13 694 l 261 694 l 378 171 l 514 694 l 747 694 l 882 171 l 1000 694 l 1247 694 z "},"x":{"ha":818,"x_min":7,"x_max":810,"o":"m 543 0 l 407 242 l 268 0 l 7 0 l 257 351 l 17 694 l 285 694 l 413 463 l 543 694 l 804 694 l 563 350 l 810 0 l 543 0 z "},"y":{"ha":792,"x_min":4,"x_max":792,"o":"m 538 0 q 453 -176 499 -111 q 344 -270 407 -242 q 193 -299 282 -299 q 4 -247 75 -299 l 54 -89 q 103 -117 76 -110 q 174 -125 131 -125 q 242 -110 217 -125 q 282 -58 267 -96 l 299 -15 l 218 174 l 11 694 l 271 694 l 378 299 l 411 151 l 449 304 l 556 694 l 792 694 l 538 0 z "},"ý":{"ha":792,"x_min":4,"x_max":792,"o":"m 538 0 q 453 -176 499 -111 q 344 -270 407 -242 q 193 -299 282 -299 q 4 -247 75 -299 l 54 -89 q 103 -117 76 -110 q 174 -125 131 -125 q 242 -110 217 -125 q 282 -58 267 -96 l 299 -15 l 218 174 l 11 694 l 271 694 l 378 299 l 411 151 l 449 304 l 556 694 l 792 694 l 538 0 m 626 1025 l 486 785 l 314 785 l 407 1025 l 626 1025 z "},"ÿ":{"ha":792,"x_min":4,"x_max":792,"o":"m 538 0 q 453 -176 499 -111 q 344 -270 407 -242 q 193 -299 282 -299 q 4 -247 75 -299 l 54 -89 q 103 -117 76 -110 q 174 -125 131 -125 q 242 -110 217 -125 q 282 -58 267 -96 l 299 -15 l 218 174 l 11 694 l 271 694 l 378 299 l 411 151 l 449 304 l 556 694 l 792 694 l 538 0 m 267 986 q 354 958 322 986 q 386 879 386 929 q 354 801 386 829 q 267 772 322 772 q 181 801 213 772 q 150 879 150 829 q 181 958 150 929 q 267 986 213 986 m 572 986 q 660 958 628 986 q 692 879 692 929 q 660 801 692 829 q 572 772 628 772 q 487 801 518 772 q 456 879 456 829 q 487 958 456 929 q 572 986 518 986 z "},"z":{"ha":715,"x_min":50,"x_max":674,"o":"m 50 144 l 325 458 l 400 532 l 289 529 l 51 529 l 51 694 l 661 694 l 661 550 l 388 239 l 313 163 l 435 165 l 674 165 l 674 0 l 50 0 l 50 144 z "},"ź":{"ha":715,"x_min":50,"x_max":674,"o":"m 50 144 l 325 458 l 400 532 l 289 529 l 51 529 l 51 694 l 661 694 l 661 550 l 388 239 l 313 163 l 435 165 l 674 165 l 674 0 l 50 0 l 50 144 m 556 1025 l 415 785 l 243 785 l 336 1025 l 556 1025 z "},"ž":{"ha":715,"x_min":50,"x_max":674,"o":"m 50 144 l 325 458 l 400 532 l 289 529 l 51 529 l 51 694 l 661 694 l 661 550 l 388 239 l 313 163 l 435 165 l 674 165 l 674 0 l 50 0 l 50 144 m 460 785 l 229 785 l 79 1025 l 250 1025 l 344 904 l 439 1025 l 610 1025 l 460 785 z "},"ż":{"ha":715,"x_min":50,"x_max":674,"o":"m 50 144 l 325 458 l 400 532 l 289 529 l 51 529 l 51 694 l 661 694 l 661 550 l 388 239 l 313 163 l 435 165 l 674 165 l 674 0 l 50 0 l 50 144 m 350 1003 q 447 974 414 1003 q 479 892 479 946 q 447 808 479 836 q 350 779 414 779 q 256 808 289 779 q 224 892 224 836 q 256 974 224 946 q 350 1003 289 1003 z "},"ﬁ":{"ha":981,"x_min":21,"x_max":917,"o":"m 354 694 l 565 694 l 565 526 l 368 526 l 368 0 l 132 0 l 132 526 l 21 526 l 21 694 l 132 694 l 132 758 q 210 946 132 883 q 413 1008 288 1008 q 572 968 521 1008 l 549 821 q 469 843 518 843 q 354 743 354 843 l 354 694 m 779 775 q 674 802 707 775 q 642 888 642 829 q 674 974 642 947 q 779 1001 707 1001 q 884 974 851 1001 q 917 888 917 947 q 884 802 917 829 q 779 775 851 775 m 897 0 l 661 0 l 661 694 l 897 694 l 897 0 z "},"ﬂ":{"ha":1031,"x_min":21,"x_max":1029,"o":"m 354 694 l 565 694 l 565 526 l 368 526 l 368 0 l 132 0 l 132 526 l 21 526 l 21 694 l 132 694 l 132 758 q 210 946 132 883 q 413 1008 288 1008 q 572 968 521 1008 l 549 821 q 469 843 518 843 q 354 743 354 843 l 354 694 m 894 240 q 908 174 894 193 q 958 154 922 154 q 1029 167 992 154 l 1014 21 q 949 -4 989 6 q 869 -14 908 -14 q 708 38 758 -14 q 658 206 658 90 l 658 989 l 894 989 l 894 240 z "},"ª":{"ha":608,"x_min":32,"x_max":572,"o":"m 544 531 q 572 535 564 531 l 560 442 q 482 425 524 425 q 404 445 436 425 q 361 503 372 465 q 292 446 338 467 q 185 425 247 425 q 71 455 110 425 q 32 542 32 485 q 76 639 32 603 q 221 696 121 675 l 332 718 l 332 735 q 315 784 332 767 q 264 801 297 801 q 210 785 231 801 q 181 731 189 769 l 39 764 q 110 878 50 838 q 274 919 169 919 q 507 732 507 919 l 507 572 q 544 531 507 531 m 253 529 q 308 547 285 529 q 332 596 332 564 l 332 646 l 272 632 q 200 571 200 615 q 253 529 200 529 m 47 333 l 554 333 l 554 210 l 47 210 l 47 333 z "},"º":{"ha":586,"x_min":42,"x_max":546,"o":"m 293 425 q 108 490 175 425 q 42 672 42 556 q 108 854 42 789 q 293 919 175 919 q 479 854 413 919 q 546 672 546 789 q 479 490 546 556 q 293 425 413 425 m 293 539 q 351 571 333 539 q 369 672 369 603 q 351 774 369 742 q 293 806 333 806 q 235 774 253 806 q 217 672 217 742 q 235 571 217 603 q 293 539 253 539 m 50 333 l 536 333 l 536 210 l 50 210 l 50 333 z "},"π":{"ha":1096,"x_min":29,"x_max":1051,"o":"m 868 531 l 868 256 q 895 179 868 204 q 979 154 922 154 l 1003 156 l 981 -4 q 908 -7 928 -7 q 693 44 754 -7 q 632 207 632 96 l 632 531 l 436 531 l 436 0 l 200 0 l 200 531 l 29 531 l 29 694 l 1051 694 l 1051 531 l 868 531 z "},"⁄":{"ha":365,"x_min":-232,"x_max":597,"o":"m 431 918 l 597 918 l -65 0 l -232 0 l 431 918 z "},"½":{"ha":1324,"x_min":26,"x_max":1293,"o":"m 356 924 l 356 372 l 185 372 l 185 672 q 189 761 185 710 q 26 694 106 700 l 26 835 q 131 869 72 842 q 211 924 189 896 l 356 924 m 844 918 l 1011 918 l 349 0 l 182 0 l 844 918 m 819 101 q 943 174 910 153 q 1067 276 1029 232 q 1106 358 1106 321 q 1089 404 1106 388 q 1040 421 1072 421 q 985 394 1004 421 q 965 315 965 367 l 800 360 q 867 502 801 451 q 1044 553 933 553 q 1226 499 1167 553 q 1286 372 1286 446 q 1151 179 1286 269 q 1044 126 1101 147 l 1044 124 q 1171 129 1103 129 l 1293 129 l 1293 -6 l 819 -6 l 819 101 z "},"¼":{"ha":1229,"x_min":26,"x_max":1206,"o":"m 356 924 l 356 372 l 185 372 l 185 672 q 189 761 185 710 q 26 694 106 700 l 26 835 q 131 869 72 842 q 211 924 189 896 l 356 924 m 844 918 l 1011 918 l 349 0 l 182 0 l 844 918 m 1206 113 l 1122 113 l 1122 -6 l 974 -6 l 974 113 l 694 113 l 694 190 l 918 547 l 1122 547 l 1122 225 l 1206 225 l 1206 113 m 974 225 l 974 333 q 978 444 974 394 l 974 444 q 931 363 951 396 l 842 225 l 974 225 z "},"¾":{"ha":1342,"x_min":13,"x_max":1319,"o":"m 261 931 q 425 890 368 931 q 482 774 482 849 q 450 685 482 718 q 365 650 418 653 l 365 646 q 459 614 425 644 q 493 528 493 583 q 432 408 493 453 q 267 364 371 364 q 101 397 164 364 q 13 504 38 431 l 172 563 q 254 488 178 488 q 305 503 286 488 q 324 547 324 519 q 254 597 324 597 l 222 597 l 222 688 l 249 688 q 314 743 314 688 q 298 785 314 771 q 253 800 282 800 q 179 728 188 800 l 26 779 q 103 893 39 856 q 261 931 167 931 m 957 918 l 1124 918 l 461 0 l 294 0 l 957 918 m 1319 113 l 1236 113 l 1236 -6 l 1088 -6 l 1088 113 l 808 113 l 808 190 l 1032 547 l 1236 547 l 1236 225 l 1319 225 l 1319 113 m 1088 225 l 1088 333 q 1092 444 1088 394 l 1088 444 q 1044 363 1065 396 l 956 225 l 1088 225 z "},"➀":{"ha":1264,"x_min":103,"x_max":1161,"o":"m 632 -56 q 355 9 475 -56 q 169 190 235 74 q 103 458 103 307 q 169 726 103 610 q 355 908 235 843 q 632 972 475 972 q 909 908 789 972 q 1095 726 1029 843 q 1161 458 1161 610 q 1095 190 1161 307 q 909 9 1029 74 q 632 -56 789 -56 m 632 54 q 844 105 751 54 q 987 247 936 156 q 1038 458 1038 339 q 987 669 1038 578 q 844 812 936 761 q 632 863 751 863 q 420 812 513 863 q 277 669 328 761 q 226 458 226 578 q 277 247 226 339 q 420 105 328 156 q 632 54 513 54 m 754 740 l 754 189 l 583 189 l 583 489 q 588 579 583 525 q 425 511 506 517 l 425 651 q 529 685 471 658 q 610 740 588 713 l 754 740 z "},"➁":{"ha":1264,"x_min":103,"x_max":1161,"o":"m 632 -56 q 355 9 475 -56 q 169 190 235 74 q 103 458 103 307 q 169 726 103 610 q 355 908 235 843 q 632 972 475 972 q 909 908 789 972 q 1095 726 1029 843 q 1161 458 1161 610 q 1095 190 1161 307 q 909 9 1029 74 q 632 -56 789 -56 m 632 54 q 844 105 751 54 q 987 247 936 156 q 1038 458 1038 339 q 987 669 1038 578 q 844 812 936 761 q 632 863 751 863 q 420 812 513 863 q 277 669 328 761 q 226 458 226 578 q 277 247 226 339 q 420 105 328 156 q 632 54 513 54 m 399 308 q 522 381 489 360 q 647 483 608 439 q 685 565 685 528 q 668 611 685 594 q 619 628 651 628 q 564 601 583 628 q 544 522 544 574 l 379 567 q 447 709 381 658 q 624 760 513 760 q 806 706 746 760 q 865 579 865 653 q 731 386 865 476 q 624 333 681 354 l 624 331 q 750 336 682 336 l 872 336 l 872 201 l 399 201 l 399 308 z "},"➂":{"ha":1264,"x_min":103,"x_max":1161,"o":"m 632 -56 q 355 9 475 -56 q 169 190 235 74 q 103 458 103 307 q 169 726 103 610 q 355 908 235 843 q 632 972 475 972 q 909 908 789 972 q 1095 726 1029 843 q 1161 458 1161 610 q 1095 190 1161 307 q 909 9 1029 74 q 632 -56 789 -56 m 632 54 q 844 105 751 54 q 987 247 936 156 q 1038 458 1038 339 q 987 669 1038 578 q 844 812 936 761 q 632 863 751 863 q 420 812 513 863 q 277 669 328 761 q 226 458 226 578 q 277 247 226 339 q 420 105 328 156 q 632 54 513 54 m 639 743 q 803 702 746 743 q 860 586 860 661 q 828 498 860 531 q 743 463 796 465 l 743 458 q 837 426 803 457 q 871 340 871 396 q 810 221 871 265 q 644 176 749 176 q 478 210 542 176 q 390 317 415 243 l 550 375 q 632 300 556 300 q 683 316 664 300 q 701 360 701 332 q 632 410 701 410 l 600 410 l 600 500 l 626 500 q 692 556 692 500 q 676 598 692 583 q 631 613 660 613 q 557 540 565 613 l 404 592 q 481 706 417 668 q 639 743 544 743 z "},"➃":{"ha":1264,"x_min":103,"x_max":1161,"o":"m 632 -56 q 355 9 475 -56 q 169 190 235 74 q 103 458 103 307 q 169 726 103 610 q 355 908 235 843 q 632 972 475 972 q 909 908 789 972 q 1095 726 1029 843 q 1161 458 1161 610 q 1095 190 1161 307 q 909 9 1029 74 q 632 -56 789 -56 m 632 54 q 844 105 751 54 q 987 247 936 156 q 1038 458 1038 339 q 987 669 1038 578 q 844 812 936 761 q 632 863 751 863 q 420 812 513 863 q 277 669 328 761 q 226 458 226 578 q 277 247 226 339 q 420 105 328 156 q 632 54 513 54 m 856 307 l 772 307 l 772 189 l 624 189 l 624 307 l 344 307 l 344 385 l 568 742 l 772 742 l 772 419 l 856 419 l 856 307 m 624 419 l 624 528 q 628 639 624 589 l 624 639 q 581 557 601 590 l 492 419 l 624 419 z "},"➄":{"ha":1264,"x_min":103,"x_max":1161,"o":"m 632 -56 q 355 9 475 -56 q 169 190 235 74 q 103 458 103 307 q 169 726 103 610 q 355 908 235 843 q 632 972 475 972 q 909 908 789 972 q 1095 726 1029 843 q 1161 458 1161 610 q 1095 190 1161 307 q 909 9 1029 74 q 632 -56 789 -56 m 632 54 q 844 105 751 54 q 987 247 936 156 q 1038 458 1038 339 q 987 669 1038 578 q 844 812 936 761 q 632 863 751 863 q 420 812 513 863 q 277 669 328 761 q 226 458 226 578 q 277 247 226 339 q 420 105 328 156 q 632 54 513 54 m 682 529 q 817 484 771 529 q 864 360 864 439 q 799 215 864 264 q 629 167 733 167 q 481 192 540 167 q 388 279 421 217 l 542 347 q 569 303 550 318 q 625 289 589 289 q 681 308 660 289 q 701 357 701 326 q 628 421 701 421 q 581 413 599 421 q 549 389 563 406 l 410 403 l 443 726 l 840 726 l 840 599 l 572 599 l 565 532 q 557 497 564 513 l 558 497 q 682 529 593 529 z "},"➅":{"ha":1264,"x_min":103,"x_max":1161,"o":"m 632 -56 q 355 9 475 -56 q 169 190 235 74 q 103 458 103 307 q 169 726 103 610 q 355 908 235 843 q 632 972 475 972 q 909 908 789 972 q 1095 726 1029 843 q 1161 458 1161 610 q 1095 190 1161 307 q 909 9 1029 74 q 632 -56 789 -56 m 632 54 q 844 105 751 54 q 987 247 936 156 q 1038 458 1038 339 q 987 669 1038 578 q 844 812 936 761 q 632 863 751 863 q 420 812 513 863 q 277 669 328 761 q 226 458 226 578 q 277 247 226 339 q 420 105 328 156 q 632 54 513 54 m 629 174 q 436 244 503 174 q 369 457 369 315 q 444 668 369 596 q 643 740 519 740 q 779 713 725 740 q 861 621 833 685 l 729 557 q 701 598 722 583 q 646 613 679 613 q 565 574 594 613 q 536 475 536 536 q 538 460 536 464 l 539 460 q 597 510 563 494 q 682 526 631 526 q 815 482 764 526 q 867 351 867 438 q 805 220 867 267 q 629 174 743 174 m 632 300 q 687 315 668 300 q 706 356 706 329 q 687 399 706 383 q 632 414 668 414 q 577 399 596 414 q 558 356 558 383 q 577 315 558 329 q 632 300 596 300 z "},"➆":{"ha":1264,"x_min":103,"x_max":1161,"o":"m 632 -56 q 355 9 475 -56 q 169 190 235 74 q 103 458 103 307 q 169 726 103 610 q 355 908 235 843 q 632 972 475 972 q 909 908 789 972 q 1095 726 1029 843 q 1161 458 1161 610 q 1095 190 1161 307 q 909 9 1029 74 q 632 -56 789 -56 m 632 54 q 844 105 751 54 q 987 247 936 156 q 1038 458 1038 339 q 987 669 1038 578 q 844 812 936 761 q 632 863 751 863 q 420 812 513 863 q 277 669 328 761 q 226 458 226 578 q 277 247 226 339 q 420 105 328 156 q 632 54 513 54 m 874 717 l 874 606 q 743 408 781 518 q 706 165 706 299 l 532 165 q 574 388 532 279 q 697 581 617 496 l 406 581 l 406 717 l 874 717 z "},"➇":{"ha":1264,"x_min":103,"x_max":1161,"o":"m 632 -56 q 355 9 475 -56 q 169 190 235 74 q 103 458 103 307 q 169 726 103 610 q 355 908 235 843 q 632 972 475 972 q 909 908 789 972 q 1095 726 1029 843 q 1161 458 1161 610 q 1095 190 1161 307 q 909 9 1029 74 q 632 -56 789 -56 m 632 54 q 844 105 751 54 q 987 247 936 156 q 1038 458 1038 339 q 987 669 1038 578 q 844 812 936 761 q 632 863 751 863 q 420 812 513 863 q 277 669 328 761 q 226 458 226 578 q 277 247 226 339 q 420 105 328 156 q 632 54 513 54 m 632 744 q 801 701 739 744 q 864 585 864 658 q 840 510 864 542 q 767 464 815 479 l 767 463 q 879 338 879 433 q 814 219 879 261 q 632 178 749 178 q 451 220 517 178 q 385 338 385 263 q 413 416 385 385 q 496 463 442 447 l 496 464 q 425 510 450 478 q 400 585 400 542 q 463 701 400 658 q 632 744 525 744 m 632 635 q 561 578 561 635 q 580 536 561 551 q 632 521 599 521 q 685 535 667 521 q 703 578 703 550 q 632 635 703 635 m 632 288 q 690 303 669 288 q 711 347 711 319 q 690 392 711 376 q 632 408 669 408 q 575 392 596 408 q 554 347 554 376 q 575 303 554 319 q 632 288 596 288 z "},"➈":{"ha":1264,"x_min":103,"x_max":1161,"o":"m 632 -56 q 355 9 475 -56 q 169 190 235 74 q 103 458 103 307 q 169 726 103 610 q 355 908 235 843 q 632 972 475 972 q 909 908 789 972 q 1095 726 1029 843 q 1161 458 1161 610 q 1095 190 1161 307 q 909 9 1029 74 q 632 -56 789 -56 m 632 54 q 844 105 751 54 q 987 247 936 156 q 1038 458 1038 339 q 987 669 1038 578 q 844 812 936 761 q 632 863 751 863 q 420 812 513 863 q 277 669 328 761 q 226 458 226 578 q 277 247 226 339 q 420 105 328 156 q 632 54 513 54 m 638 742 q 832 670 764 742 q 900 458 900 599 q 826 245 900 315 q 626 175 753 175 q 485 205 540 175 q 408 306 429 235 l 556 356 q 577 315 560 326 q 632 303 594 303 q 708 337 685 303 q 732 426 732 371 q 731 446 732 439 l 729 446 q 681 403 715 419 q 601 386 646 386 q 454 434 510 386 q 399 560 399 482 q 463 694 399 647 q 638 742 526 742 m 644 617 q 590 601 608 617 q 571 558 571 586 q 590 517 571 532 q 644 503 608 503 q 699 517 679 503 q 718 558 718 532 q 699 601 718 586 q 644 617 679 617 z "},"₀":{"ha":574,"x_min":33,"x_max":539,"o":"m 286 -271 q 96 -201 158 -271 q 33 13 33 -131 q 96 226 33 156 q 286 296 158 296 q 476 226 414 296 q 539 13 539 156 q 476 -201 539 -131 q 286 -271 414 -271 m 286 -149 q 350 -112 331 -149 q 369 13 369 -75 q 350 137 369 100 q 286 174 331 174 q 223 137 242 174 q 204 13 204 100 q 223 -112 204 -75 q 286 -149 242 -149 z "},"₁":{"ha":414,"x_min":26,"x_max":356,"o":"m 356 289 l 356 -262 l 185 -262 l 185 38 q 189 128 185 74 q 26 60 107 65 l 26 200 q 131 234 72 207 q 211 289 189 261 l 356 289 z "},"₂":{"ha":544,"x_min":21,"x_max":514,"o":"m 40 -156 q 164 -83 131 -104 q 288 19 250 -25 q 326 101 326 64 q 310 147 326 131 q 261 164 293 164 q 206 137 225 164 q 186 58 186 110 l 21 103 q 88 245 22 194 q 265 296 154 296 q 447 242 388 296 q 507 115 507 189 q 372 -78 507 13 q 265 -131 322 -110 l 265 -133 q 392 -128 324 -128 l 514 -128 l 514 -262 l 40 -262 l 40 -156 z "},"₃":{"ha":526,"x_min":13,"x_max":493,"o":"m 261 296 q 425 255 368 296 q 482 139 482 214 q 450 51 482 83 q 365 15 418 18 l 365 11 q 459 -21 425 10 q 493 -107 493 -51 q 432 -226 493 -182 q 267 -271 371 -271 q 101 -237 164 -271 q 13 -131 38 -204 l 172 -72 q 254 -147 178 -147 q 305 -131 286 -147 q 324 -87 324 -115 q 254 -37 324 -37 l 222 -37 l 222 53 l 249 53 q 314 108 314 53 q 298 151 314 136 q 253 165 282 165 q 179 93 188 165 l 26 144 q 103 258 39 221 q 261 296 167 296 z "},"₄":{"ha":549,"x_min":15,"x_max":526,"o":"m 526 -144 l 443 -144 l 443 -262 l 294 -262 l 294 -144 l 15 -144 l 15 -67 l 239 290 l 443 290 l 443 -32 l 526 -32 l 526 -144 m 294 -32 l 294 76 q 299 188 294 138 l 294 188 q 251 106 272 139 l 163 -32 l 294 -32 z "},"₅":{"ha":535,"x_min":19,"x_max":496,"o":"m 314 92 q 449 47 403 92 q 496 -78 496 1 q 431 -222 496 -174 q 261 -271 365 -271 q 113 -246 172 -271 q 19 -158 53 -221 l 174 -90 q 201 -134 182 -119 q 257 -149 221 -149 q 313 -130 292 -149 q 333 -81 333 -111 q 260 -17 333 -17 q 213 -24 231 -17 q 181 -49 194 -32 l 42 -35 l 75 289 l 472 289 l 472 161 l 204 161 l 197 94 q 189 60 196 75 l 190 60 q 314 92 225 92 z "},"₆":{"ha":564,"x_min":38,"x_max":535,"o":"m 297 -271 q 104 -200 171 -271 q 38 13 38 -129 q 113 224 38 151 q 311 296 188 296 q 447 268 393 296 q 529 176 501 240 l 397 113 q 369 153 390 139 q 314 168 347 168 q 233 130 263 168 q 204 31 204 92 q 206 15 204 19 l 207 15 q 265 66 231 50 q 350 82 299 82 q 483 38 432 82 q 535 -93 535 -7 q 473 -224 535 -178 q 297 -271 411 -271 m 300 -144 q 355 -130 336 -144 q 374 -89 374 -115 q 355 -46 374 -61 q 300 -31 336 -31 q 245 -46 264 -31 q 226 -89 226 -61 q 245 -130 226 -115 q 300 -144 264 -144 z "},"₇":{"ha":493,"x_min":14,"x_max":482,"o":"m 482 289 l 482 178 q 351 -19 389 90 q 314 -262 314 -129 l 140 -262 q 183 -40 140 -149 q 306 153 225 68 l 14 153 l 14 289 l 482 289 z "},"₈":{"ha":579,"x_min":42,"x_max":536,"o":"m 289 296 q 458 253 396 296 q 521 136 521 210 q 497 62 521 93 q 424 15 472 31 l 424 14 q 536 -111 536 -15 q 471 -229 536 -187 q 289 -271 406 -271 q 108 -228 174 -271 q 42 -111 42 -186 q 70 -33 42 -64 q 153 14 99 -1 l 153 15 q 82 61 107 29 q 57 136 57 93 q 119 253 57 210 q 289 296 182 296 m 289 186 q 218 129 218 186 q 237 88 218 103 q 289 72 256 72 q 342 87 324 72 q 360 129 360 101 q 289 186 360 186 m 289 -161 q 347 -145 326 -161 q 368 -101 368 -129 q 347 -56 368 -72 q 289 -40 326 -40 q 232 -56 253 -40 q 211 -101 211 -72 q 232 -145 211 -129 q 289 -161 253 -161 z "},"₉":{"ha":571,"x_min":32,"x_max":533,"o":"m 271 296 q 465 224 397 296 q 533 13 533 153 q 460 -201 533 -131 q 260 -271 386 -271 q 118 -241 174 -271 q 42 -140 63 -211 l 189 -90 q 210 -131 193 -119 q 265 -143 228 -143 q 342 -109 318 -143 q 365 -19 365 -75 q 364 0 365 -7 l 363 0 q 314 -43 349 -26 q 235 -60 279 -60 q 88 -12 143 -60 q 32 114 32 36 q 96 249 32 201 q 271 296 160 296 m 278 171 q 223 156 242 171 q 204 113 204 140 q 223 72 204 86 q 278 57 242 57 q 332 72 313 57 q 351 113 351 86 q 332 156 351 140 q 278 171 313 171 z "},"⁰":{"ha":574,"x_min":33,"x_max":539,"o":"m 286 454 q 96 524 158 454 q 33 738 33 594 q 96 951 33 881 q 286 1021 158 1021 q 476 951 414 1021 q 539 738 539 881 q 476 524 539 594 q 286 454 414 454 m 286 576 q 350 613 331 576 q 369 738 369 650 q 350 862 369 825 q 286 899 331 899 q 223 862 242 899 q 204 738 204 825 q 223 613 204 650 q 286 576 242 576 z "},"¹":{"ha":414,"x_min":26,"x_max":356,"o":"m 356 1014 l 356 463 l 185 463 l 185 763 q 189 853 185 799 q 26 785 107 790 l 26 925 q 131 959 72 932 q 211 1014 189 986 l 356 1014 z "},"²":{"ha":544,"x_min":21,"x_max":514,"o":"m 40 569 q 164 642 131 621 q 288 744 250 700 q 326 826 326 789 q 310 872 326 856 q 261 889 293 889 q 206 862 225 889 q 186 783 186 835 l 21 828 q 88 970 22 919 q 265 1021 154 1021 q 447 967 388 1021 q 507 840 507 914 q 372 647 507 738 q 265 594 322 615 l 265 592 q 392 597 324 597 l 514 597 l 514 463 l 40 463 l 40 569 z "},"³":{"ha":526,"x_min":13,"x_max":493,"o":"m 261 1021 q 425 980 368 1021 q 482 864 482 939 q 450 776 482 808 q 365 740 418 743 l 365 736 q 459 704 425 735 q 493 618 493 674 q 432 499 493 543 q 267 454 371 454 q 101 488 164 454 q 13 594 38 521 l 172 653 q 254 578 178 578 q 305 594 286 578 q 324 638 324 610 q 254 688 324 688 l 222 688 l 222 778 l 249 778 q 314 833 314 778 q 298 876 314 861 q 253 890 282 890 q 179 818 188 890 l 26 869 q 103 983 39 946 q 261 1021 167 1021 z "},"⁴":{"ha":549,"x_min":15,"x_max":526,"o":"m 526 581 l 443 581 l 443 463 l 294 463 l 294 581 l 15 581 l 15 658 l 239 1015 l 443 1015 l 443 693 l 526 693 l 526 581 m 294 693 l 294 801 q 299 913 294 863 l 294 913 q 251 831 272 864 l 163 693 l 294 693 z "},"⁵":{"ha":535,"x_min":19,"x_max":496,"o":"m 314 817 q 449 772 403 817 q 496 647 496 726 q 431 503 496 551 q 261 454 365 454 q 113 479 172 454 q 19 567 53 504 l 174 635 q 201 591 182 606 q 257 576 221 576 q 313 595 292 576 q 333 644 333 614 q 260 708 333 708 q 213 701 231 708 q 181 676 194 693 l 42 690 l 75 1014 l 472 1014 l 472 886 l 204 886 l 197 819 q 189 785 196 800 l 190 785 q 314 817 225 817 z "},"⁶":{"ha":564,"x_min":38,"x_max":535,"o":"m 297 454 q 104 525 171 454 q 38 738 38 596 q 113 949 38 876 q 311 1021 188 1021 q 447 993 393 1021 q 529 901 501 965 l 397 838 q 369 878 390 864 q 314 893 347 893 q 233 855 263 893 q 204 756 204 817 q 206 740 204 744 l 207 740 q 265 791 231 775 q 350 807 299 807 q 483 763 432 807 q 535 632 535 718 q 473 501 535 547 q 297 454 411 454 m 300 581 q 355 595 336 581 q 374 636 374 610 q 355 679 374 664 q 300 694 336 694 q 245 679 264 694 q 226 636 226 664 q 245 595 226 610 q 300 581 264 581 z "},"⁷":{"ha":493,"x_min":14,"x_max":482,"o":"m 482 1014 l 482 903 q 351 706 389 815 q 314 463 314 596 l 140 463 q 183 685 140 576 q 306 878 225 793 l 14 878 l 14 1014 l 482 1014 z "},"⁸":{"ha":579,"x_min":42,"x_max":536,"o":"m 289 1021 q 458 978 396 1021 q 521 861 521 935 q 497 787 521 818 q 424 740 472 756 l 424 739 q 536 614 536 710 q 471 496 536 538 q 289 454 406 454 q 108 497 174 454 q 42 614 42 539 q 70 692 42 661 q 153 739 99 724 l 153 740 q 82 786 107 754 q 57 861 57 818 q 119 978 57 935 q 289 1021 182 1021 m 289 911 q 218 854 218 911 q 237 813 218 828 q 289 797 256 797 q 342 812 324 797 q 360 854 360 826 q 289 911 360 911 m 289 564 q 347 580 326 564 q 368 624 368 596 q 347 669 368 653 q 289 685 326 685 q 232 669 253 685 q 211 624 211 653 q 232 580 211 596 q 289 564 253 564 z "},"⁹":{"ha":571,"x_min":32,"x_max":533,"o":"m 271 1021 q 465 949 397 1021 q 533 738 533 878 q 460 524 533 594 q 260 454 386 454 q 118 484 174 454 q 42 585 63 514 l 189 635 q 210 594 193 606 q 265 582 228 582 q 342 616 318 582 q 365 706 365 650 q 364 725 365 718 l 363 725 q 314 682 349 699 q 235 665 279 665 q 88 713 143 665 q 32 839 32 761 q 96 974 32 926 q 271 1021 160 1021 m 278 896 q 223 881 242 896 q 204 838 204 865 q 223 797 204 811 q 278 782 242 782 q 332 797 313 782 q 351 838 351 811 q 332 881 351 865 q 278 896 313 896 z "},"*":{"ha":817,"x_min":54,"x_max":764,"o":"m 564 589 l 679 438 l 543 339 l 435 496 l 408 554 l 381 496 l 272 339 l 138 438 l 253 589 l 300 633 l 235 640 l 54 694 l 106 854 l 285 792 l 342 760 l 329 824 l 324 1014 l 492 1014 l 488 824 l 475 760 l 532 792 l 713 854 l 764 694 l 581 640 l 517 633 l 564 589 z "},"\\":{"ha":650,"x_min":21,"x_max":629,"o":"m 240 989 l 629 -97 l 410 -97 l 21 989 l 240 989 z "},"·":{"ha":381,"x_min":51,"x_max":329,"o":"m 190 615 q 292 583 256 615 q 329 490 329 550 q 292 399 329 432 q 190 365 256 365 q 88 399 125 365 q 51 490 51 432 q 88 583 51 550 q 190 615 125 615 z "},"•":{"ha":597,"x_min":85,"x_max":513,"o":"m 299 668 q 455 613 397 668 q 513 463 513 557 q 455 311 513 367 q 299 256 397 256 q 142 311 200 256 q 85 463 85 367 q 142 613 85 557 q 299 668 200 668 z "},":":{"ha":419,"x_min":71,"x_max":349,"o":"m 210 708 q 312 675 275 708 q 349 582 349 642 q 312 490 349 524 q 210 457 275 457 q 108 490 144 457 q 71 582 71 524 q 108 675 71 642 q 210 708 144 708 m 210 239 q 312 206 275 239 q 349 113 349 172 q 312 21 349 54 q 210 -12 275 -12 q 108 21 144 -12 q 71 113 71 54 q 108 206 71 172 q 210 239 144 239 z "},",":{"ha":403,"x_min":50,"x_max":347,"o":"m 197 239 q 309 189 271 239 q 347 60 347 139 q 298 -106 347 -32 q 154 -219 249 -179 l 50 -146 q 160 -83 115 -121 q 222 3 206 -46 l 217 7 q 174 -8 201 -8 q 93 22 128 -8 q 58 108 58 53 q 97 205 58 171 q 197 239 135 239 z "},"…":{"ha":1275,"x_min":69,"x_max":1206,"o":"m 1067 239 q 1169 206 1132 239 q 1206 113 1206 172 q 1169 21 1206 54 q 1067 -12 1132 -12 q 965 21 1001 -12 q 928 113 928 54 q 965 206 928 172 q 1067 239 1001 239 m 638 239 q 740 206 703 239 q 776 113 776 172 q 740 21 776 54 q 638 -12 703 -12 q 535 21 572 -12 q 499 113 499 54 q 535 206 499 172 q 638 239 572 239 m 208 239 q 310 206 274 239 q 347 113 347 172 q 310 21 347 54 q 208 -12 274 -12 q 106 21 143 -12 q 69 113 69 54 q 106 206 69 172 q 208 239 143 239 z "},"!":{"ha":418,"x_min":75,"x_max":343,"o":"m 332 621 l 306 299 l 113 299 l 86 621 l 86 917 l 332 917 l 332 621 m 208 221 q 307 190 271 221 q 343 104 343 160 q 307 19 343 50 q 208 -11 271 -11 q 110 19 146 -11 q 75 104 75 50 q 110 190 75 160 q 208 221 146 221 z "},"¡":{"ha":414,"x_min":74,"x_max":342,"o":"m 207 474 q 109 504 144 474 q 74 590 74 535 q 109 675 74 644 q 207 706 144 706 q 306 675 269 706 q 342 590 342 644 q 306 504 342 535 q 207 474 269 474 m 85 74 l 111 396 l 304 396 l 331 74 l 331 -222 l 85 -222 l 85 74 z "},"#":{"ha":957,"x_min":36,"x_max":919,"o":"m 736 556 l 706 364 l 860 364 l 860 222 l 682 222 l 646 0 l 486 0 l 522 222 l 342 222 l 307 0 l 146 0 l 181 222 l 36 222 l 36 364 l 204 364 l 235 556 l 96 556 l 96 697 l 258 697 l 293 917 l 454 917 l 419 697 l 599 697 l 633 917 l 794 917 l 760 697 l 919 697 l 919 556 l 736 556 m 576 556 l 396 556 l 365 364 l 544 364 l 576 556 z "},".":{"ha":403,"x_min":63,"x_max":340,"o":"m 201 239 q 303 206 267 239 q 340 113 340 172 q 303 21 340 54 q 201 -12 267 -12 q 99 21 136 -12 q 63 113 63 54 q 99 206 63 172 q 201 239 136 239 z "},"?":{"ha":843,"x_min":44,"x_max":785,"o":"m 428 931 q 688 868 592 931 q 785 679 785 806 q 521 417 785 446 l 507 297 l 304 297 l 292 508 q 475 552 419 518 q 531 643 531 586 q 501 714 531 689 q 411 739 471 739 q 314 703 350 739 q 272 599 278 668 l 44 686 q 155 864 61 797 q 428 931 249 931 m 407 224 q 505 193 469 224 q 540 107 540 163 q 505 20 540 51 q 407 -11 469 -11 q 308 20 343 -11 q 272 107 272 51 q 308 193 272 163 q 407 224 343 224 z "},"¿":{"ha":840,"x_min":57,"x_max":797,"o":"m 435 472 q 337 503 372 472 q 301 589 301 533 q 337 676 301 644 q 435 707 372 707 q 534 676 499 707 q 569 589 569 644 q 534 503 569 533 q 435 472 499 472 m 414 -235 q 153 -172 250 -235 q 57 17 57 -110 q 321 279 57 250 l 336 399 l 538 399 l 551 186 q 367 143 422 176 q 313 53 313 110 q 431 -43 313 -43 q 528 -8 492 -43 q 569 96 564 28 l 797 10 q 688 -168 782 -101 q 414 -235 593 -235 z "},"\"":{"ha":621,"x_min":88,"x_max":560,"o":"m 519 557 l 363 557 l 363 942 l 560 942 l 519 557 m 244 557 l 88 557 l 88 942 l 285 942 l 244 557 z "},"'":{"ha":347,"x_min":88,"x_max":285,"o":"m 244 557 l 88 557 l 88 942 l 285 942 l 244 557 z "},";":{"ha":419,"x_min":60,"x_max":357,"o":"m 211 458 q 109 491 146 458 q 72 583 72 524 q 109 675 72 642 q 211 708 146 708 q 313 675 276 708 q 350 583 350 642 q 313 491 350 524 q 211 458 276 458 m 207 239 q 319 189 281 239 q 357 60 357 139 q 308 -106 357 -32 q 164 -219 258 -179 l 60 -146 q 170 -83 125 -121 q 232 3 215 -46 l 226 7 q 183 -8 211 -8 q 103 22 138 -8 q 68 108 68 53 q 106 205 68 171 q 207 239 144 239 z "},"/":{"ha":650,"x_min":21,"x_max":629,"o":"m 240 -97 l 21 -97 l 410 989 l 629 989 l 240 -97 z "},"_":{"ha":749,"x_min":0,"x_max":749,"o":"m 749 -279 l 0 -279 l 0 -92 l 749 -92 l 749 -279 z "},"₍":{"ha":357,"x_min":79,"x_max":358,"o":"m 358 328 q 266 194 293 265 q 239 13 239 124 q 266 -169 239 -99 q 358 -303 293 -240 l 269 -379 q 79 13 79 -246 q 269 404 79 271 l 358 328 z "},"₎":{"ha":357,"x_min":-3,"x_max":276,"o":"m 88 404 q 276 13 276 271 q 88 -379 276 -246 l -3 -303 q 90 -170 63 -242 q 118 13 118 -99 q 90 195 118 124 q -3 328 63 267 l 88 404 z "},"{":{"ha":583,"x_min":57,"x_max":550,"o":"m 401 -1 q 437 -88 401 -61 q 550 -115 472 -115 l 543 -265 q 350 -242 422 -265 q 245 -168 278 -219 q 213 -29 213 -117 l 213 157 q 177 268 213 235 q 57 301 142 301 l 57 454 q 177 488 142 454 q 213 599 213 521 l 213 786 q 245 924 213 872 q 350 999 278 975 q 543 1022 422 1022 l 550 872 q 437 846 472 872 q 401 760 401 819 l 401 550 q 367 440 401 482 q 263 378 332 399 q 367 317 332 358 q 401 207 401 275 l 401 -1 z "},"}":{"ha":583,"x_min":33,"x_max":526,"o":"m 371 599 q 406 488 371 521 q 526 454 442 454 l 526 301 q 406 268 442 301 q 371 157 371 235 l 371 -29 q 338 -168 371 -117 q 233 -242 306 -219 q 40 -265 161 -265 l 33 -115 q 147 -88 111 -115 q 182 -1 182 -61 l 182 207 q 217 317 182 275 q 322 378 253 358 q 217 440 251 399 q 182 550 182 481 l 182 760 q 147 846 182 819 q 33 872 111 872 l 40 1022 q 233 999 161 1022 q 338 924 306 975 q 371 786 371 872 l 371 599 z "},"[":{"ha":543,"x_min":118,"x_max":507,"o":"m 322 825 l 322 -68 l 507 -68 l 507 -233 l 118 -233 l 118 990 l 507 990 l 507 825 l 322 825 z "},"]":{"ha":543,"x_min":36,"x_max":425,"o":"m 425 -233 l 36 -233 l 36 -68 l 221 -68 l 221 825 l 36 825 l 36 990 l 425 990 l 425 -233 z "},"(":{"ha":543,"x_min":93,"x_max":529,"o":"m 529 914 q 358 683 410 807 q 306 379 306 560 q 358 74 306 197 q 529 -157 410 -50 l 418 -265 q 93 379 93 -49 q 175 754 93 593 q 418 1022 257 915 l 529 914 z "},")":{"ha":543,"x_min":14,"x_max":450,"o":"m 125 1022 q 367 753 285 915 q 450 379 450 592 q 125 -265 450 -47 l 14 -157 q 185 73 133 -50 q 236 379 236 196 q 184 683 236 560 q 14 914 132 807 l 125 1022 z "},"⁽":{"ha":357,"x_min":79,"x_max":358,"o":"m 358 1053 q 266 919 293 990 q 239 738 239 849 q 266 556 239 626 q 358 422 293 485 l 269 346 q 79 738 79 479 q 269 1129 79 996 l 358 1053 z "},"⁾":{"ha":357,"x_min":-3,"x_max":276,"o":"m 88 1129 q 276 738 276 996 q 88 346 276 479 l -3 422 q 90 555 63 483 q 118 738 118 626 q 90 920 118 849 q -3 1053 63 992 l 88 1129 z "},"—":{"ha":1397,"x_min":108,"x_max":1289,"o":"m 1289 278 l 108 278 l 108 465 l 1289 465 l 1289 278 z "},"–":{"ha":961,"x_min":108,"x_max":853,"o":"m 853 278 l 108 278 l 108 465 l 853 465 l 853 278 z "},"-":{"ha":733,"x_min":113,"x_max":621,"o":"m 621 275 l 113 275 l 113 468 l 621 468 l 621 275 z "},"­":{"ha":733,"x_min":113,"x_max":621,"o":"m 621 275 l 113 275 l 113 468 l 621 468 l 621 275 z "},"«":{"ha":813,"x_min":49,"x_max":764,"o":"m 260 368 l 428 96 l 222 96 l 49 368 l 222 640 l 428 640 l 260 368 m 596 368 l 764 96 l 558 96 l 385 368 l 558 640 l 764 640 l 596 368 z "},"»":{"ha":813,"x_min":49,"x_max":764,"o":"m 254 640 l 428 368 l 254 96 l 49 96 l 217 368 l 49 640 l 254 640 m 590 640 l 764 368 l 590 96 l 385 96 l 553 368 l 385 640 l 590 640 z "},"‹":{"ha":476,"x_min":49,"x_max":428,"o":"m 260 368 l 428 96 l 222 96 l 49 368 l 222 640 l 428 640 l 260 368 z "},"›":{"ha":476,"x_min":49,"x_max":428,"o":"m 254 640 l 428 368 l 254 96 l 49 96 l 217 368 l 49 640 l 254 640 z "},"„":{"ha":736,"x_min":49,"x_max":679,"o":"m 196 239 q 308 189 269 239 q 346 60 346 139 q 297 -106 346 -32 q 153 -219 247 -179 l 49 -146 q 159 -83 114 -121 q 221 3 204 -46 l 215 7 q 172 -8 200 -8 q 92 22 126 -8 q 57 108 57 53 q 95 205 57 171 q 196 239 133 239 m 529 239 q 641 189 603 239 q 679 60 679 139 q 630 -106 679 -32 q 486 -219 581 -179 l 382 -146 q 492 -83 447 -121 q 554 3 538 -46 l 549 7 q 506 -8 533 -8 q 425 22 460 -8 q 390 108 390 53 q 428 205 390 171 q 529 239 467 239 z "},"“":{"ha":749,"x_min":57,"x_max":694,"o":"m 207 503 q 96 553 135 503 q 57 681 57 603 q 106 847 57 772 q 250 961 156 921 l 354 888 q 182 739 215 833 l 188 735 q 231 750 206 750 q 311 719 276 750 q 346 632 346 689 q 308 537 346 571 q 207 503 269 503 m 547 503 q 436 553 475 503 q 397 681 397 603 q 447 847 397 772 q 590 961 496 921 l 694 888 q 522 739 556 833 l 528 735 q 571 750 546 750 q 651 719 617 750 q 686 632 686 689 q 648 537 686 571 q 547 503 610 503 z "},"”":{"ha":742,"x_min":61,"x_max":692,"o":"m 208 958 q 320 908 282 958 q 358 781 358 858 q 309 615 358 689 q 165 500 260 540 l 61 574 q 235 722 199 625 l 228 726 q 186 711 214 711 q 105 741 140 711 q 69 828 69 771 q 108 924 69 890 q 208 958 146 958 m 542 958 q 653 908 615 958 q 692 781 692 858 q 642 615 692 689 q 499 500 593 540 l 394 574 q 568 722 532 625 l 561 726 q 519 711 547 711 q 438 741 474 711 q 403 828 403 771 q 441 924 403 890 q 542 958 479 958 z "},"‘":{"ha":408,"x_min":57,"x_max":354,"o":"m 207 503 q 96 553 135 503 q 57 681 57 603 q 106 847 57 772 q 250 961 156 921 l 354 888 q 182 739 215 833 l 188 735 q 231 750 206 750 q 311 719 276 750 q 346 632 346 689 q 308 537 346 571 q 207 503 269 503 z "},"’":{"ha":408,"x_min":61,"x_max":358,"o":"m 208 958 q 320 908 282 958 q 358 781 358 858 q 309 615 358 689 q 165 500 260 540 l 61 574 q 235 722 199 625 l 228 726 q 186 711 214 711 q 105 741 140 711 q 69 828 69 771 q 108 924 69 890 q 208 958 146 958 z "},"‚":{"ha":403,"x_min":49,"x_max":346,"o":"m 196 239 q 308 189 269 239 q 346 60 346 139 q 297 -106 346 -32 q 153 -219 247 -179 l 49 -146 q 159 -83 114 -121 q 221 3 204 -46 l 215 7 q 172 -8 200 -8 q 92 22 126 -8 q 57 108 57 53 q 95 205 57 171 q 196 239 133 239 z "}," ":{"ha":397,"x_min":0,"x_max":0,"o":""},"€":{"ha":975,"x_min":35,"x_max":940,"o":"m 940 242 q 812 51 910 117 q 574 -14 714 -14 q 307 65 414 -14 q 161 290 200 144 l 35 290 l 35 399 l 143 399 q 140 458 140 438 q 142 483 140 475 l 35 483 l 35 590 l 153 590 q 294 842 185 753 q 574 931 404 931 q 806 873 708 931 q 935 714 904 815 l 760 631 q 701 731 749 697 q 586 764 653 764 q 448 720 501 764 q 372 590 394 676 l 700 590 l 664 483 l 358 483 l 358 458 q 360 399 358 417 l 644 399 l 610 290 l 382 290 q 581 153 432 153 q 695 189 647 153 q 758 296 743 225 l 940 242 z "},"¢":{"ha":799,"x_min":63,"x_max":761,"o":"m 761 200 q 681 56 751 113 q 490 -11 611 -1 l 490 -139 l 368 -139 l 368 -10 q 141 101 219 8 q 63 347 63 193 q 142 596 63 503 q 368 706 222 689 l 368 833 l 490 833 l 490 706 q 681 637 617 694 q 758 493 746 579 l 582 429 q 490 551 565 522 l 490 142 q 588 260 568 165 l 761 200 m 268 344 q 368 144 268 176 l 368 551 q 293 483 318 533 q 268 344 268 433 z "},"¤":{"ha":897,"x_min":50,"x_max":847,"o":"m 744 458 q 711 315 744 376 l 847 194 l 711 60 l 588 197 q 450 168 528 168 q 308 199 374 168 l 186 60 l 50 194 l 186 315 q 153 458 153 378 q 186 600 153 538 l 50 719 l 186 856 l 310 717 q 450 746 372 746 q 589 717 529 746 l 711 856 l 847 719 l 713 597 q 744 458 744 536 m 450 336 q 533 369 501 336 q 565 458 565 403 q 533 546 565 513 q 450 579 501 579 q 365 546 397 579 q 333 458 333 513 q 365 369 333 403 q 450 336 397 336 z "},"$":{"ha":886,"x_min":35,"x_max":849,"o":"m 388 3 q 176 54 261 11 q 35 175 92 97 l 153 313 q 245 213 183 251 q 388 164 307 175 l 388 375 q 223 419 290 394 q 110 497 156 444 q 65 636 65 549 q 151 824 65 747 q 388 914 236 900 l 388 1039 l 522 1039 l 522 914 q 713 865 639 906 q 849 749 788 824 l 731 615 q 642 712 692 679 q 522 751 592 744 l 522 533 q 683 488 617 514 q 795 408 750 461 q 840 265 840 354 q 753 85 840 154 q 522 3 665 15 l 522 -122 l 388 -122 l 388 3 m 388 747 q 308 714 336 739 q 281 650 281 689 q 308 595 281 615 q 388 561 336 575 l 388 747 m 522 167 q 626 256 626 182 q 600 312 626 292 q 522 346 574 332 l 522 167 z "},"ƒ":{"ha":717,"x_min":-36,"x_max":724,"o":"m 617 846 q 540 819 569 846 q 501 739 511 792 l 475 579 l 663 579 l 663 415 l 447 415 l 388 65 q 297 -115 367 -53 q 114 -178 226 -178 q 30 -170 61 -178 q -36 -140 -1 -162 l -6 8 q 72 -14 25 -14 q 148 13 118 -14 q 186 92 178 40 l 242 415 l 53 415 l 53 579 l 269 579 l 301 767 q 391 947 321 885 q 574 1010 461 1010 q 658 1002 626 1010 q 724 972 689 994 l 693 824 q 617 846 661 846 z "},"£":{"ha":867,"x_min":47,"x_max":828,"o":"m 824 244 q 828 194 828 219 q 776 45 828 104 q 633 -14 725 -14 q 519 8 569 -14 q 411 69 469 29 q 215 -14 335 -14 q 94 21 142 -14 q 47 115 47 56 q 98 210 47 175 q 224 244 149 244 q 326 235 275 244 q 296 356 324 299 l 74 356 l 74 493 l 200 493 q 153 579 167 542 q 140 658 140 617 q 178 795 140 733 q 292 894 217 857 q 471 931 367 931 q 799 688 744 931 l 607 599 q 555 723 588 686 q 464 760 522 760 q 379 731 411 760 q 347 656 347 703 q 360 594 347 626 q 407 514 374 563 q 421 493 413 507 l 692 493 l 692 356 l 485 356 q 492 285 492 318 q 474 176 492 225 q 533 153 506 161 q 590 146 560 146 q 660 174 639 146 q 681 261 682 201 l 824 244 m 221 75 q 311 132 286 75 q 221 154 267 154 q 165 115 165 154 q 181 86 165 97 q 221 75 196 75 z "},"₺":{"ha":985,"x_min":53,"x_max":936,"o":"m 936 421 q 832 110 933 219 q 538 0 731 0 l 197 0 l 197 363 l 53 322 l 53 408 l 197 450 l 197 558 l 53 518 l 53 604 l 197 646 l 197 917 l 433 917 l 433 711 l 676 779 l 676 693 l 433 625 l 433 515 l 676 583 l 676 497 l 433 429 l 433 179 l 513 179 q 707 421 707 179 l 936 421 z "},"₽":{"ha":954,"x_min":44,"x_max":906,"o":"m 400 376 l 400 288 l 651 288 l 651 160 l 400 160 l 400 0 l 164 0 l 164 160 l 44 160 l 44 288 l 164 288 l 164 376 l 44 376 l 44 510 l 164 510 l 164 917 l 551 917 q 815 846 724 917 q 906 646 906 775 q 815 444 906 511 q 551 376 725 376 l 400 376 m 400 510 l 514 510 q 628 538 592 510 q 665 624 665 565 q 628 710 665 683 q 514 738 592 738 l 400 738 l 400 510 z "},"¥":{"ha":942,"x_min":26,"x_max":915,"o":"m 688 424 l 851 424 l 851 340 l 585 340 l 585 249 l 851 249 l 851 168 l 585 168 l 585 0 l 357 0 l 357 168 l 92 168 l 92 249 l 357 249 l 357 340 l 92 340 l 92 424 l 254 424 l 338 418 l 26 917 l 271 917 l 410 631 l 469 489 l 472 489 l 533 632 l 671 917 l 915 917 l 604 418 l 688 424 z "},"≈":{"ha":839,"x_min":81,"x_max":758,"o":"m 263 740 q 348 728 308 740 q 440 692 388 715 q 517 662 489 671 q 574 653 544 653 q 669 669 628 653 q 758 726 711 685 l 758 551 q 674 498 717 515 q 581 481 631 481 q 502 492 539 481 q 413 525 465 503 q 331 556 364 546 q 263 567 297 567 q 164 550 204 567 q 81 493 124 533 l 81 668 q 167 724 128 707 q 263 740 207 740 m 263 415 q 346 403 307 415 q 440 368 385 392 q 513 339 482 349 q 574 329 543 329 q 669 344 628 329 q 758 401 711 360 l 758 228 q 674 173 717 190 q 581 156 631 156 q 502 167 539 156 q 413 200 465 178 q 331 231 364 221 q 263 242 297 242 q 163 225 203 242 q 81 168 124 208 l 81 343 q 166 399 126 383 q 263 415 206 415 z "},"~":{"ha":829,"x_min":60,"x_max":769,"o":"m 769 590 q 706 389 763 457 q 546 321 650 321 q 461 335 496 321 q 389 376 426 350 q 347 401 364 393 q 310 410 329 410 q 265 390 281 410 q 243 328 250 369 l 60 328 q 123 528 67 460 q 283 597 179 597 q 368 583 333 597 q 442 542 403 568 q 483 517 467 525 q 519 508 500 508 q 564 528 549 508 q 586 590 579 549 l 769 590 z "},"÷":{"ha":839,"x_min":69,"x_max":769,"o":"m 421 867 q 508 836 476 867 q 540 751 540 806 q 508 667 540 697 q 421 636 476 636 q 333 667 365 636 q 301 751 301 697 q 333 836 301 806 q 421 867 365 867 m 769 367 l 69 367 l 69 536 l 769 536 l 769 367 m 421 269 q 508 239 476 269 q 540 154 540 208 q 508 69 540 100 q 421 39 476 39 q 333 69 365 39 q 301 154 301 100 q 333 239 301 208 q 421 269 365 269 z "},"=":{"ha":839,"x_min":90,"x_max":749,"o":"m 749 508 l 90 508 l 90 671 l 749 671 l 749 508 m 749 208 l 90 208 l 90 371 l 749 371 l 749 208 z "},"₌":{"ha":563,"x_min":76,"x_max":488,"o":"m 76 185 l 488 185 l 488 61 l 76 61 l 76 185 m 76 -29 l 488 -29 l 488 -153 l 76 -153 l 76 -29 z "},"⁼":{"ha":563,"x_min":76,"x_max":488,"o":"m 76 910 l 488 910 l 488 786 l 76 786 l 76 910 m 76 696 l 488 696 l 488 572 l 76 572 l 76 696 z "},">":{"ha":839,"x_min":71,"x_max":751,"o":"m 751 514 l 751 310 l 71 7 l 71 231 l 585 413 l 71 593 l 71 817 l 751 514 z "},"≥":{"ha":839,"x_min":75,"x_max":754,"o":"m 754 699 l 754 435 l 75 225 l 75 424 l 638 568 l 75 711 l 75 910 l 754 699 m 75 171 l 754 171 l 754 0 l 75 0 l 75 171 z "},"∞":{"ha":1308,"x_min":54,"x_max":1254,"o":"m 989 729 q 1179 653 1104 729 q 1254 413 1254 578 q 1176 170 1254 244 q 967 96 1099 96 q 804 136 879 96 q 628 276 729 176 q 506 158 553 196 q 417 108 458 121 q 318 96 376 96 q 128 172 203 96 q 54 413 54 247 q 129 653 54 578 q 319 729 204 729 q 494 693 413 729 q 681 550 575 657 q 811 669 758 631 q 901 718 864 707 q 989 729 939 729 m 975 333 q 1056 366 1029 333 q 1083 461 1083 399 q 1059 554 1083 522 q 989 586 1035 586 q 939 577 963 586 q 878 538 915 568 q 781 443 842 507 q 883 358 838 383 q 975 333 928 333 m 322 239 q 372 248 349 239 q 430 288 394 257 q 526 383 465 318 q 422 469 463 447 q 331 492 381 492 q 253 460 282 492 q 225 364 225 429 q 251 270 225 301 q 322 239 278 239 z "},"∫":{"ha":664,"x_min":8,"x_max":656,"o":"m 494 1053 q 656 1011 597 1053 l 636 863 q 547 889 603 889 q 469 865 497 889 q 440 789 440 842 l 440 72 q 365 -115 440 -51 q 171 -178 289 -178 q 76 -167 114 -178 q 8 -136 38 -156 l 28 13 q 66 -8 46 -1 q 117 -14 86 -14 q 224 86 224 -14 l 224 803 q 300 990 224 926 q 494 1053 376 1053 z "},"<":{"ha":839,"x_min":88,"x_max":768,"o":"m 768 593 l 253 413 l 768 231 l 768 7 l 88 310 l 88 514 l 768 817 l 768 593 z "},"≤":{"ha":839,"x_min":85,"x_max":764,"o":"m 764 711 l 200 567 l 764 424 l 764 225 l 85 435 l 85 699 l 764 910 l 764 711 m 85 171 l 764 171 l 764 0 l 85 0 l 85 171 z "},"¬":{"ha":839,"x_min":83,"x_max":756,"o":"m 756 536 l 756 135 l 565 135 l 565 367 l 83 367 l 83 536 l 756 536 z "},"−":{"ha":839,"x_min":83,"x_max":756,"o":"m 756 361 l 83 361 l 83 540 l 756 540 l 756 361 z "},"₋":{"ha":490,"x_min":44,"x_max":446,"o":"m 44 76 l 446 76 l 446 -51 l 44 -51 l 44 76 z "},"⁻":{"ha":490,"x_min":44,"x_max":446,"o":"m 44 801 l 446 801 l 446 674 l 44 674 l 44 801 z "},"×":{"ha":839,"x_min":75,"x_max":764,"o":"m 547 453 l 764 236 l 636 108 l 419 325 l 203 108 l 75 236 l 292 453 l 75 669 l 203 797 l 419 581 l 636 797 l 764 669 l 547 453 z "},"≠":{"ha":839,"x_min":78,"x_max":761,"o":"m 529 521 l 456 358 l 761 358 l 761 199 l 383 199 l 310 38 l 163 38 l 235 199 l 78 199 l 78 358 l 307 358 l 381 521 l 78 521 l 78 679 l 453 679 l 529 847 l 678 847 l 601 679 l 761 679 l 761 521 l 529 521 z "},"∂":{"ha":917,"x_min":89,"x_max":835,"o":"m 433 931 q 732 813 629 931 q 835 474 835 694 q 731 103 835 221 q 421 -14 626 -14 q 255 21 331 -14 q 134 124 179 56 q 89 286 89 192 q 132 445 89 378 q 248 549 175 513 q 408 585 321 585 q 533 555 479 585 q 618 468 586 525 q 554 678 611 615 q 400 740 497 740 q 297 723 342 740 q 207 665 251 706 l 108 814 q 256 903 183 875 q 433 931 329 931 m 457 168 q 607 308 576 168 q 554 387 592 356 q 458 418 517 418 q 364 385 397 418 q 331 293 331 351 q 363 201 331 233 q 457 168 396 168 z "},"%":{"ha":1303,"x_min":42,"x_max":1260,"o":"m 300 931 q 488 859 417 931 q 558 669 558 788 q 488 480 558 551 q 300 408 417 408 q 113 480 183 408 q 42 669 42 551 q 113 859 42 788 q 300 931 183 931 m 881 918 l 1061 918 l 424 0 l 243 0 l 881 918 m 300 772 q 240 745 261 772 q 218 669 218 718 q 240 594 218 621 q 300 567 261 567 q 362 594 340 567 q 383 669 383 621 q 362 745 383 718 q 300 772 340 772 m 1001 508 q 1189 437 1118 508 q 1260 247 1260 365 q 1189 58 1260 129 q 1001 -14 1118 -14 q 814 58 885 -14 q 743 247 743 129 q 814 437 743 365 q 1001 508 885 508 m 1001 350 q 940 323 961 350 q 918 247 918 296 q 940 172 918 199 q 1001 144 961 144 q 1063 172 1042 144 q 1085 247 1085 199 q 1063 323 1085 296 q 1001 350 1042 350 z "},"‰":{"ha":1883,"x_min":42,"x_max":1840,"o":"m 300 931 q 488 859 417 931 q 558 669 558 788 q 488 480 558 551 q 300 408 417 408 q 113 480 183 408 q 42 669 42 551 q 113 859 42 788 q 300 931 183 931 m 881 918 l 1061 918 l 424 0 l 243 0 l 881 918 m 300 772 q 240 745 261 772 q 218 669 218 718 q 240 594 218 621 q 300 567 261 567 q 362 594 340 567 q 383 669 383 621 q 362 745 383 718 q 300 772 340 772 m 1001 508 q 1189 437 1118 508 q 1260 247 1260 365 q 1189 58 1260 129 q 1001 -14 1118 -14 q 814 58 885 -14 q 743 247 743 129 q 814 437 743 365 q 1001 508 885 508 m 1582 508 q 1769 437 1699 508 q 1840 247 1840 365 q 1769 58 1840 129 q 1582 -14 1699 -14 q 1394 58 1465 -14 q 1324 247 1324 129 q 1394 437 1324 365 q 1582 508 1465 508 m 1001 350 q 940 323 961 350 q 918 247 918 296 q 940 172 918 199 q 1001 144 961 144 q 1063 172 1042 144 q 1085 247 1085 199 q 1063 323 1085 296 q 1001 350 1042 350 m 1582 350 q 1520 323 1542 350 q 1499 247 1499 296 q 1520 172 1499 199 q 1582 144 1542 144 q 1644 172 1622 144 q 1665 247 1665 199 q 1644 323 1665 296 q 1582 350 1622 350 z "},"+":{"ha":839,"x_min":71,"x_max":768,"o":"m 768 367 l 514 367 l 514 83 l 326 83 l 326 367 l 71 367 l 71 536 l 326 536 l 326 818 l 514 818 l 514 536 l 768 536 l 768 367 z "},"₊":{"ha":490,"x_min":32,"x_max":458,"o":"m 458 -46 l 310 -46 l 310 -200 l 183 -200 l 183 -46 l 32 -46 l 32 72 l 183 72 l 183 226 l 310 226 l 310 72 l 458 72 l 458 -46 z "},"±":{"ha":839,"x_min":71,"x_max":768,"o":"m 768 663 l 768 500 l 506 500 l 506 257 l 335 257 l 335 500 l 71 500 l 71 663 l 335 663 l 335 906 l 506 906 l 506 663 l 768 663 m 71 160 l 768 160 l 768 1 l 71 1 l 71 160 z "},"⁺":{"ha":490,"x_min":32,"x_max":458,"o":"m 458 679 l 310 679 l 310 525 l 183 525 l 183 679 l 32 679 l 32 797 l 183 797 l 183 951 l 310 951 l 310 797 l 458 797 l 458 679 z "},"∏":{"ha":969,"x_min":92,"x_max":876,"o":"m 876 -178 l 654 -178 l 654 732 l 314 732 l 314 -178 l 92 -178 l 92 917 l 876 917 l 876 -178 z "},"√":{"ha":954,"x_min":21,"x_max":1013,"o":"m 1013 1136 l 572 0 l 338 0 l 163 443 l 21 443 l 21 622 l 286 622 l 401 322 l 456 156 l 513 336 l 811 1136 l 1013 1136 z "},"∑":{"ha":935,"x_min":78,"x_max":854,"o":"m 854 740 l 333 740 l 690 392 l 690 349 l 331 -10 l 854 -10 l 854 -178 l 78 -178 l 78 -10 l 450 371 l 78 740 l 78 917 l 854 917 l 854 740 z "},"µ":{"ha":857,"x_min":81,"x_max":776,"o":"m 776 694 l 776 0 l 568 0 l 560 128 q 347 -14 501 -14 q 317 -12 326 -14 l 317 -292 l 81 -292 l 81 694 l 317 694 l 317 290 q 341 194 317 222 q 414 167 365 167 q 502 201 469 167 q 540 301 535 235 l 540 694 l 776 694 z "},"Ω":{"ha":1081,"x_min":82,"x_max":999,"o":"m 999 161 l 999 0 l 594 0 l 594 161 q 747 453 747 186 q 694 668 747 593 q 540 743 640 743 q 387 669 440 743 q 333 453 333 594 q 485 161 333 186 l 485 0 l 82 0 l 82 161 l 286 161 q 141 290 192 207 q 90 489 90 374 q 144 724 90 624 q 300 877 199 824 q 540 931 401 931 q 779 877 678 931 q 935 724 881 824 q 989 489 989 624 q 938 290 989 374 q 793 161 888 207 l 999 161 z "},"∆":{"ha":1018,"x_min":56,"x_max":963,"o":"m 963 144 l 963 0 l 56 0 l 56 144 l 388 917 l 631 917 l 963 144 m 246 167 l 774 167 l 508 779 l 246 167 z "},"∕":{"ha":365,"x_min":-232,"x_max":597,"o":"m 431 918 l 597 918 l -65 0 l -232 0 l 431 918 z "},"∙":{"ha":381,"x_min":51,"x_max":329,"o":"m 190 601 q 292 568 256 601 q 329 475 329 535 q 292 383 329 417 q 190 350 256 350 q 88 383 125 350 q 51 475 51 417 q 88 568 51 535 q 190 601 125 601 z "},"↑":{"ha":1042,"x_min":39,"x_max":1000,"o":"m 524 925 q 722 712 608 808 q 1000 515 835 615 l 878 339 q 619 581 717 444 q 638 326 638 451 l 638 0 l 401 0 l 401 326 q 419 581 401 451 q 161 339 322 444 l 39 515 q 317 712 204 615 q 515 925 431 808 l 524 925 z "},"↗":{"ha":1042,"x_min":135,"x_max":899,"o":"m 893 847 q 872 506 872 671 q 899 169 872 322 l 689 160 q 685 271 685 217 q 713 538 685 406 q 517 326 631 438 l 285 94 l 135 244 l 367 476 q 579 672 493 603 q 311 644 447 644 q 200 649 257 644 l 210 858 q 546 832 363 832 q 888 853 711 832 l 893 847 z "},"→":{"ha":1042,"x_min":76,"x_max":1001,"o":"m 592 940 q 788 662 692 775 q 1001 464 885 549 l 1001 456 q 788 258 885 371 q 592 -21 692 144 l 415 101 q 657 360 519 260 q 403 342 531 342 l 76 342 l 76 578 l 403 578 q 657 560 531 578 q 415 818 519 660 l 592 940 z "},"↘":{"ha":1042,"x_min":128,"x_max":892,"o":"m 892 797 q 865 461 865 644 q 886 119 865 296 l 881 114 q 539 135 704 135 q 203 108 356 135 l 193 318 q 303 322 250 322 q 571 294 439 322 q 360 490 485 365 l 128 722 l 278 872 l 510 640 q 706 429 624 529 q 678 697 678 561 q 682 807 678 751 l 892 797 z "},"↓":{"ha":1042,"x_min":42,"x_max":1003,"o":"m 1003 401 q 724 205 838 301 q 526 -8 611 108 l 518 -8 q 320 205 433 108 q 42 401 207 301 l 164 578 q 422 336 322 474 q 404 590 404 463 l 404 917 l 640 917 l 640 590 q 622 336 640 463 q 881 578 722 474 l 1003 401 z "},"↙":{"ha":1042,"x_min":150,"x_max":914,"o":"m 471 294 q 739 322 603 322 q 849 318 792 322 l 839 108 q 503 135 686 135 q 161 114 338 135 l 156 119 q 176 461 176 296 q 150 797 176 644 l 360 807 q 364 697 364 751 q 336 429 364 561 q 532 640 418 529 l 764 872 l 914 722 l 682 490 q 471 294 557 365 z "},"←":{"ha":1042,"x_min":40,"x_max":965,"o":"m 965 578 l 965 342 l 639 342 q 385 360 511 342 q 626 101 522 260 l 450 -21 q 253 258 350 144 q 40 456 157 371 l 40 464 q 253 662 157 549 q 450 940 350 775 l 626 818 q 385 560 522 660 q 639 578 511 578 l 965 578 z "},"↖":{"ha":1042,"x_min":143,"x_max":907,"o":"m 907 244 l 757 94 l 525 326 q 329 538 411 438 q 357 269 357 406 q 353 160 357 217 l 143 169 q 169 506 169 322 q 149 847 169 671 l 154 853 q 496 832 331 832 q 832 858 679 832 l 842 649 q 732 644 786 644 q 464 672 596 644 q 675 476 550 601 l 907 244 z "},"↔":{"ha":1525,"x_min":40,"x_max":1485,"o":"m 1075 965 q 1272 687 1175 800 q 1485 490 1369 574 l 1485 482 q 1272 284 1368 397 q 1075 6 1175 171 l 894 122 q 1139 385 999 282 q 908 368 1015 368 l 617 368 q 386 385 510 368 q 631 122 526 282 l 450 6 q 253 284 350 171 q 40 482 157 397 l 40 490 q 253 687 156 574 q 450 965 350 800 l 631 849 q 388 588 526 690 q 617 604 508 604 l 908 604 q 1138 588 1017 604 q 894 849 999 690 l 1075 965 z "},"↕":{"ha":1042,"x_min":40,"x_max":1000,"o":"m 621 82 q 883 326 721 219 l 1000 146 q 722 -51 835 46 q 525 -264 608 -149 l 517 -264 q 319 -51 432 -147 q 40 146 206 46 l 157 326 q 419 82 319 219 q 403 313 403 190 l 403 604 q 419 835 403 726 q 157 590 319 697 l 40 771 q 319 967 206 871 q 517 1181 432 1064 l 525 1181 q 722 968 608 1065 q 1000 771 835 871 l 883 590 q 621 835 721 697 q 639 604 639 718 l 639 313 q 621 82 639 200 z "},"●":{"ha":833,"x_min":56,"x_max":778,"o":"m 417 -14 q 233 33 315 -14 q 103 163 150 81 q 56 347 56 246 q 103 531 56 449 q 233 661 150 614 q 417 708 315 708 q 601 661 518 708 q 731 531 683 614 q 778 347 778 449 q 731 163 778 246 q 601 33 683 81 q 417 -14 518 -14 z "},"○":{"ha":833,"x_min":44,"x_max":789,"o":"m 417 -14 q 227 33 313 -14 q 93 163 142 81 q 44 347 44 246 q 93 531 44 449 q 227 661 142 614 q 417 708 313 708 q 606 661 521 708 q 740 531 692 614 q 789 347 789 449 q 740 163 789 246 q 606 33 692 81 q 417 -14 521 -14 m 417 144 q 558 203 501 144 q 615 347 615 261 q 558 492 615 433 q 417 550 501 550 q 275 492 332 550 q 218 347 218 433 q 275 203 218 261 q 417 144 332 144 z "},"◆":{"ha":833,"x_min":49,"x_max":785,"o":"m 49 360 l 417 728 l 785 360 l 417 -8 l 49 360 z "},"◇":{"ha":833,"x_min":49,"x_max":785,"o":"m 49 360 l 417 728 l 785 360 l 417 -8 l 49 360 m 590 360 l 417 533 l 243 360 l 417 186 l 590 360 z "},"◊":{"ha":907,"x_min":65,"x_max":842,"o":"m 842 458 l 574 0 l 332 0 l 65 458 l 332 917 l 574 917 l 842 458 m 621 458 l 453 786 l 286 458 l 453 131 l 621 458 z "},"▪":{"ha":833,"x_min":69,"x_max":764,"o":"m 764 694 l 764 0 l 69 0 l 69 694 l 764 694 z "},"▫":{"ha":833,"x_min":61,"x_max":772,"o":"m 61 694 l 772 694 l 772 0 l 61 0 l 61 694 m 604 153 l 604 542 l 229 542 l 229 153 l 604 153 z "},"❛":{"ha":972,"x_min":82,"x_max":894,"o":"m 867 779 q 478 728 607 779 q 293 579 349 678 l 303 574 q 397 625 346 608 q 533 642 449 642 q 719 606 638 642 q 848 497 801 569 q 894 322 894 425 q 792 71 894 156 q 504 -14 689 -14 q 185 94 289 -14 q 82 386 82 201 q 793 924 82 924 l 867 779 z "},"❜":{"ha":972,"x_min":78,"x_max":890,"o":"m 106 -43 q 494 8 365 -43 q 679 157 624 58 l 669 163 q 575 111 626 128 q 439 94 524 94 q 253 131 335 94 q 124 239 171 167 q 78 414 78 311 q 181 665 78 581 q 468 750 283 750 q 787 642 683 750 q 890 350 890 535 q 179 -187 890 -187 l 106 -43 z "},"❝":{"ha":1714,"x_min":82,"x_max":1636,"o":"m 1275 642 q 1461 606 1379 642 q 1590 497 1543 569 q 1636 322 1636 425 q 1533 71 1636 156 q 1246 -14 1431 -14 q 1008 35 1101 -14 q 868 176 914 85 q 736 34 829 82 q 504 -14 643 -14 q 185 94 289 -14 q 82 386 82 201 q 793 924 82 924 l 867 779 q 478 728 607 779 q 293 579 349 678 l 303 574 q 397 625 346 608 q 533 642 449 642 q 710 610 632 642 q 835 515 789 578 q 1535 924 915 924 l 1608 779 q 1219 728 1349 779 q 1035 579 1090 678 l 1044 574 q 1139 625 1088 608 q 1275 642 1190 642 z "},"❞":{"ha":1714,"x_min":78,"x_max":1632,"o":"m 1210 750 q 1528 642 1425 750 q 1632 350 1632 535 q 921 -187 1632 -187 l 847 -43 q 1236 8 1107 -43 q 1421 157 1365 58 l 1411 163 q 1317 111 1368 128 q 1181 94 1265 94 q 1005 126 1083 94 q 879 221 926 158 q 179 -187 799 -187 l 106 -43 q 494 8 365 -43 q 679 157 624 58 l 669 163 q 575 111 626 128 q 439 94 524 94 q 253 131 335 94 q 124 239 171 167 q 78 414 78 311 q 181 665 78 581 q 468 750 283 750 q 706 701 613 750 q 846 560 800 651 q 978 702 885 654 q 1210 750 1071 750 z "},"❡":{"ha":1028,"x_min":72,"x_max":943,"o":"m 943 136 q 897 -77 943 21 q 744 -237 850 -175 q 468 -299 638 -299 q 199 -228 290 -299 q 108 -35 108 -157 q 114 31 108 1 l 250 67 q 243 0 243 36 q 279 -110 243 -72 q 374 -147 315 -147 q 457 -107 432 -147 q 482 8 482 -67 l 482 265 l 429 265 q 252 303 333 265 q 122 415 171 342 q 72 588 72 488 q 118 759 72 685 q 251 875 164 833 q 460 917 339 917 l 943 917 l 943 136 m 658 761 l 658 36 q 574 -162 658 -115 l 578 -168 q 719 -74 676 -146 q 763 113 763 -1 l 763 761 l 658 761 z "},"|":{"ha":444,"x_min":118,"x_max":326,"o":"m 326 -233 l 118 -233 l 118 990 l 326 990 l 326 -233 z "},"¦":{"ha":378,"x_min":85,"x_max":293,"o":"m 293 463 l 85 463 l 85 990 l 293 990 l 293 463 m 293 -233 l 85 -233 l 85 294 l 293 294 l 293 -233 z "},"@":{"ha":1314,"x_min":68,"x_max":1243,"o":"m 685 917 q 983 850 857 917 q 1176 658 1108 783 q 1243 361 1243 533 q 1203 160 1243 242 q 1096 39 1163 78 q 951 0 1029 0 q 831 31 879 0 q 758 118 782 63 q 544 3 682 3 q 381 76 442 3 q 319 265 319 149 q 363 475 319 389 q 478 605 406 561 q 640 649 551 649 q 747 617 708 649 q 796 542 785 585 l 825 636 l 994 636 l 932 238 q 929 197 929 222 q 947 138 929 157 q 1004 119 964 119 q 1099 182 1063 119 q 1135 361 1135 244 q 1015 696 1135 579 q 685 813 896 813 q 423 752 536 813 q 248 578 310 692 q 186 310 186 464 q 248 60 186 164 q 413 -99 310 -44 q 636 -153 515 -153 q 803 -133 742 -153 q 915 -74 864 -112 l 975 -157 q 831 -231 906 -206 q 632 -256 756 -256 q 341 -187 469 -256 q 140 8 213 -119 q 68 310 68 136 q 147 627 68 489 q 365 841 225 765 q 685 917 506 917 m 667 496 q 563 441 604 496 q 522 293 522 386 q 547 197 522 231 q 618 164 571 164 q 694 191 661 164 q 735 268 728 218 l 750 381 q 751 408 751 390 q 667 496 751 496 z "},"&":{"ha":897,"x_min":35,"x_max":892,"o":"m 871 -14 q 740 3 793 -14 q 621 72 686 19 q 506 8 574 31 q 357 -14 439 -14 q 124 51 213 -14 q 35 235 36 117 q 78 377 35 310 q 222 482 121 444 q 147 595 167 549 q 128 697 128 642 q 159 810 128 757 q 253 897 190 864 q 407 931 315 931 q 610 869 539 931 q 682 714 682 808 q 483 463 682 543 q 549 390 526 415 l 642 290 q 674 471 678 368 l 831 467 q 742 194 831 304 q 800 160 772 171 q 860 150 828 150 q 892 151 881 150 l 871 -14 m 413 775 q 351 752 374 775 q 329 689 329 729 q 344 633 329 661 q 403 553 358 606 q 476 625 458 592 q 494 700 494 658 q 473 756 494 736 q 413 775 451 775 m 381 142 q 515 169 453 142 l 435 253 q 314 379 351 339 q 253 317 269 346 q 238 251 238 289 q 277 172 238 203 q 381 142 317 142 z "},"¶":{"ha":1028,"x_min":47,"x_max":936,"o":"m 936 -139 l 744 -139 l 744 736 l 594 736 l 594 -139 l 401 -139 l 401 321 q 138 398 229 322 q 47 618 47 474 q 143 841 47 765 q 431 917 239 917 l 936 917 l 936 -139 z "},"©":{"ha":1072,"x_min":58,"x_max":1014,"o":"m 536 931 q 788 872 679 931 q 955 707 896 814 q 1014 458 1014 600 q 955 210 1014 317 q 788 44 896 103 q 536 -14 679 -14 q 285 44 393 -14 q 117 210 176 103 q 58 458 58 317 q 117 707 58 600 q 285 872 176 814 q 536 931 393 931 m 536 814 q 349 770 429 814 q 226 646 269 726 q 182 458 182 565 q 226 271 182 351 q 349 147 269 190 q 536 103 429 103 q 723 147 643 103 q 847 271 803 190 q 890 458 890 351 q 847 646 890 565 q 723 770 803 726 q 536 814 643 814 m 531 722 q 781 569 728 722 l 647 504 q 610 548 633 535 q 546 561 586 561 q 474 535 499 561 q 449 457 449 508 q 474 380 449 407 q 546 353 499 353 q 614 367 589 353 q 653 415 639 381 l 779 353 q 689 229 744 267 q 531 192 633 192 q 350 263 417 192 q 283 457 283 335 q 350 651 283 579 q 531 722 417 722 z "},"®":{"ha":1072,"x_min":58,"x_max":1014,"o":"m 536 931 q 788 872 679 931 q 955 707 896 814 q 1014 458 1014 600 q 955 210 1014 317 q 788 44 896 103 q 536 -14 679 -14 q 285 44 393 -14 q 117 210 176 103 q 58 458 58 317 q 117 707 58 600 q 285 872 176 814 q 536 931 393 931 m 536 103 q 723 147 643 103 q 847 271 803 190 q 890 458 890 351 q 847 646 890 565 q 723 770 803 726 q 536 814 643 814 q 349 770 429 814 q 226 646 269 726 q 182 458 182 565 q 226 271 182 351 q 349 147 269 190 q 536 103 429 103 m 764 550 q 735 453 764 493 q 654 397 706 414 l 775 210 l 607 210 l 517 383 l 478 383 l 478 210 l 338 210 l 338 715 l 582 715 q 712 669 660 715 q 764 550 764 622 m 478 479 l 549 479 q 621 539 621 479 q 549 599 621 599 l 478 599 l 478 479 z "},"§":{"ha":865,"x_min":33,"x_max":833,"o":"m 833 386 q 729 183 833 260 q 751 83 751 143 q 665 -90 751 -26 q 429 -153 579 -153 q 235 -120 310 -153 q 106 -19 161 -87 l 228 94 q 308 23 263 44 q 426 1 353 1 q 538 16 501 1 q 575 63 575 31 q 534 119 575 99 q 386 150 493 139 q 117 224 200 168 q 33 381 33 279 q 138 582 33 510 q 115 682 115 625 q 154 812 115 756 q 267 899 193 868 q 442 931 342 931 q 634 898 563 931 q 761 797 706 865 l 640 685 q 558 755 603 733 q 442 776 514 776 q 331 757 369 776 q 292 704 292 738 q 333 648 292 668 q 481 617 374 628 q 750 543 667 599 q 833 386 833 488 m 201 415 q 244 358 201 378 q 396 328 286 339 q 610 282 538 313 q 665 351 665 308 q 623 408 665 388 q 471 439 581 428 q 256 485 338 451 q 201 415 201 458 z "},"™":{"ha":1150,"x_min":31,"x_max":1092,"o":"m 453 814 l 311 814 l 311 458 l 172 458 l 172 814 l 31 814 l 31 917 l 453 917 l 453 814 m 1092 917 l 1092 458 l 956 458 l 956 639 l 963 781 l 960 781 l 932 683 l 858 458 l 747 458 l 671 685 l 644 781 l 642 781 l 649 639 l 649 458 l 511 458 l 511 917 l 710 917 l 778 707 l 801 618 l 806 618 l 828 707 l 897 917 l 1092 917 z "},"°":{"ha":688,"x_min":64,"x_max":625,"o":"m 344 414 q 140 484 215 414 q 64 672 64 554 q 140 860 64 790 q 344 931 215 931 q 549 860 472 931 q 625 672 625 790 q 549 484 625 554 q 344 414 472 414 m 344 565 q 423 596 393 565 q 453 674 453 626 q 422 751 453 721 q 344 781 392 781 q 265 751 296 781 q 235 674 235 721 q 265 595 235 625 q 344 565 296 565 z "},"℮":{"ha":1076,"x_min":69,"x_max":1010,"o":"m 542 931 q 888 798 765 931 q 1007 413 1010 665 l 271 413 l 271 194 q 397 109 321 139 q 568 79 474 79 q 797 134 697 79 q 968 311 896 189 l 968 182 q 809 35 914 85 q 569 -14 704 -14 q 301 44 414 -14 q 129 209 189 103 q 69 458 69 315 q 128 707 69 600 q 293 872 186 814 q 542 931 400 931 m 543 838 q 271 724 363 838 l 271 507 l 813 507 l 813 731 q 543 838 719 838 z "},"ℓ":{"ha":624,"x_min":51,"x_max":560,"o":"m 443 140 q 509 144 483 140 q 560 158 535 149 l 550 11 q 392 -14 483 -14 q 201 38 260 -14 q 143 206 143 89 l 143 253 q 51 235 106 242 l 51 350 q 143 365 113 358 l 143 693 q 194 869 143 808 q 360 931 244 931 q 517 876 474 931 q 560 725 560 821 q 506 519 560 617 q 357 353 451 422 l 357 231 q 376 163 357 186 q 443 140 396 140 m 406 811 q 368 789 379 811 q 357 719 357 767 l 357 482 q 451 733 451 582 q 441 793 451 775 q 406 811 431 811 z "},"^":{"ha":850,"x_min":35,"x_max":817,"o":"m 608 493 l 425 854 l 243 493 l 35 493 l 325 1006 l 525 1006 l 817 493 l 608 493 z "},"†":{"ha":826,"x_min":47,"x_max":779,"o":"m 779 461 l 522 461 l 522 -139 l 303 -139 l 303 461 l 47 461 l 47 642 l 303 642 l 303 917 l 522 917 l 522 642 l 779 642 l 779 461 z "},"‡":{"ha":826,"x_min":47,"x_max":779,"o":"m 522 461 l 522 317 l 779 317 l 779 136 l 522 136 l 522 -139 l 303 -139 l 303 136 l 47 136 l 47 317 l 303 317 l 303 461 l 47 461 l 47 642 l 303 642 l 303 917 l 522 917 l 522 642 l 779 642 l 779 461 l 522 461 z "},"":{"ha":1569,"x_min":32,"x_max":1524,"o":"m 1514 418 l 1439 390 l 1504 357 l 1431 329 l 1489 289 l 1404 275 l 1457 228 l 1365 224 l 1414 179 l 1329 174 q 1290 153 1310 161 l 1290 40 q 1250 0 1290 0 l 1186 0 q 1146 32 1146 0 q 1186 67 1146 67 l 1201 67 l 1201 121 q 1110 107 1163 111 l 1110 40 q 1069 0 1110 0 l 1006 0 q 965 32 965 0 q 1006 67 965 67 l 1021 67 l 1021 104 l 707 104 l 707 40 q 667 0 707 0 l 603 0 q 561 32 561 0 q 572 58 561 49 q 603 67 583 67 l 619 67 l 619 104 l 497 104 l 497 40 q 456 0 497 0 l 394 0 q 351 32 351 0 q 394 67 351 67 l 408 67 l 408 118 q 217 156 308 122 q 74 244 125 190 q 44 258 56 246 q 32 288 32 269 q 44 318 32 306 q 75 331 57 331 l 79 331 q 182 440 136 365 q 228 581 228 515 l 219 663 l 275 638 l 265 718 l 322 686 l 322 765 l 382 721 l 382 799 l 442 760 l 446 840 l 504 792 l 514 874 l 572 821 l 581 897 l 642 846 l 663 925 l 713 867 l 731 940 l 783 881 l 807 953 l 851 889 l 885 958 l 929 896 l 972 972 l 1010 890 l 1063 958 l 1090 878 l 1150 951 l 1164 863 l 1243 926 l 1232 836 l 1321 883 l 1290 800 l 1378 822 l 1342 757 l 1431 763 l 1381 707 l 1478 707 l 1411 639 l 1510 639 l 1440 585 l 1518 567 l 1443 521 l 1524 494 l 1446 460 l 1514 418 m 464 356 q 517 385 497 363 q 536 439 536 408 q 513 499 536 476 q 456 522 489 522 q 392 496 418 522 l 403 474 q 454 496 426 496 q 500 464 488 496 q 506 436 506 451 q 451 374 506 390 l 464 356 m 294 344 q 345 364 326 344 q 365 418 364 383 l 340 418 q 328 388 340 399 q 294 376 315 376 q 260 388 272 376 q 247 418 247 399 l 222 418 q 242 365 222 385 q 294 344 263 344 z "},"̦":{"ha":0,"x_min":-485,"x_max":-233,"o":"m -332 -335 l -485 -335 l -440 -83 l -233 -83 l -332 -335 z "},"ˉ":{"ha":694,"x_min":89,"x_max":606,"o":"m 606 790 l 89 790 l 89 936 l 606 936 l 606 790 z "},"´":{"ha":694,"x_min":254,"x_max":567,"o":"m 567 1025 l 426 785 l 254 785 l 347 1025 l 567 1025 z "},"˘":{"ha":694,"x_min":113,"x_max":582,"o":"m 582 997 q 519 831 582 892 q 347 771 457 771 q 175 831 238 771 q 113 997 113 892 l 265 997 q 288 928 265 954 q 347 903 310 903 q 407 928 385 903 q 429 997 429 954 l 582 997 z "},"ˇ":{"ha":694,"x_min":82,"x_max":613,"o":"m 463 785 l 232 785 l 82 1025 l 253 1025 l 347 904 l 442 1025 l 613 1025 l 463 785 z "},"¸":{"ha":694,"x_min":172,"x_max":543,"o":"m 311 51 q 483 -15 422 36 q 543 -135 543 -65 q 489 -256 543 -214 q 344 -299 435 -299 q 172 -243 232 -299 l 226 -133 q 326 -172 265 -172 q 382 -154 361 -172 q 403 -104 403 -136 q 371 -42 403 -67 q 253 3 339 -17 l 311 51 z "},"ˆ":{"ha":694,"x_min":82,"x_max":613,"o":"m 442 776 l 347 897 l 253 776 l 82 776 l 232 1017 l 463 1017 l 613 776 l 442 776 z "},"¨":{"ha":694,"x_min":78,"x_max":619,"o":"m 194 986 q 282 958 250 986 q 314 879 314 929 q 282 801 314 829 q 194 772 250 772 q 109 801 140 772 q 78 879 78 829 q 109 958 78 929 q 194 986 140 986 m 500 986 q 588 958 556 986 q 619 879 619 929 q 588 801 619 829 q 500 772 556 772 q 415 801 446 772 q 383 879 383 829 q 415 958 383 929 q 500 986 446 986 z "},"˙":{"ha":694,"x_min":221,"x_max":476,"o":"m 347 1003 q 444 974 411 1003 q 476 892 476 946 q 444 808 476 836 q 347 779 411 779 q 253 808 286 779 q 221 892 221 836 q 253 974 221 946 q 347 1003 286 1003 z "},"`":{"ha":694,"x_min":128,"x_max":440,"o":"m 440 785 l 268 785 l 128 1025 l 347 1025 l 440 785 z "},"˝":{"ha":694,"x_min":85,"x_max":675,"o":"m 249 785 l 85 785 l 181 1025 l 381 1025 l 249 785 m 543 785 l 379 785 l 475 1025 l 675 1025 l 543 785 z "},"¯":{"ha":694,"x_min":89,"x_max":606,"o":"m 606 790 l 89 790 l 89 936 l 606 936 l 606 790 z "},"˛":{"ha":736,"x_min":174,"x_max":510,"o":"m 499 17 q 376 -40 413 -10 q 339 -106 339 -69 q 360 -150 339 -133 q 415 -167 381 -167 q 479 -153 457 -167 l 510 -267 q 367 -299 458 -299 q 227 -259 281 -299 q 174 -144 174 -219 q 404 50 174 1 l 499 17 z "},"˚":{"ha":694,"x_min":163,"x_max":536,"o":"m 350 1101 q 487 1056 438 1101 q 536 933 536 1011 q 487 810 536 856 q 350 765 438 765 q 213 810 263 765 q 163 933 163 856 q 213 1056 163 1011 q 350 1101 263 1101 m 350 1004 q 297 985 317 1004 q 276 933 276 965 q 297 882 276 901 q 350 863 317 863 q 402 882 382 863 q 422 933 422 901 q 402 985 422 965 q 350 1004 382 1004 z "},"˜":{"ha":694,"x_min":72,"x_max":622,"o":"m 622 997 q 439 776 614 776 q 372 789 397 776 q 317 825 346 801 q 285 848 299 840 q 257 856 272 856 q 222 836 235 856 q 206 778 210 817 l 72 778 q 256 999 81 999 q 323 985 297 999 q 379 949 349 972 q 410 926 400 932 q 436 919 421 919 q 472 939 460 919 q 489 997 485 958 l 622 997 z "}}}
